<?xml version="1.0" encoding="utf-8"?>
<!-- Generator: Adobe Illustrator 25.2.3, SVG Export Plug-In . SVG Version: 6.00 Build 0)  -->
<svg version="1.1" id="Layer_1" xmlns="http://www.w3.org/2000/svg" xmlns:xlink="http://www.w3.org/1999/xlink" x="0px" y="0px"
	 viewBox="0 0 293.2 55.3" style="enable-background:new 0 0 293.2 55.3;" xml:space="preserve">
<style type="text/css">
	.st0{fill:#E51B24;}
	.st1{fill:#FFFFFF;}
</style>
<g>
	<path class="st0" d="M261,55.3H32.2C14.4,55.3,0,42.9,0,27.6l0,0C0,12.4,14.4,0,32.2,0H261c17.8,0,32.2,12.4,32.2,27.6l0,0
		C293.2,42.9,278.8,55.3,261,55.3z"/>
</g>
<g>
	<path class="st1" d="M42.7,23.2h-5.5v-1.7c0-0.8-0.1-1.3-0.2-1.5c-0.1-0.2-0.4-0.3-0.7-0.3c-0.4,0-0.6,0.1-0.8,0.4
		c-0.2,0.3-0.3,0.7-0.3,1.3c0,0.8,0.1,1.3,0.3,1.7c0.2,0.4,0.8,0.8,1.7,1.4c2.6,1.6,4.3,2.8,5,3.8c0.7,1,1,2.6,1,4.8
		c0,1.6-0.2,2.8-0.6,3.6c-0.4,0.8-1.1,1.4-2.2,1.9c-1.1,0.5-2.3,0.8-3.8,0.8c-1.6,0-2.9-0.3-4-0.9c-1.1-0.6-1.8-1.4-2.2-2.3
		c-0.3-0.9-0.5-2.2-0.5-3.9v-1.5h5.5v2.8c0,0.9,0.1,1.4,0.2,1.6c0.2,0.2,0.4,0.4,0.8,0.4s0.7-0.2,0.9-0.5c0.2-0.3,0.3-0.8,0.3-1.4
		c0-1.3-0.2-2.2-0.5-2.6c-0.4-0.4-1.3-1.1-2.8-2.1c-1.5-1-2.4-1.7-2.9-2.1s-0.9-1-1.2-1.8c-0.3-0.8-0.5-1.8-0.5-3
		c0-1.7,0.2-3,0.7-3.8c0.4-0.8,1.2-1.4,2.2-1.9c1-0.5,2.2-0.7,3.6-0.7c1.5,0,2.8,0.2,3.9,0.7c1.1,0.5,1.8,1.1,2.1,1.9
		c0.4,0.8,0.5,2,0.5,3.8V23.2z"/>
	<path class="st1" d="M58.2,16.3V39H53L50,28.7V39H45V16.3H50l3.3,10.2V16.3H58.2z"/>
	<path class="st1" d="M66.5,16.3V39h-5.9V16.3H66.5z"/>
	<path class="st1" d="M82.6,26.2h-5.9v-3.9c0-1.1-0.1-1.9-0.2-2.1c-0.1-0.3-0.4-0.4-0.8-0.4c-0.5,0-0.8,0.2-0.9,0.5
		c-0.1,0.3-0.2,1.1-0.2,2.2V33c0,1.1,0.1,1.8,0.2,2.2c0.1,0.3,0.4,0.5,0.9,0.5c0.4,0,0.7-0.2,0.9-0.5c0.1-0.3,0.2-1.1,0.2-2.4v-2.9
		h5.9v0.9c0,2.3-0.2,4-0.5,5c-0.3,1-1.1,1.8-2.2,2.6c-1.1,0.7-2.5,1.1-4.2,1.1c-1.7,0-3.2-0.3-4.3-0.9c-1.1-0.6-1.9-1.5-2.2-2.6
		c-0.4-1.1-0.5-2.8-0.5-5v-6.6c0-1.6,0.1-2.9,0.2-3.7c0.1-0.8,0.4-1.6,1-2.4c0.6-0.8,1.3-1.4,2.3-1.8c1-0.4,2.1-0.7,3.4-0.7
		c1.7,0,3.2,0.3,4.3,1c1.1,0.7,1.9,1.5,2.2,2.5c0.4,1,0.5,2.6,0.5,4.7V26.2z"/>
	<path class="st1" d="M98.8,16.3l-3.4,10.2L99.1,39H93l-2.4-9.7V39h-5.9V16.3h5.9v8.8l2.6-8.8H98.8z"/>
	<path class="st1" d="M100.2,16.3h9.8v4.5h-3.9v4.3h3.7v4.3h-3.7v5h4.3V39h-10.2V16.3z"/>
	<path class="st1" d="M112.1,16.3h4.2c2.8,0,4.7,0.1,5.7,0.3c1,0.2,1.8,0.8,2.4,1.6c0.6,0.9,0.9,2.3,0.9,4.2c0,1.8-0.2,3-0.7,3.6
		c-0.4,0.6-1.3,1-2.6,1.1c1.2,0.3,2,0.7,2.4,1.2c0.4,0.5,0.7,0.9,0.7,1.3c0.1,0.4,0.1,1.5,0.1,3.4v6h-5.5v-7.5c0-1.2-0.1-2-0.3-2.3
		c-0.2-0.3-0.7-0.4-1.5-0.4V39h-5.9V16.3z M118,20.2v5c0.7,0,1.1-0.1,1.4-0.3c0.3-0.2,0.4-0.8,0.4-1.8v-1.2c0-0.7-0.1-1.2-0.4-1.4
		C119.1,20.3,118.7,20.2,118,20.2z"/>
	<path class="st1" d="M140,23.2h-5.5v-1.7c0-0.8-0.1-1.3-0.2-1.5c-0.1-0.2-0.4-0.3-0.7-0.3c-0.4,0-0.6,0.1-0.8,0.4
		c-0.2,0.3-0.3,0.7-0.3,1.3c0,0.8,0.1,1.3,0.3,1.7c0.2,0.4,0.8,0.8,1.7,1.4c2.6,1.6,4.3,2.8,5,3.8c0.7,1,1,2.6,1,4.8
		c0,1.6-0.2,2.8-0.6,3.6c-0.4,0.8-1.1,1.4-2.2,1.9c-1.1,0.5-2.3,0.8-3.8,0.8c-1.6,0-2.9-0.3-4-0.9c-1.1-0.6-1.8-1.4-2.2-2.3
		c-0.3-0.9-0.5-2.2-0.5-3.9v-1.5h5.5v2.8c0,0.9,0.1,1.4,0.2,1.6s0.4,0.4,0.8,0.4s0.7-0.2,0.9-0.5c0.2-0.3,0.3-0.8,0.3-1.4
		c0-1.3-0.2-2.2-0.5-2.6c-0.4-0.4-1.3-1.1-2.8-2.1c-1.5-1-2.4-1.7-2.9-2.1c-0.5-0.4-0.9-1-1.2-1.8c-0.3-0.8-0.5-1.8-0.5-3
		c0-1.7,0.2-3,0.7-3.8c0.4-0.8,1.2-1.4,2.2-1.9c1-0.5,2.2-0.7,3.6-0.7c1.5,0,2.8,0.2,3.9,0.7c1.1,0.5,1.8,1.1,2.1,1.9
		c0.4,0.8,0.5,2,0.5,3.8V23.2z"/>
	<path class="st1" d="M149.2,25.7v3.9h-7.4v-3.9H149.2z"/>
	<path class="st1" d="M150.8,16.3h5.9c1.6,0,2.8,0.1,3.7,0.4c0.9,0.3,1.5,0.6,1.9,1.1c0.4,0.5,0.7,1.1,0.9,1.7
		c0.2,0.7,0.2,1.7,0.2,3.1v2c0,1.4-0.1,2.5-0.4,3.2c-0.3,0.7-0.8,1.2-1.6,1.5c-0.8,0.4-1.8,0.5-3.1,0.5h-1.6V39h-5.9V16.3z
		 M156.7,20.2V26c0.2,0,0.3,0,0.4,0c0.5,0,0.9-0.1,1.1-0.4c0.2-0.3,0.3-0.8,0.3-1.7V22c0-0.8-0.1-1.3-0.4-1.5
		C158,20.3,157.5,20.2,156.7,20.2z"/>
	<path class="st1" d="M165.2,16.3h4.2c2.8,0,4.7,0.1,5.7,0.3c1,0.2,1.8,0.8,2.4,1.6c0.6,0.9,0.9,2.3,0.9,4.2c0,1.8-0.2,3-0.7,3.6
		c-0.4,0.6-1.3,1-2.6,1.1c1.2,0.3,2,0.7,2.4,1.2c0.4,0.5,0.7,0.9,0.7,1.3c0.1,0.4,0.1,1.5,0.1,3.4v6h-5.5v-7.5c0-1.2-0.1-2-0.3-2.3
		c-0.2-0.3-0.7-0.4-1.5-0.4V39h-5.9V16.3z M171.1,20.2v5c0.7,0,1.1-0.1,1.4-0.3c0.3-0.2,0.4-0.8,0.4-1.8v-1.2c0-0.7-0.1-1.2-0.4-1.4
		C172.3,20.3,171.8,20.2,171.1,20.2z"/>
	<path class="st1" d="M194.2,29.6c0,2.3-0.1,3.9-0.2,4.8c-0.1,0.9-0.4,1.8-1,2.6c-0.6,0.8-1.3,1.4-2.3,1.8c-1,0.4-2.1,0.6-3.4,0.6
		c-1.2,0-2.3-0.2-3.3-0.6c-1-0.4-1.7-1-2.3-1.8c-0.6-0.8-0.9-1.7-1.1-2.6c-0.1-0.9-0.2-2.6-0.2-4.9v-3.9c0-2.3,0.1-3.9,0.2-4.8
		s0.4-1.8,1-2.6c0.6-0.8,1.3-1.4,2.3-1.8c1-0.4,2.1-0.6,3.4-0.6c1.2,0,2.3,0.2,3.3,0.6c1,0.4,1.7,1,2.3,1.8c0.6,0.8,0.9,1.7,1.1,2.6
		c0.1,0.9,0.2,2.6,0.2,4.9V29.6z M188.3,22.1c0-1.1-0.1-1.7-0.2-2c-0.1-0.3-0.4-0.4-0.7-0.4c-0.3,0-0.5,0.1-0.7,0.4
		c-0.2,0.2-0.2,0.9-0.2,2.1v10.6c0,1.3,0.1,2.1,0.2,2.4c0.1,0.3,0.4,0.5,0.7,0.5c0.4,0,0.7-0.2,0.8-0.5c0.1-0.4,0.2-1.2,0.2-2.5
		V22.1z"/>
	<path class="st1" d="M214.6,16.3V39h-5.2l0-15.3L207.4,39h-3.7l-2.2-15l0,15h-5.2V16.3h7.6c0.2,1.4,0.5,3,0.7,4.8l0.8,5.8l1.4-10.6
		H214.6z"/>
	<path class="st1" d="M230.4,29.6c0,2.3-0.1,3.9-0.2,4.8c-0.1,0.9-0.4,1.8-1,2.6c-0.6,0.8-1.3,1.4-2.3,1.8c-1,0.4-2.1,0.6-3.4,0.6
		c-1.2,0-2.3-0.2-3.3-0.6c-1-0.4-1.7-1-2.3-1.8c-0.6-0.8-0.9-1.7-1.1-2.6c-0.1-0.9-0.2-2.6-0.2-4.9v-3.9c0-2.3,0.1-3.9,0.2-4.8
		c0.1-0.9,0.4-1.8,1-2.6c0.6-0.8,1.3-1.4,2.3-1.8c1-0.4,2.1-0.6,3.4-0.6c1.2,0,2.3,0.2,3.3,0.6c1,0.4,1.7,1,2.3,1.8
		c0.6,0.8,0.9,1.7,1.1,2.6c0.1,0.9,0.2,2.6,0.2,4.9V29.6z M224.5,22.1c0-1.1-0.1-1.7-0.2-2c-0.1-0.3-0.4-0.4-0.7-0.4
		c-0.3,0-0.5,0.1-0.7,0.4c-0.2,0.2-0.2,0.9-0.2,2.1v10.6c0,1.3,0.1,2.1,0.2,2.4c0.1,0.3,0.4,0.5,0.7,0.5c0.4,0,0.7-0.2,0.8-0.5
		c0.1-0.4,0.2-1.2,0.2-2.5V22.1z"/>
	<path class="st1" d="M236.2,34.4V39H232v-4.6H236.2z"/>
	<path class="st1" d="M251.3,16.3v15.2c0,1.7-0.1,2.9-0.2,3.6c-0.1,0.7-0.4,1.4-1,2.1c-0.6,0.7-1.3,1.3-2.2,1.7
		c-0.9,0.4-2,0.6-3.2,0.6c-1.4,0-2.6-0.2-3.6-0.7c-1-0.4-1.8-1-2.3-1.8c-0.5-0.7-0.8-1.5-0.9-2.3c-0.1-0.8-0.1-2.5-0.1-5V16.3h5.9
		v17c0,1,0.1,1.6,0.2,1.9c0.1,0.3,0.3,0.4,0.7,0.4c0.4,0,0.6-0.2,0.7-0.5c0.1-0.3,0.2-1,0.2-2.2V16.3H251.3z"/>
	<path class="st1" d="M263.5,16.3v4.5l-4.4,13.6h4.4V39h-10.9v-3.3l4.5-14.9h-4v-4.5H263.5z"/>
</g>
</svg>
