<?xml version="1.0" encoding="utf-8"?>
<!-- Generator: Adobe Illustrator 25.2.3, SVG Export Plug-In . SVG Version: 6.00 Build 0)  -->
<svg version="1.1" id="Layer_1" xmlns="http://www.w3.org/2000/svg" xmlns:xlink="http://www.w3.org/1999/xlink" x="0px" y="0px"
	 viewBox="0 0 541.3 496.4" style="enable-background:new 0 0 541.3 496.4;" xml:space="preserve">
<style type="text/css">
	.st0{fill:#FFFFFF;}
</style>
<g>
	<path class="st0" d="M541.3,80.7h-12V41.3c0-16.2-13.2-29.3-29.3-29.3h-39.3V0H500c22.8,0,41.3,18.5,41.3,41.3V80.7z"/>
	<path class="st0" d="M12,80.7H0V41.3C0,18.5,18.5,0,41.3,0h39.3v12H41.3C25.2,12,12,25.2,12,41.3V80.7z"/>
	<path class="st0" d="M80.7,427.8H41.3C18.5,427.8,0,409.2,0,386.4v-39.3h12v39.3c0,16.2,13.2,29.3,29.3,29.3h39.3V427.8z"/>
	<path class="st0" d="M500,427.8h-39.3v-12H500c16.2,0,29.3-13.2,29.3-29.3v-39.3h12v39.3C541.3,409.2,522.8,427.8,500,427.8z"/>
	<g>
		<rect x="176.8" y="376.2" class="st0" width="5.2" height="104.9"/>
		<path class="st0" d="M330,481.1h5.2v-19.7c-1.7,0.7-3.4,1.3-5.2,1.9V481.1z"/>
		<path class="st0" d="M247.9,376.2v14.4c0.9-4.9,2.4-9.8,4.5-14.4H247.9z"/>
		<path class="st0" d="M247.9,481.1h5.2v-51c-2.4-5.1-4.2-10.4-5.2-15.9V481.1z"/>
		<rect x="188.1" y="376.2" class="st0" width="10.4" height="104.9"/>
		<rect x="203.9" y="376.2" class="st0" width="6.6" height="104.9"/>
		<rect x="215.1" y="376.2" class="st0" width="2.7" height="104.9"/>
		<rect x="223" y="376.2" class="st0" width="10.4" height="104.9"/>
		<rect x="238.3" y="376.2" class="st0" width="5.2" height="104.9"/>
		<path class="st0" d="M257.1,437.3v43.8h9v-32.8c-0.2-0.2-0.4-0.4-0.7-0.6C262.3,444.4,259.5,441,257.1,437.3z"/>
		<path class="st0" d="M270.8,481.1h5.2v-25c-1.8-1.2-3.5-2.4-5.2-3.7V481.1z"/>
		<path class="st0" d="M281.2,481.1h7.6v-18.6c-2.6-0.9-5.2-2.1-7.6-3.4V481.1z"/>
		<path class="st0" d="M296.3,481.1h6.5v-15.2c-2.2-0.3-4.4-0.6-6.5-1.1V481.1z"/>
		<path class="st0" d="M307.5,481.1h2.7v-14.8c-0.9,0-1.8,0-2.7-0.1V481.1z"/>
		<path class="st0" d="M315.4,481.1h10.4v-16.6c-3.4,0.8-6.9,1.4-10.4,1.6V481.1z"/>
		<path class="st0" d="M268.7,378.8c-1,1.7-1.8,3.4-2.5,5.2L268.7,378.8z"/>
		<path class="st0" d="M330,437.1c1.8-1,3.6-2.2,5.2-3.4v-57.4H330V437.1z"/>
		<path class="st0" d="M276,421.6v-38.4C269.4,395.1,269.4,409.7,276,421.6z"/>
		<path class="st0" d="M281.2,428.9c0.5,0.5,1,1.1,1.5,1.6c1.9,1.9,4,3.6,6.2,5v-59.3h-7.6V428.9z"/>
		<path class="st0" d="M296.3,439.4c2.1,0.8,4.3,1.5,6.5,1.9v-65.1h-6.5V439.4z"/>
		<path class="st0" d="M307.5,441.9c0.9,0.1,1.8,0.1,2.7,0.1v-65.9h-2.7V441.9z"/>
		<path class="st0" d="M315.4,441.8c3.6-0.4,7.1-1.3,10.4-2.7v-62.9h-10.4V441.8z"/>
		<path class="st0" d="M401.2,479.1l-48-41.3c18.1-21.7,16.9-54.1-3.5-74.5c-21.6-21.6-56.7-21.6-78.3,0c-3.9,3.9-7.1,8.3-9.6,12.9
			c-2.1,3.9-3.7,8-4.8,12.2c-2.4,9.2-2.4,18.9,0,28.2c1.7,6.7,4.7,13.1,9,18.8c1.4,1.9,3,3.7,4.6,5.5c0.2,0.3,0.5,0.5,0.7,0.8
			c1.4,1.4,2.9,2.8,4.5,4c1.7,1.3,3.4,2.6,5.2,3.7c2.5,1.6,5,2.9,7.6,4c2.4,1.1,5,1.9,7.5,2.6c2.2,0.6,4.3,1,6.5,1.3
			c1.5,0.2,3.1,0.4,4.6,0.5c0.9,0.1,1.8,0.1,2.7,0.1c1.7,0,3.5,0,5.2-0.2c3.5-0.3,7-0.9,10.4-1.9c1.4-0.4,2.8-0.9,4.2-1.4
			c1.8-0.6,3.5-1.4,5.2-2.2c3.8-1.9,7.5-4.2,10.9-7l41.3,48c3.7,4.3,10.4,4.6,14.4,0.5C405.8,489.5,405.6,482.9,401.2,479.1z
			 M344.7,436.5c-1.1,1.1-2.2,2.1-3.4,3.1c-2,1.6-4,3.1-6.2,4.3c-1.7,1-3.4,1.9-5.2,2.6c-1.4,0.6-2.8,1.1-4.2,1.6
			c-3.4,1.1-6.9,1.8-10.4,2.2c-1.7,0.2-3.5,0.2-5.2,0.2c-0.9,0-1.8,0-2.7-0.1c-1.6-0.1-3.1-0.3-4.6-0.5c-2.2-0.4-4.4-0.9-6.5-1.5
			c-2.6-0.8-5.1-1.8-7.5-3c-2.7-1.3-5.2-3-7.6-4.8c-1.6-1.2-3.1-2.6-4.6-4c-0.2-0.2-0.4-0.4-0.6-0.6c-1.9-2-3.7-4.1-5.2-6.4
			c-0.9-1.4-1.8-2.8-2.6-4.2c-0.4-0.7-0.8-1.5-1.1-2.2c0,0,0,0,0,0l-1-2.2c0.3,0.7,0.6,1.5,1,2.2c-0.3-0.7-0.7-1.5-1-2.2
			c-4.8-11.7-4.8-25,0-36.8c0.7-1.8,1.6-3.5,2.5-5.2c2.1-3.7,4.7-7.3,7.9-10.4c18.8-18.8,49.4-18.8,68.1,0
			c17.7,17.7,18.7,45.8,3.1,64.7C346.9,434.3,345.8,435.4,344.7,436.5z"/>
	</g>
</g>
</svg>
