<?xml version="1.0" encoding="utf-8"?>
<!-- Generator: Adobe Illustrator 25.2.3, SVG Export Plug-In . SVG Version: 6.00 Build 0)  -->
<svg version="1.1" id="Layer_1" xmlns="http://www.w3.org/2000/svg" xmlns:xlink="http://www.w3.org/1999/xlink" x="0px" y="0px"
	 viewBox="0 0 353.9 44.7" style="enable-background:new 0 0 353.9 44.7;" xml:space="preserve">
<style type="text/css">
	.st0{fill:#FCAF17;}
</style>
<g>
	<path class="st0" d="M0,0.1h9.9v16.1c1.9,0,2.8-1.1,2.9-3.1L13,5.7c0.1-2.7,0.6-4.6,1.6-5.5h9.1c-0.9,0.9-1.3,2.8-1.3,5.7v6.5
		c0,3.9-2.2,6.2-6.7,6.7c4.5,0.5,6.7,2.8,6.7,6.8V32c0,2.9,0.4,4.9,1.3,6.2h-9.1c-1.1-1-1.6-2.8-1.6-5.5v-7.4c0-0.9-0.3-1.7-0.9-2.3
		c-0.6-0.6-1.3-0.9-2.2-0.9v16.1H0V0.1z"/>
	<path class="st0" d="M43.4,0.1l5.7,38H38.9l-0.5-6.8h-3.5l-0.6,6.8H24l5-38C29,0.1,43.4,0.1,43.4,0.1z M38.1,24.6
		c-0.5-4.3-1-9.6-1.5-16c-1,7.3-1.6,12.6-1.9,16H38.1z"/>
	<path class="st0" d="M62.1,21.8c-2.1,0-3.1,0.9-3.1,2.7v10c0,1.3-0.1,2.3-0.4,2.8c-0.3,0.6-0.5,0.8-0.6,0.8h-8.2
		c0.7-1,1.1-2.5,1.1-4.5V25c0-1.8,0.5-3.2,1.5-4.2s2.7-1.6,5.2-2l0,0c-4.4-0.2-6.7-2.3-6.7-6.2V4.5c0-2-0.4-3.5-1.1-4.5H58
		c0.2,0.1,0.5,0.4,0.7,1s0.4,1.5,0.4,2.6v9.5c0,1.7,1,2.6,3.1,2.7V0.1H72v15.8c2.1-0.1,3.1-1,3.1-2.7V3.7c0-1.3,0.1-2.2,0.4-2.8
		c0.3-0.5,0.5-0.8,0.6-0.8h8.2c-0.7,1-1.1,2.5-1.1,4.5v8.1c0,3.9-2.2,6-6.7,6.2l0,0c2.5,0.4,4.2,1.1,5.2,2c1,1,1.5,2.3,1.5,4.2v8.6
		c0,2,0.4,3.5,1.1,4.5h-8.2c-0.3-0.1-0.5-0.5-0.7-1.1s-0.3-1.5-0.3-2.6v-10c0-1.7-1.1-2.6-3.2-2.7v16.4H62L62.1,21.8L62.1,21.8z"/>
	<path class="st0" d="M115.6,44.7h-6.8v-6.6h-16v6.6H86V30.2h2c1.1-3.1,1.9-7.2,2.6-12.3c0.7-5.1,1-10.6,1-16.7V0h21.9v30.1h2
		L115.6,44.7L115.6,44.7z M103.7,30.1V7.6h-2.9v0.3c0,7.3-0.8,14.7-2.4,22.3h5.3V30.1z"/>
	<path class="st0" d="M138.8,0.1l-2.7,25.2c-0.4,4-0.9,6.8-1.4,8.4s-1.4,2.8-2.8,3.4c-1.4,0.7-3.7,1-6.9,1h-5.8v-4.9h0.6
		c1.3,0,2.1-0.1,2.4-0.3c0.3-0.2,0.5-0.5,0.5-1c0,0-0.2-1.1-0.6-3.2l-5.2-28.6h8.6l3.1,23.7l1.5-23.7H138.8z"/>
	<path class="st0" d="M153.8,22.2h-2.7v16h-9.9V0.1h9.9v13.6h2.7c0-3.3,0.2-5.7,0.5-7.2s1-2.7,2-3.7s2.2-1.7,3.7-2.1
		s3.2-0.6,5.3-0.6s3.9,0.2,5.4,0.7c1.5,0.4,2.8,1.2,3.7,2.3c1,1.1,1.6,2.4,1.9,4.1c0.3,1.7,0.4,4.6,0.4,8.6v6.5c0,4.1-0.1,7-0.4,8.6
		c-0.3,1.7-0.9,3-1.9,4.1s-2.3,1.9-3.8,2.4s-3.3,0.7-5.4,0.7c-1.9,0-3.6-0.2-5.1-0.6s-2.7-1.1-3.7-2s-1.6-1.9-1.9-3
		c-0.3-1.1-0.5-2.4-0.6-4S153.8,24.8,153.8,22.2L153.8,22.2L153.8,22.2z M166.8,28.8V9.9c0-1.6-0.1-2.7-0.2-3.3
		c-0.2-0.6-0.6-0.9-1.3-0.9c-0.6,0-1,0.2-1.2,0.7s-0.4,1.6-0.4,3.5v19.5c0,1,0.1,1.7,0.3,2.3s0.6,0.8,1.2,0.8c0.5,0,1-0.2,1.2-0.6
		C166.7,31.4,166.8,30.4,166.8,28.8z"/>
	<path class="st0" d="M212.6,0.1v38h-9.9v-16h-3v16h-9.9v-38h9.9v13.6h3V0.1H212.6z"/>
	<path class="st0" d="M217,0.1h16.5v7.6h-6.6v7.2h6.2v7.2h-6.2v8.4h7.3v7.6H217V0.1z"/>
	<path class="st0" d="M265.8,44.7H259v-6.6h-16v6.6h-6.8V30.2h2c1.1-3.1,1.9-7.2,2.6-12.3c0.7-5.1,1-10.6,1-16.7V0h21.9v30.1h2
		L265.8,44.7L265.8,44.7z M253.9,30.1V7.6H251v0.3c0,7.3-0.8,14.7-2.4,22.3h5.3V30.1z"/>
	<path class="st0" d="M269.4,0.1h16.5v7.6h-6.6v7.2h6.2v7.2h-6.2v8.4h7.3v7.6h-17.2L269.4,0.1L269.4,0.1z"/>
	<path class="st0" d="M314,38.1h-9.9V7.7h-2.9v21.5c0,2.8-0.4,4.9-1.1,6.1s-1.8,2-3.3,2.3s-3.9,0.5-7.1,0.5h-1.5v-6.6
		c1.2,0,2-0.1,2.5-0.4s0.7-1.3,0.7-3.1V0H314V38.1z"/>
	<path class="st0" d="M331,22.2h-2.7v16h-9.9V0.1h9.9v13.6h2.7c0-3.3,0.2-5.7,0.5-7.2s1-2.7,2-3.7s2.2-1.7,3.7-2.1s3.2-0.6,5.3-0.6
		c2.1,0,3.9,0.2,5.4,0.7c1.5,0.5,2.8,1.2,3.7,2.3c1,1.1,1.6,2.4,1.9,4.1s0.4,4.6,0.4,8.6v6.5c0,4.1-0.1,7-0.4,8.6
		c-0.3,1.7-0.9,3-1.9,4.1s-2.3,1.9-3.8,2.4s-3.3,0.7-5.4,0.7c-1.9,0-3.6-0.2-5.1-0.6s-2.7-1.1-3.7-2s-1.6-1.9-1.9-3s-0.5-2.4-0.6-4
		S331,24.8,331,22.2L331,22.2z M344,28.8V9.9c0-1.6-0.1-2.7-0.2-3.3c-0.2-0.6-0.6-0.9-1.3-0.9c-0.6,0-1,0.2-1.2,0.7
		s-0.4,1.6-0.4,3.5v19.5c0,1,0.1,1.7,0.3,2.3c0.2,0.5,0.6,0.8,1.2,0.8c0.5,0,1-0.2,1.2-0.6C343.9,31.4,344,30.4,344,28.8z"/>
</g>
</svg>
