<?xml version="1.0" encoding="utf-8"?>
<!-- Generator: Adobe Illustrator 25.2.3, SVG Export Plug-In . SVG Version: 6.00 Build 0)  -->
<svg version="1.1" id="Layer_1" xmlns="http://www.w3.org/2000/svg" xmlns:xlink="http://www.w3.org/1999/xlink" x="0px" y="0px"
	 viewBox="0 0 288.9 46.4" style="enable-background:new 0 0 288.9 46.4;" xml:space="preserve">
<style type="text/css">
	.st0{fill:#FFFFFF;}
</style>
<g>
	<path class="st0" d="M22.1,46.3h-8.3V29L8.7,46.3H0V8.2h8.3v17.2l5.5-17.2h8.3C22.1,8.2,22.1,46.3,22.1,46.3z"/>
	<path class="st0" d="M35.5,8.3h9.9c3.1,0,5.5,0.2,7.1,0.7s2.9,1.5,3.9,2.9c1,1.5,1.5,3.9,1.5,7.2c0,2.2-0.3,3.8-1,4.6
		c-0.7,0.9-2.1,1.5-4.1,2c2.3,0.5,3.8,1.4,4.7,2.6c0.8,1.2,1.2,3,1.2,5.5v3.5c0,2.6-0.3,4.5-0.9,5.7s-1.5,2.1-2.8,2.5
		c-1.3,0.5-3.9,0.7-7.9,0.7H35.5V8.3z M45.4,14.8v8.5c0.4,0,0.8,0,1,0c1,0,1.6-0.2,1.9-0.7c0.3-0.5,0.4-1.8,0.4-4.1
		c0-1.2-0.1-2-0.3-2.5s-0.5-0.8-0.9-0.9C47.1,14.9,46.4,14.8,45.4,14.8z M45.4,29.2v10.6c1.4,0,2.3-0.3,2.7-0.7s0.6-1.4,0.6-2.9
		v-3.5c0-1.6-0.2-2.6-0.5-3C47.8,29.4,46.8,29.2,45.4,29.2z"/>
	<path class="st0" d="M85.6,37.4c0,2.8-0.4,4.9-1.1,6.1s-1.9,2-3.3,2.3c-1.5,0.3-3.9,0.5-7.2,0.5H62.5V8.2h9.9v13H74
		c3.1,0,5.4,0.2,6.9,0.5s2.7,1.2,3.5,2.4s1.2,3.2,1.2,5.8V37.4z M75.7,36.3v-5.5c0-1.6-0.2-2.6-0.5-2.9c-0.3-0.3-1.2-0.5-2.7-0.6
		v12.5c1.3,0,2.1-0.2,2.5-0.5C75.5,39,75.7,38,75.7,36.3z M98.9,46.3H89V8.2h9.9V46.3z"/>
	<path class="st0" d="M125.1,46.3h-8.3V29l-5.1,17.3H103V8.2h8.3v17.2l5.5-17.2h8.3C125.1,8.2,125.1,46.3,125.1,46.3z"/>
	<path class="st0" d="M146.7,15.9h-7.3v30.5h-9.9V8.3h17.2V15.9z"/>
	<path class="st0" d="M149.8,8.3h10c2.7,0,4.8,0.2,6.2,0.6s2.5,1,3.3,1.8s1.2,1.8,1.5,2.9s0.4,2.9,0.4,5.3v3.3
		c0,2.4-0.3,4.2-0.8,5.3s-1.4,2-2.8,2.6c-1.3,0.6-3.1,0.9-5.3,0.9h-2.7v15.3h-9.9v-38L149.8,8.3L149.8,8.3z M159.7,14.8v9.7
		c0.3,0,0.5,0,0.7,0c0.9,0,1.5-0.2,1.9-0.7s0.5-1.4,0.5-2.8v-3.1c0-1.3-0.2-2.1-0.6-2.5S161,14.8,159.7,14.8z"/>
	<path class="st0" d="M197.5,37.4c0,2.8-0.4,4.9-1.1,6.1c-0.7,1.2-1.9,2-3.3,2.3s-3.9,0.5-7.2,0.5h-11.4V8.2h9.9v13h1.5
		c3.1,0,5.4,0.2,6.9,0.5s2.7,1.2,3.5,2.4s1.2,3.2,1.2,5.8L197.5,37.4L197.5,37.4z M187.6,36.3v-5.5c0-1.6-0.2-2.6-0.5-2.9
		s-1.2-0.5-2.7-0.6v12.5c1.3,0,2.1-0.2,2.5-0.5C187.4,39,187.6,38,187.6,36.3z M210.8,46.3h-9.9V8.2h9.9V46.3z"/>
	<path class="st0" d="M214.9,8.3h9.9c3.1,0,5.5,0.2,7.1,0.7s2.9,1.5,3.9,2.9c1,1.5,1.5,3.9,1.5,7.2c0,2.2-0.3,3.8-1,4.6
		c-0.7,0.9-2.1,1.5-4.1,2c2.3,0.5,3.8,1.4,4.7,2.6s1.2,3,1.2,5.5v3.5c0,2.6-0.3,4.5-0.9,5.7c-0.6,1.2-1.5,2.1-2.8,2.5
		c-1.3,0.5-3.9,0.7-7.9,0.7h-11.4V8.3C215.1,8.3,214.9,8.3,214.9,8.3z M224.8,14.8v8.5c0.4,0,0.8,0,1,0c1,0,1.6-0.2,1.9-0.7
		c0.3-0.5,0.4-1.8,0.4-4.1c0-1.2-0.1-2-0.3-2.5s-0.5-0.8-0.9-0.9C226.5,14.9,225.8,14.8,224.8,14.8z M224.8,29.2v10.6
		c1.4,0,2.3-0.3,2.7-0.7s0.6-1.4,0.6-2.9v-3.5c0-1.6-0.2-2.6-0.5-3S226.2,29.2,224.8,29.2z"/>
	<path class="st0" d="M259,8.3l5.7,38h-10.1l-0.5-6.8h-3.5l-0.6,6.8h-10.2l5-38H259z M253.8,32.8c-0.5-4.3-1-9.6-1.5-16
		c-1,7.3-1.6,12.6-1.9,16H253.8z"/>
	<path class="st0" d="M288.9,46.3h-8.3V29l-5.1,17.3h-8.7V8.2h8.3v17.2l5.5-17.2h8.3L288.9,46.3L288.9,46.3z M280.5,0h4
		c-0.1,2.1-0.7,3.8-1.9,5.1c-1.2,1.3-2.8,2-4.8,2c-2.1,0-3.7-0.7-4.8-2c-1.1-1.3-1.8-3-1.8-5.1h4c0.2,2.1,1.1,3.2,2.7,3.2
		C279.4,3.2,280.3,2.1,280.5,0z"/>
</g>
</svg>
