<?xml version="1.0" encoding="utf-8"?>
<!-- Generator: Adobe Illustrator 25.2.3, SVG Export Plug-In . SVG Version: 6.00 Build 0)  -->
<svg version="1.1" id="Layer_1" xmlns="http://www.w3.org/2000/svg" xmlns:xlink="http://www.w3.org/1999/xlink" x="0px" y="0px"
	 viewBox="0 0 353.2 52" style="enable-background:new 0 0 353.2 52;" xml:space="preserve">
<style type="text/css">
	.st0{fill:#FFFFFF;}
</style>
<g>
	<path class="st0" d="M23,24.5h-9.7V18c0-1.9-0.1-3.1-0.3-3.5c-0.2-0.5-0.7-0.7-1.4-0.7c-0.8,0-1.3,0.3-1.5,0.9
		c-0.2,0.6-0.3,1.8-0.3,3.7v17.4c0,1.8,0.1,3,0.3,3.6c0.2,0.6,0.7,0.8,1.5,0.8c0.7,0,1.2-0.3,1.4-0.8c0.2-0.6,0.3-1.9,0.3-3.9v-4.7
		H23V32c0,3.9-0.3,6.6-0.8,8.2c-0.5,1.6-1.8,3-3.6,4.3c-1.9,1.2-4.2,1.8-6.9,1.8c-2.9,0-5.2-0.5-7.1-1.5c-1.8-1-3.1-2.5-3.7-4.3
		S0,36,0,32.3V21.4c0-2.7,0.1-4.7,0.3-6.1c0.2-1.3,0.7-2.6,1.7-3.9c0.9-1.2,2.2-2.2,3.8-2.9c1.6-0.7,3.5-1.1,5.6-1.1
		c2.9,0,5.2,0.6,7.1,1.7c1.9,1.1,3.1,2.5,3.7,4.1c0.6,1.7,0.9,4.2,0.9,7.7V24.5z"/>
	<path class="st0" d="M54.8,52h-6.7v-6.5H32.4V52h-6.7V37.8h2c1-3.1,1.9-7.1,2.6-12.1c0.7-5,1-10.5,1-16.4V8.1h21.6v29.6h2V52z
		 M43.1,37.7V15.5h-2.9v0.3c0,7.2-0.8,14.5-2.3,21.9H43.1z"/>
	<path class="st0" d="M58.3,8.2h16.2v7.5H68v7.1h6.1v7.1H68v8.2h7.1v7.5H58.3V8.2z"/>
	<path class="st0" d="M102.2,45.6h-9.8v-30h-2.8v21.2c0,2.8-0.4,4.8-1.1,6c-0.7,1.2-1.8,2-3.3,2.3c-1.5,0.3-3.8,0.5-7,0.5h-1.5v-6.5
		c1.2,0,2-0.1,2.5-0.4c0.4-0.3,0.7-1.3,0.7-3V8.1h22.4V45.6z"/>
	<path class="st0" d="M123.4,8.2l5.6,37.4H119l-0.5-6.7H115l-0.6,6.7h-10.1l5-37.4H123.4z M118.2,32.2c-0.5-4.2-1-9.5-1.5-15.7
		c-1,7.2-1.6,12.4-1.9,15.7H118.2z"/>
	<path class="st0" d="M152.8,45.6h-8.1v-17l-5.1,17h-8.5V8.1h8.1V25l5.5-16.9h8.1V45.6z M144.5,0h3.9c-0.1,2.1-0.7,3.8-1.8,5.1
		c-1.1,1.3-2.7,1.9-4.7,1.9c-2,0-3.6-0.6-4.7-1.9c-1.1-1.3-1.7-3-1.8-5.1h3.9c0.2,2.1,1.1,3.2,2.6,3.2C143.5,3.2,144.4,2.1,144.5,0z
		"/>
	<path class="st0" d="M188.4,45.6h-9.8v-30h-2.9v30H166V8.1h22.4V45.6z"/>
	<path class="st0" d="M214.5,45.6h-8.1v-17l-5.1,17h-8.5V8.1h8.1V25l5.5-16.9h8.1V45.6z"/>
	<path class="st0" d="M238.4,8.2v7.5h-5.8v29.9h-9.7V15.7h-5.8V8.2H238.4z"/>
	<path class="st0" d="M252.3,23.7v6.4H240v-6.4H252.3z"/>
	<path class="st0" d="M278.2,24.5h-9.7V18c0-1.9-0.1-3.1-0.3-3.5c-0.2-0.5-0.7-0.7-1.4-0.7c-0.8,0-1.3,0.3-1.5,0.9
		c-0.2,0.6-0.3,1.8-0.3,3.7v17.4c0,1.8,0.1,3,0.3,3.6c0.2,0.6,0.7,0.8,1.5,0.8c0.7,0,1.2-0.3,1.4-0.8c0.2-0.6,0.3-1.9,0.3-3.9v-4.7
		h9.7V32c0,3.9-0.3,6.6-0.8,8.2c-0.5,1.6-1.8,3-3.6,4.3c-1.9,1.2-4.2,1.8-6.9,1.8c-2.9,0-5.2-0.5-7.1-1.5c-1.8-1-3.1-2.5-3.7-4.3
		c-0.6-1.8-0.9-4.6-0.9-8.2V21.4c0-2.7,0.1-4.7,0.3-6.1c0.2-1.3,0.7-2.6,1.7-3.9c0.9-1.2,2.2-2.2,3.8-2.9c1.6-0.7,3.5-1.1,5.6-1.1
		c2.9,0,5.2,0.6,7.1,1.7c1.9,1.1,3.1,2.5,3.7,4.1c0.6,1.7,0.9,4.2,0.9,7.7V24.5z"/>
	<path class="st0" d="M301.8,8.2v7.5H296v29.9h-9.7V15.7h-5.8V8.2H301.8z"/>
	<path class="st0" d="M326.7,30.1c0,3.8-0.1,6.4-0.3,8c-0.2,1.6-0.7,3-1.7,4.3c-0.9,1.3-2.2,2.3-3.8,3c-1.6,0.7-3.4,1-5.5,1
		c-2,0-3.8-0.3-5.4-1c-1.6-0.7-2.9-1.6-3.8-2.9c-1-1.3-1.5-2.7-1.7-4.3c-0.2-1.5-0.3-4.2-0.3-8.1v-6.4c0-3.8,0.1-6.4,0.3-8
		c0.2-1.6,0.7-3,1.7-4.3c0.9-1.3,2.2-2.3,3.8-3s3.4-1,5.5-1c2,0,3.8,0.3,5.4,1c1.6,0.7,2.9,1.6,3.8,2.9c1,1.3,1.5,2.7,1.7,4.3
		c0.2,1.5,0.3,4.2,0.3,8.1V30.1z M317,17.8c0-1.7-0.1-2.9-0.3-3.3c-0.2-0.5-0.6-0.7-1.2-0.7c-0.5,0-0.9,0.2-1.2,0.6
		c-0.3,0.4-0.4,1.6-0.4,3.5v17.5c0,2.2,0.1,3.5,0.3,4c0.2,0.5,0.6,0.8,1.2,0.8c0.7,0,1.1-0.3,1.3-0.9c0.2-0.6,0.3-2,0.3-4.2V17.8z"
		/>
	<path class="st0" d="M353.2,45.6h-9.8v-30h-2.9v30h-9.8V8.1h22.4V45.6z"/>
</g>
</svg>
