<?xml version="1.0" encoding="utf-8"?>
<!-- Generator: Adobe Illustrator 25.2.3, SVG Export Plug-In . SVG Version: 6.00 Build 0)  -->
<svg version="1.1" id="Layer_1" xmlns="http://www.w3.org/2000/svg" xmlns:xlink="http://www.w3.org/1999/xlink" x="0px" y="0px"
	 viewBox="0 0 206.7 102.2" style="enable-background:new 0 0 206.7 102.2;" xml:space="preserve">
<style type="text/css">
	.st0{fill:#FCAF17;}
</style>
<g>
	<path class="st0" d="M25.1,24.9h-9.9v-6.6c0-1.9-0.1-3.1-0.3-3.6S14.2,14,13.5,14c-0.8,0-1.3,0.3-1.6,0.9c-0.2,0.6-0.3,1.8-0.3,3.8
		v17.7c0,1.8,0.1,3.1,0.3,3.6c0.2,0.6,0.7,0.8,1.5,0.8c0.7,0,1.2-0.3,1.4-0.8s0.3-1.9,0.3-4v-4.8H25v1.5c0,3.9-0.3,6.7-0.8,8.4
		s-1.8,3.1-3.7,4.3c-1.9,1.2-4.2,1.9-7,1.9c-2.9,0-5.3-0.5-7.2-1.6s-3.1-2.5-3.7-4.4s-0.9-4.6-0.9-8.4V21.7c0-2.7,0.1-4.8,0.3-6.2
		s0.7-2.7,1.7-4s2.2-2.3,3.9-3s3.6-1.1,5.7-1.1c2.9,0,5.3,0.6,7.2,1.7s3.1,2.5,3.7,4.2s0.9,4.3,0.9,7.8V24.9z"/>
	<path class="st0" d="M29.1,8.3H39v16.1c1.9,0,2.8-1.1,2.9-3.1l0.2-7.4c0.1-2.7,0.6-4.6,1.6-5.5h9.1c-0.9,0.9-1.3,2.8-1.3,5.7v6.5
		c0,3.9-2.2,6.2-6.7,6.7c4.5,0.5,6.7,2.8,6.7,6.8v6.1c0,2.9,0.4,4.9,1.3,6.2h-9.1c-1.1-1-1.6-2.8-1.6-5.5v-7.4
		c0-0.9-0.3-1.7-0.9-2.3c-0.6-0.6-1.3-0.9-2.2-0.9v16.1h-9.9V8.3z"/>
	<path class="st0" d="M72.5,8.3l5.7,38H68.1l-0.5-6.8h-3.5l-0.6,6.8H53.2l5-38C58.2,8.3,72.5,8.3,72.5,8.3z M67.3,32.8
		c-0.5-4.3-1-9.6-1.5-16c-1,7.3-1.6,12.6-1.9,16H67.3z"/>
	<path class="st0" d="M103.1,8.3v38h-9.9v-16h-3v16h-9.9v-38h9.9v13.6h3V8.3H103.1z"/>
	<path class="st0" d="M129.6,46.3h-8.3V29l-5.1,17.3h-8.7v-38h8.3v17.2l5.5-17.2h8.3L129.6,46.3L129.6,46.3z"/>
	<path class="st0" d="M134,8.3h10c2.7,0,4.8,0.2,6.2,0.6s2.5,1,3.3,1.8c0.7,0.8,1.2,1.8,1.5,2.9s0.4,2.9,0.4,5.3v3.3
		c0,2.4-0.3,4.2-0.8,5.3c-0.5,1.1-1.4,2-2.8,2.6c-1.3,0.6-3.1,0.9-5.3,0.9h-2.7v15.3h-9.9v-38H134z M143.9,14.8v9.7
		c0.3,0,0.5,0,0.7,0c0.9,0,1.5-0.2,1.9-0.7c0.4-0.4,0.5-1.4,0.5-2.8v-3.1c0-1.3-0.2-2.1-0.6-2.5C146.1,15,145.2,14.8,143.9,14.8z"/>
	<path class="st0" d="M178.3,8.3l-2.7,25.2c-0.4,4-0.9,6.8-1.4,8.4c-0.5,1.6-1.4,2.8-2.8,3.4c-1.4,0.7-3.7,1-6.9,1h-5.8v-4.9h0.6
		c1.3,0,2.1-0.1,2.4-0.3c0.3-0.2,0.5-0.5,0.5-1c0,0-0.2-1.1-0.6-3.2l-5.2-28.6h8.6l3.2,23.7l1.5-23.7C169.7,8.3,178.3,8.3,178.3,8.3
		z"/>
	<path class="st0" d="M202.8,46.3h-8.3V29l-5.1,17.3h-8.7v-38h8.3v17.2l5.5-17.2h8.3V46.3z M194.4,0h4c-0.1,2.1-0.7,3.8-1.9,5.1
		s-2.8,2-4.8,2c-2.1,0-3.7-0.7-4.8-2s-1.8-3-1.8-5.1h4c0.2,2.1,1.1,3.2,2.7,3.2C193.3,3.2,194.2,2.1,194.4,0z"/>
	<path class="st0" d="M23,92.4c0,2.8-0.4,4.9-1.1,6.1s-1.9,2-3.3,2.3c-1.5,0.3-3.9,0.5-7.2,0.5H0v-38h19.4v6.6H9.9v6.4h1.5
		c3.1,0,5.4,0.2,6.9,0.5s2.7,1.2,3.5,2.4c0.8,1.2,1.2,3.2,1.2,5.8C23,85,23,92.4,23,92.4z M13.1,91.3v-5.5c0-1.6-0.2-2.6-0.5-2.9
		s-1.2-0.5-2.7-0.6v12.5c1.3,0,2.1-0.2,2.5-0.5C12.9,94,13.1,93,13.1,91.3z"/>
	<path class="st0" d="M44.1,63.3l5.7,38H39.7l-0.5-6.8h-3.5l-0.6,6.8H24.8l5-38C29.8,63.3,44.1,63.3,44.1,63.3z M38.9,87.8
		c-0.5-4.3-1-9.6-1.5-16c-1,7.3-1.6,12.6-1.9,16H38.9z"/>
	<path class="st0" d="M71.9,63.3v7.6H66v30.4h-9.9V70.9h-5.9v-7.6C50.2,63.3,71.9,63.3,71.9,63.3z"/>
	<path class="st0" d="M97.2,85.6c0,3.8-0.1,6.5-0.3,8.1s-0.7,3-1.7,4.4c-0.9,1.3-2.2,2.3-3.8,3s-3.5,1.1-5.6,1.1c-2,0-3.9-0.3-5.5-1
		c-1.6-0.7-2.9-1.7-3.9-3s-1.6-2.8-1.8-4.3c-0.2-1.5-0.3-4.3-0.3-8.2v-6.5c0-3.8,0.1-6.5,0.3-8.1c0.2-1.6,0.7-3,1.7-4.4
		c0.9-1.3,2.2-2.3,3.8-3c1.6-0.7,3.5-1.1,5.6-1.1c2,0,3.9,0.3,5.5,1c1.6,0.7,2.9,1.7,3.9,3s1.6,2.8,1.8,4.3s0.3,4.3,0.3,8.2
		L97.2,85.6L97.2,85.6z M87.3,73.1c0-1.8-0.1-2.9-0.3-3.4S86.4,69,85.8,69c-0.5,0-0.9,0.2-1.2,0.6s-0.4,1.6-0.4,3.5v17.8
		c0,2.2,0.1,3.6,0.3,4.1s0.6,0.8,1.3,0.8s1.1-0.3,1.3-0.9s0.3-2,0.3-4.3V73.1H87.3z"/>
	<path class="st0" d="M124.1,63.3v38h-9.9v-16h-3v16h-9.9v-38h9.9v13.6h3V63.3H124.1z"/>
	<path class="st0" d="M142.1,86.7c-0.8,0.8-1.8,1.5-3.1,2s-2.6,0.8-3.9,0.8c-2.4,0-4.1-0.7-5.2-2c-1.1-1.3-1.6-3.4-1.6-6.1V63.3h9.9
		v17.1c0,1.5,0.1,2.5,0.4,3.1c0.3,0.6,0.7,0.8,1.3,0.8c1.5,0,2.2-1.3,2.2-3.8V63.3h9.9v38.1h-9.9L142.1,86.7L142.1,86.7z"/>
	<path class="st0" d="M178.5,101.3h-8.3V84l-5.1,17.3h-8.7v-38h8.3v17.2l5.5-17.2h8.3V101.3z"/>
	<path class="st0" d="M183,63.3h9.9v16.1c1.9,0,2.8-1.1,2.9-3.1l0.2-7.4c0.1-2.7,0.6-4.6,1.6-5.5h9.1c-0.9,0.9-1.3,2.8-1.3,5.7v6.5
		c0,3.9-2.2,6.2-6.7,6.7c4.5,0.5,6.7,2.8,6.7,6.8v6.1c0,2.9,0.4,4.9,1.3,6.2h-9.1c-1.1-1-1.6-2.8-1.6-5.5v-7.4
		c0-0.9-0.3-1.7-0.9-2.3c-0.6-0.6-1.3-0.9-2.2-0.9v16.1H183V63.3z"/>
</g>
</svg>
