<?xml version="1.0" encoding="utf-8"?>
<!-- Generator: Adobe Illustrator 25.2.3, SVG Export Plug-In . SVG Version: 6.00 Build 0)  -->
<svg version="1.1" id="Layer_1" xmlns="http://www.w3.org/2000/svg" xmlns:xlink="http://www.w3.org/1999/xlink" x="0px" y="0px"
	 viewBox="0 0 293 40.7" style="enable-background:new 0 0 293 40.7;" xml:space="preserve">
<style type="text/css">
	.st0{fill:#FFFFFF;}
</style>
<g>
	<g>
		<path class="st0" d="M21.9,12.7h-9.4V9.8c0-1.4-0.1-2.2-0.4-2.6c-0.3-0.4-0.7-0.6-1.2-0.6S9.8,6.9,9.5,7.3
			C9.2,7.9,9.1,8.6,9.1,9.5c0,1.2,0.1,2.3,0.6,2.9c0.3,0.7,1.2,1.5,2.9,2.3c4.6,2.6,7.3,4.8,8.6,6.6c1.1,1.7,1.8,4.4,1.8,8.3
			c0,2.8-0.3,4.8-1,6.1C21.2,37,20,38.2,18.2,39c-1.8,0.8-4,1.4-6.5,1.4c-2.8,0-5-0.6-6.9-1.5c-1.9-1-3.2-2.3-3.7-3.9
			c-0.6-1.7-0.8-3.9-0.8-6.8v-2.5h9.4v4.7c0,1.5,0.1,2.3,0.4,2.8c0.3,0.4,0.7,0.7,1.4,0.7s1.2-0.3,1.5-0.8c0.3-0.6,0.6-1.4,0.6-2.3
			c0-2.3-0.3-3.7-1-4.6c-0.7-0.7-2.2-1.9-4.7-3.6c-2.5-1.7-4.1-2.9-5-3.6c-0.8-0.7-1.5-1.8-2.1-3.2S0,12.8,0,10.8
			c0-3,0.4-5.1,1.1-6.5C1.9,2.9,3,1.8,4.8,1.1C6.5,0.3,8.6,0,11,0c2.6,0,4.8,0.4,6.8,1.2c1.8,0.8,3,1.9,3.7,3.2c0.6,1.2,1,3.4,1,6.6
			v1.7H21.9z"/>
		<path class="st0" d="M49.1,1v38.9h-8.8L35,22.2v17.7h-8.4V1H35l5.7,17.5V1H49.1z"/>
		<path class="st0" d="M63.7,1v38.9H53.7V1H63.7z"/>
		<path class="st0" d="M91.9,17.9H81.8v-6.8c0-1.9-0.1-3.2-0.3-3.7c-0.3-0.6-0.7-0.7-1.4-0.7c-0.8,0-1.4,0.3-1.5,0.8
			c-0.3,0.6-0.3,1.9-0.3,3.9v18.1c0,1.9,0.1,3.2,0.3,3.7c0.3,0.6,0.7,0.8,1.5,0.8c0.7,0,1.2-0.3,1.5-0.8c0.3-0.6,0.4-1.9,0.4-4.1
			v-4.8h10.1v1.5c0,4-0.3,6.9-0.8,8.6c-0.6,1.7-1.8,3.2-3.7,4.4c-1.9,1.2-4.4,1.9-7.2,1.9c-2.9,0-5.4-0.6-7.3-1.7
			c-1.9-1.1-3.2-2.6-3.9-4.4c-0.7-1.9-1-4.7-1-8.6V14.6c0-2.8,0.1-5,0.3-6.3s0.8-2.8,1.7-4c1-1.2,2.2-2.3,4-3
			c1.7-0.7,3.6-1.1,5.8-1.1c3,0,5.4,0.6,7.3,1.8c1.9,1.1,3.2,2.6,3.9,4.3c0.6,1.7,1,4.4,1,8v3.7H91.9z"/>
		<path class="st0" d="M120.2,1l-5.8,17.5l6.3,21.4h-10.5l-4.1-16.7v16.7H96V1h10.1v15.2L110.6,1H120.2z"/>
		<path class="st0" d="M122.9,1h16.8v7.7h-6.6v7.4h6.3v7.4h-6.3v8.6h7.4v7.7H123V1H122.9z"/>
		<path class="st0" d="M143.9,1h7.2c4.8,0,8,0.1,9.7,0.6s3,1.2,4.1,2.8c1.1,1.5,1.7,3.9,1.7,7.3c0,3-0.4,5.1-1.1,6.1
			c-0.7,1.1-2.2,1.7-4.4,1.9c2.1,0.6,3.3,1.1,4,1.9c0.7,0.8,1.1,1.7,1.2,2.3c0.1,0.7,0.3,2.6,0.3,5.8v10.2h-9.4v-13
			c0-2.1-0.1-3.3-0.6-3.9c-0.3-0.6-1.2-0.7-2.6-0.7v17.5h-10.1L143.9,1L143.9,1z M154.1,7.6v8.7c1.1,0,1.9-0.1,2.3-0.4
			c0.4-0.3,0.7-1.4,0.7-3v-2.2c0-1.2-0.3-2.1-0.7-2.5C156,7.9,155.2,7.6,154.1,7.6z"/>
		<path class="st0" d="M192.4,12.7h-9.4V9.8c0-1.4-0.1-2.2-0.4-2.6s-0.7-0.6-1.2-0.6c-0.6,0-1.1,0.3-1.4,0.7
			c-0.3,0.6-0.4,1.2-0.4,2.2c0,1.2,0.1,2.3,0.6,2.9c0.3,0.7,1.2,1.5,2.9,2.3c4.6,2.6,7.3,4.8,8.6,6.6c1.1,1.7,1.8,4.4,1.8,8.3
			c0,2.8-0.3,4.8-1,6.1c-0.7,1.2-1.9,2.5-3.7,3.3c-1.8,0.8-4,1.4-6.5,1.4c-2.8,0-5-0.6-6.9-1.5c-1.9-1-3.2-2.3-3.7-3.9
			c-0.6-1.7-0.8-3.9-0.8-6.8v-2.5h9.4v4.7c0,1.5,0.1,2.3,0.4,2.8s0.7,0.7,1.4,0.7s1.2-0.3,1.5-0.8c0.3-0.6,0.6-1.4,0.6-2.3
			c0-2.3-0.3-3.7-1-4.6c-0.7-0.7-2.2-1.9-4.7-3.6c-2.5-1.7-4.1-2.9-5-3.6c-0.8-0.7-1.5-1.8-2.1-3.2c-0.6-1.4-0.8-3-0.8-5.1
			c0-3,0.4-5.1,1.1-6.5c0.8-1.4,1.9-2.5,3.7-3.2c1.7-0.8,3.7-1.1,6.2-1.1c2.6,0,4.8,0.4,6.8,1.2c1.9,0.8,3,1.9,3.7,3.2
			c0.6,1.2,1,3.4,1,6.6v1.7H192.4z"/>
		<path class="st0" d="M219.5,1v38.9h-8.8l-5.2-17.7v17.7H197V1h8.4l5.7,17.5V1H219.5z"/>
		<path class="st0" d="M234.1,1v38.9H224V1H234.1z"/>
		<path class="st0" d="M244.9,32v8h-7.3v-8H244.9z"/>
		<path class="st0" d="M272.4,1l-5.8,17.5l6.3,21.4h-10.5l-4.1-16.7v16.7h-10.1V1h10.1v15.2L262.9,1H272.4z"/>
		<path class="st0" d="M293,1v7.7L285.4,32h7.6v7.7h-18.6v-5.7l7.7-25.5h-6.9V0.8H293V1z"/>
	</g>
</g>
</svg>
