<?xml version="1.0" encoding="utf-8"?>
<!-- Generator: Adobe Illustrator 25.2.3, SVG Export Plug-In . SVG Version: 6.00 Build 0)  -->
<svg version="1.1" id="Layer_1" xmlns="http://www.w3.org/2000/svg" xmlns:xlink="http://www.w3.org/1999/xlink" x="0px" y="0px"
	 viewBox="0 0 421.2 47.3" style="enable-background:new 0 0 421.2 47.3;" xml:space="preserve">
<style type="text/css">
	.st0{fill:#FCAF17;}
</style>
<g>
	<path class="st0" d="M23.4,24.9h-9.9v-6.6c0-1.9-0.1-3.1-0.3-3.6S12.5,14,11.8,14c-0.8,0-1.3,0.3-1.6,0.9c-0.2,0.6-0.3,1.8-0.3,3.8
		v17.7c0,1.8,0.1,3.1,0.3,3.6c0.2,0.6,0.7,0.8,1.5,0.8c0.7,0,1.2-0.3,1.4-0.8s0.3-1.9,0.3-4v-4.8h9.9v1.5c0,3.9-0.3,6.7-0.8,8.4
		c-0.6,1.6-1.8,3.1-3.7,4.3s-4.2,1.9-7,1.9c-2.9,0-5.3-0.5-7.2-1.6c-1.9-1-3.1-2.5-3.7-4.4S0,36.7,0,32.9V21.7
		c0-2.7,0.1-4.8,0.3-6.2s0.7-2.7,1.7-4c0.9-1.3,2.2-2.3,3.9-3c1.7-0.7,3.6-1.1,5.7-1.1c2.9,0,5.3,0.6,7.2,1.7s3.1,2.5,3.7,4.2
		c0.6,1.7,0.9,4.3,0.9,7.8L23.4,24.9L23.4,24.9z"/>
	<path class="st0" d="M27.4,8.3h9.9v16.1c1.9,0,2.8-1.1,2.9-3.1l0.2-7.4c0.1-2.7,0.6-4.6,1.6-5.5h9.1c-0.9,0.9-1.3,2.8-1.3,5.7v6.5
		c0,3.9-2.2,6.2-6.7,6.7c4.5,0.5,6.7,2.8,6.7,6.8v6.1c0,2.9,0.4,4.9,1.3,6.2H42c-1.1-1-1.6-2.8-1.6-5.5v-7.4c0-0.9-0.3-1.7-0.9-2.3
		c-0.6-0.6-1.3-0.9-2.2-0.9v16.1h-9.9V8.3z"/>
	<path class="st0" d="M70.8,8.3l5.7,38H66.4l-0.5-6.8h-3.5l-0.6,6.8H51.6l5-38C56.6,8.3,70.8,8.3,70.8,8.3z M65.5,32.8
		c-0.5-4.3-1-9.6-1.5-16c-1,7.3-1.6,12.6-1.9,16H65.5z"/>
	<path class="st0" d="M101.3,8.3v38h-9.9v-16h-3v16h-9.9v-38h9.9v13.6h3V8.3H101.3z"/>
	<path class="st0" d="M127.9,46.3h-8.3V29l-5.1,17.3h-8.7v-38h8.3v17.2l5.5-17.2h8.3V46.3z"/>
	<path class="st0" d="M132.3,8.3h10c2.7,0,4.8,0.2,6.2,0.6c1.4,0.4,2.5,1,3.3,1.8s1.2,1.8,1.5,2.9s0.4,2.9,0.4,5.3v3.3
		c0,2.4-0.3,4.2-0.8,5.3c-0.5,1.1-1.4,2-2.8,2.6S147,31,144.8,31h-2.7v15.3h-9.9L132.3,8.3L132.3,8.3z M142.2,14.8v9.7
		c0.3,0,0.5,0,0.7,0c0.9,0,1.5-0.2,1.9-0.7s0.5-1.4,0.5-2.8v-3.1c0-1.3-0.2-2.1-0.6-2.5S143.5,14.8,142.2,14.8z"/>
	<path class="st0" d="M176.5,8.3l-2.7,25.2c-0.4,4-0.9,6.8-1.4,8.4c-0.5,1.6-1.4,2.8-2.8,3.4c-1.4,0.7-3.7,1-6.9,1h-5.8v-4.9h0.6
		c1.3,0,2.1-0.1,2.4-0.3s0.5-0.5,0.5-1c0,0-0.2-1.1-0.6-3.2l-5.2-28.6h8.6l3.1,23.7l1.5-23.7C167.8,8.3,176.5,8.3,176.5,8.3z"/>
	<path class="st0" d="M201.1,46.3h-8.3V29l-5.1,17.3H179v-38h8.3v17.2l5.5-17.2h8.3V46.3z M192.7,0h4c-0.1,2.1-0.7,3.8-1.9,5.1
		c-1.2,1.3-2.8,2-4.8,2c-2.1,0-3.7-0.7-4.8-2c-1.1-1.3-1.8-3-1.8-5.1h4c0.2,2.1,1.1,3.2,2.7,3.2C191.6,3.2,192.5,2.1,192.7,0z"/>
	<path class="st0" d="M237.5,37.4c0,2.8-0.4,4.9-1.1,6.1c-0.7,1.2-1.9,2-3.3,2.3s-3.9,0.5-7.2,0.5h-11.4v-38h19.4v6.6h-9.5v6.4h1.5
		c3.1,0,5.4,0.2,6.9,0.5s2.7,1.2,3.5,2.4c0.8,1.2,1.2,3.2,1.2,5.8V37.4z M227.6,36.3v-5.5c0-1.6-0.2-2.6-0.5-2.9s-1.2-0.5-2.7-0.6
		v12.5c1.3,0,2.1-0.2,2.5-0.5C227.4,39,227.6,38,227.6,36.3z"/>
	<path class="st0" d="M258.6,8.3l5.7,38h-10.1l-0.5-6.8h-3.5l-0.6,6.8h-10.2l5-38C244.4,8.3,258.6,8.3,258.6,8.3z M253.4,32.8
		c-0.5-4.3-1-9.6-1.5-16c-1,7.3-1.6,12.6-1.9,16H253.4z"/>
	<path class="st0" d="M286.4,8.3v7.6h-5.9v30.4h-9.9V15.9h-5.9V8.3H286.4z"/>
	<path class="st0" d="M311.7,30.6c0,3.8-0.1,6.5-0.3,8.1c-0.2,1.6-0.7,3-1.7,4.4c-0.9,1.3-2.2,2.3-3.8,3s-3.5,1.1-5.6,1.1
		c-2,0-3.9-0.3-5.5-1s-2.9-1.7-3.9-3s-1.6-2.8-1.8-4.3c-0.2-1.6-0.3-4.3-0.3-8.2v-6.5c0-3.8,0.1-6.5,0.3-8.1s0.7-3,1.7-4.4
		c0.9-1.3,2.2-2.3,3.8-3c1.6-0.7,3.5-1.1,5.6-1.1c2,0,3.9,0.3,5.5,1s2.9,1.7,3.9,3s1.6,2.8,1.8,4.3c0.2,1.6,0.3,4.3,0.3,8.2V30.6z
		 M301.8,18.1c0-1.8-0.1-2.9-0.3-3.4c-0.2-0.5-0.6-0.7-1.2-0.7c-0.5,0-0.9,0.2-1.2,0.6c-0.3,0.4-0.4,1.6-0.4,3.5v17.8
		c0,2.2,0.1,3.6,0.3,4.1c0.2,0.5,0.6,0.8,1.3,0.8c0.7,0,1.1-0.3,1.3-0.9c0.2-0.6,0.3-2,0.3-4.3L301.8,18.1L301.8,18.1z"/>
	<path class="st0" d="M338.6,8.3v38h-9.9v-16h-3v16h-9.9v-38h9.9v13.6h3V8.3H338.6z"/>
	<path class="st0" d="M356.6,31.7c-0.8,0.8-1.8,1.5-3.1,2c-1.3,0.5-2.6,0.8-3.9,0.8c-2.4,0-4.1-0.7-5.2-2s-1.6-3.4-1.6-6.1V8.3h9.9
		v17.1c0,1.5,0.1,2.5,0.4,3.1s0.7,0.8,1.3,0.8c1.5,0,2.2-1.3,2.2-3.8V8.3h9.9v38.1h-9.9L356.6,31.7L356.6,31.7z"/>
	<path class="st0" d="M393,46.3h-8.2V29l-5.1,17.3H371v-38h8.3v17.2l5.5-17.2h8.3L393,46.3L393,46.3z"/>
	<path class="st0" d="M397.5,8.3h9.9v16.1c1.9,0,2.8-1.1,2.9-3.1l0.2-7.4c0.1-2.7,0.6-4.6,1.6-5.5h9.1c-0.9,0.9-1.3,2.8-1.3,5.7v6.5
		c0,3.9-2.2,6.2-6.7,6.7c4.5,0.5,6.7,2.8,6.7,6.8v6.1c0,2.9,0.4,4.9,1.3,6.2h-9.1c-1.1-1-1.6-2.8-1.6-5.5v-7.4
		c0-0.9-0.3-1.7-0.9-2.3c-0.6-0.6-1.3-0.9-2.2-0.9v16.1h-9.9V8.3z"/>
</g>
</svg>
