<?xml version="1.0" encoding="utf-8"?>
<!-- Generator: Adobe Illustrator 25.2.3, SVG Export Plug-In . SVG Version: 6.00 Build 0)  -->
<svg version="1.1" id="Layer_1" xmlns="http://www.w3.org/2000/svg" xmlns:xlink="http://www.w3.org/1999/xlink" x="0px" y="0px"
	 viewBox="0 0 656.3 52.9" style="enable-background:new 0 0 656.3 52.9;" xml:space="preserve">
<style type="text/css">
	.st0{fill:#FFFFFF;}
</style>
<g>
	<path class="st0" d="M22.1,46.3h-8.3V29L8.7,46.3H0v-38h8.3v17.2l5.5-17.2h8.3V46.3z"/>
	<path class="st0" d="M35.5,8.3h9.9c3.1,0,5.5,0.2,7.1,0.7s2.9,1.5,3.9,2.9c1,1.5,1.5,3.9,1.5,7.2c0,2.2-0.3,3.8-1,4.6
		c-0.7,0.9-2.1,1.5-4.1,2c2.3,0.5,3.8,1.4,4.7,2.6c0.8,1.2,1.2,3,1.2,5.5v3.5c0,2.6-0.3,4.5-0.9,5.7c-0.6,1.2-1.5,2.1-2.8,2.5
		c-1.3,0.5-3.9,0.7-7.9,0.7H35.5V8.3z M45.4,14.8v8.5c0.4,0,0.8,0,1,0c1,0,1.6-0.2,1.9-0.7c0.3-0.5,0.4-1.8,0.4-4.1
		c0-1.2-0.1-2-0.3-2.5s-0.5-0.8-0.9-0.9C47.1,14.9,46.4,14.8,45.4,14.8z M45.4,29.2v10.6c1.4,0,2.3-0.3,2.7-0.7s0.6-1.4,0.6-2.9
		v-3.5c0-1.6-0.2-2.6-0.5-3C47.8,29.4,46.8,29.2,45.4,29.2z"/>
	<path class="st0" d="M85.6,37.4c0,2.8-0.4,4.9-1.1,6.1s-1.9,2-3.3,2.3c-1.5,0.3-3.9,0.5-7.2,0.5H62.5v-38h9.9v13H74
		c3.1,0,5.4,0.2,6.9,0.5s2.7,1.2,3.5,2.4c0.8,1.2,1.2,3.2,1.2,5.8V37.4z M75.7,36.3v-5.5c0-1.6-0.2-2.6-0.5-2.9s-1.2-0.5-2.7-0.6
		v12.5c1.3,0,2.1-0.2,2.5-0.5C75.5,39,75.7,38,75.7,36.3z M98.9,46.3H89v-38h9.9V46.3z"/>
	<path class="st0" d="M125.1,46.3h-8.3V29l-5.1,17.3H103v-38h8.3v17.2l5.5-17.2h8.3C125.1,8.3,125.1,46.3,125.1,46.3z"/>
	<path class="st0" d="M146.7,15.9h-7.3v30.5h-9.9V8.3h17.2V15.9z"/>
	<path class="st0" d="M149.8,8.3h10c2.7,0,4.8,0.2,6.2,0.6s2.5,1,3.3,1.8s1.2,1.8,1.5,2.9s0.4,2.9,0.4,5.3v3.3
		c0,2.4-0.3,4.2-0.8,5.3c-0.5,1.1-1.4,2-2.8,2.6s-3.1,0.9-5.3,0.9h-2.7v15.3h-9.9v-38H149.8z M159.7,14.8v9.7c0.3,0,0.5,0,0.7,0
		c0.9,0,1.5-0.2,1.9-0.7s0.5-1.4,0.5-2.8v-3.1c0-1.3-0.2-2.1-0.6-2.5C161.8,15,161,14.8,159.7,14.8z"/>
	<path class="st0" d="M197.5,37.4c0,2.8-0.4,4.9-1.1,6.1s-1.9,2-3.3,2.3c-1.5,0.3-3.9,0.5-7.2,0.5h-11.4v-38h9.9v13h1.5
		c3.1,0,5.4,0.2,6.9,0.5s2.7,1.2,3.5,2.4c0.8,1.2,1.2,3.2,1.2,5.8L197.5,37.4L197.5,37.4z M187.6,36.3v-5.5c0-1.6-0.2-2.6-0.5-2.9
		s-1.2-0.5-2.7-0.6v12.5c1.3,0,2.1-0.2,2.5-0.5C187.4,39,187.6,38,187.6,36.3z M210.8,46.3h-9.9v-38h9.9V46.3z"/>
	<path class="st0" d="M214.9,8.3h9.9c3.1,0,5.5,0.2,7.1,0.7s2.9,1.5,3.9,2.9c1,1.5,1.5,3.9,1.5,7.2c0,2.2-0.3,3.8-1,4.6
		c-0.7,0.9-2.1,1.5-4.1,2c2.3,0.5,3.8,1.4,4.7,2.6c0.8,1.2,1.2,3,1.2,5.5v3.5c0,2.6-0.3,4.5-0.9,5.7c-0.6,1.2-1.5,2.1-2.8,2.5
		c-1.3,0.5-3.9,0.7-7.9,0.7h-11.4V8.3H214.9z M224.8,14.8v8.5c0.4,0,0.8,0,1,0c1,0,1.6-0.2,1.9-0.7c0.3-0.5,0.4-1.8,0.4-4.1
		c0-1.2-0.1-2-0.3-2.5s-0.5-0.8-0.9-0.9C226.5,14.9,225.8,14.8,224.8,14.8z M224.8,29.2v10.6c1.4,0,2.3-0.3,2.7-0.7s0.6-1.4,0.6-2.9
		v-3.5c0-1.6-0.2-2.6-0.5-3C227.1,29.4,226.2,29.2,224.8,29.2z"/>
	<path class="st0" d="M259,8.3l5.7,38h-10.1l-0.5-6.8h-3.5l-0.6,6.8h-10.2l5-38C244.8,8.3,259,8.3,259,8.3z M253.8,32.8
		c-0.5-4.3-1-9.6-1.5-16c-1,7.3-1.6,12.6-1.9,16H253.8z"/>
	<path class="st0" d="M288.9,46.3h-8.3V29l-5.1,17.3h-8.7v-38h8.3v17.2l5.5-17.2h8.3L288.9,46.3L288.9,46.3z M280.5,0h4
		c-0.1,2.1-0.7,3.8-1.9,5.1c-1.2,1.3-2.8,2-4.8,2c-2.1,0-3.7-0.7-4.8-2c-1.1-1.3-1.8-3-1.8-5.1h4c0.2,2.1,1.1,3.2,2.7,3.2
		C279.4,3.2,280.3,2.1,280.5,0z"/>
	<path class="st0" d="M302.3,8.3h9.9v16.1c1.9,0,2.8-1.1,2.9-3.1l0.2-7.4c0.1-2.7,0.6-4.6,1.6-5.5h9.1c-0.9,0.9-1.3,2.8-1.3,5.7v6.5
		c0,3.9-2.2,6.2-6.7,6.7c4.5,0.5,6.7,2.8,6.7,6.8v6.1c0,2.9,0.4,4.9,1.3,6.2h-9c-1.1-1-1.6-2.8-1.6-5.5v-7.4c0-0.9-0.3-1.7-0.9-2.3
		c-0.6-0.6-1.3-0.9-2.2-0.9v16.1h-9.9V8.3H302.3z"/>
	<path class="st0" d="M345.7,8.3l5.7,38h-10.1l-0.5-6.8h-3.5l-0.6,6.8h-10.2l5-38C331.5,8.3,345.7,8.3,345.7,8.3z M340.5,32.8
		c-0.5-4.3-1-9.6-1.5-16c-1,7.3-1.6,12.6-1.9,16H340.5z"/>
	<path class="st0" d="M364.5,30c-2.1,0-3.1,0.9-3.1,2.7v10c0,1.3-0.1,2.3-0.4,2.8c-0.3,0.6-0.5,0.8-0.6,0.8h-8.2
		c0.7-1,1.1-2.5,1.1-4.5v-8.6c0-1.8,0.5-3.2,1.5-4.2s2.7-1.6,5.2-2l0,0c-4.4-0.2-6.7-2.3-6.7-6.2v-8.1c0-2-0.4-3.5-1.1-4.5h8.2
		c0.2,0.1,0.5,0.4,0.7,1s0.4,1.5,0.4,2.6v9.5c0,1.7,1,2.6,3.1,2.7V8.3h9.9v15.8c2.1-0.1,3.1-1,3.1-2.7v-9.5c0-1.3,0.1-2.2,0.4-2.8
		c0.3-0.5,0.5-0.8,0.6-0.8h8.2c-0.7,1-1.1,2.5-1.1,4.5v8.1c0,3.9-2.2,6-6.7,6.2l0,0c2.5,0.4,4.2,1.1,5.2,2c1,1,1.5,2.3,1.5,4.2v8.6
		c0,2,0.4,3.5,1.1,4.5h-8.2c-0.3-0.1-0.5-0.5-0.7-1.1s-0.3-1.5-0.3-2.6v-10c0-1.7-1.1-2.6-3.2-2.7v16.4h-9.9V30z"/>
	<path class="st0" d="M417.9,52.9h-6.8v-6.6h-16v6.6h-6.8V38.4h2c1.1-3.1,1.9-7.2,2.6-12.3c0.7-5.1,1-10.6,1-16.7V8.2h21.9v30.1h2
		L417.9,52.9L417.9,52.9z M406,38.3V15.8h-2.9v0.3c0,7.3-0.8,14.7-2.3,22.3h5.2V38.3z"/>
	<path class="st0" d="M441.1,8.3l-2.7,25.2c-0.4,4-0.9,6.8-1.4,8.4s-1.4,2.8-2.8,3.4c-1.4,0.7-3.7,1-6.9,1h-5.8v-4.9h0.6
		c1.3,0,2.1-0.1,2.4-0.3c0.3-0.2,0.5-0.5,0.5-1c0,0-0.2-1.1-0.6-3.2l-5.2-28.6h8.6L431,32l1.5-23.7H441.1z"/>
	<path class="st0" d="M456.2,30.4h-2.7v16h-9.9V8.3h9.9v13.6h2.7c0-3.3,0.2-5.7,0.5-7.2s1-2.7,2-3.7s2.2-1.7,3.7-2.1
		s3.2-0.6,5.3-0.6c2.1,0,3.9,0.2,5.4,0.7c1.5,0.5,2.8,1.2,3.7,2.3c1,1.1,1.6,2.4,1.9,4.1s0.4,4.6,0.4,8.6v6.5c0,4.1-0.1,7-0.4,8.6
		c-0.3,1.7-0.9,3-1.9,4.1s-2.3,1.9-3.8,2.4s-3.3,0.7-5.4,0.7c-1.9,0-3.6-0.2-5.1-0.6s-2.7-1.1-3.7-2s-1.6-1.9-1.9-3s-0.5-2.4-0.6-4
		S456.2,33,456.2,30.4L456.2,30.4z M469.2,37V18.1c0-1.6-0.1-2.7-0.2-3.3c-0.2-0.6-0.6-0.9-1.3-0.9c-0.6,0-1,0.2-1.2,0.7
		s-0.4,1.6-0.4,3.5v19.5c0,1,0.1,1.7,0.3,2.3c0.2,0.5,0.6,0.8,1.2,0.8c0.5,0,1-0.2,1.2-0.6C469,39.6,469.2,38.6,469.2,37z"/>
	<path class="st0" d="M514.9,8.3v38H505v-16h-3v16h-9.9v-38h9.9v13.6h3V8.3H514.9z"/>
	<path class="st0" d="M519.4,8.3h16.5v7.6h-6.6v7.2h6.2v7.2h-6.2v8.4h7.3v7.6h-17.2V8.3z"/>
	<path class="st0" d="M568.1,52.9h-6.8v-6.6h-16v6.6h-6.8V38.4h2c1.1-3.1,1.9-7.2,2.6-12.3c0.7-5.1,1-10.6,1-16.7V8.2H566v30.1h2
		L568.1,52.9L568.1,52.9z M556.2,38.3V15.8h-2.9v0.3c0,7.3-0.8,14.7-2.3,22.3h5.2V38.3z"/>
	<path class="st0" d="M571.7,8.3h16.5v7.6h-6.6v7.2h6.2v7.2h-6.2v8.4h7.3v7.6h-17.2V8.3z"/>
	<path class="st0" d="M616.3,46.3h-9.9V15.9h-2.9v21.5c0,2.8-0.4,4.9-1.1,6.1s-1.8,2-3.3,2.3s-3.9,0.5-7.1,0.5h-1.5v-6.6
		c1.2,0,2-0.1,2.5-0.4s0.7-1.3,0.7-3.1v-28h22.7v38.1H616.3z"/>
	<path class="st0" d="M633.4,30.4h-2.7v16h-9.9V8.3h9.9v13.6h2.7c0-3.3,0.2-5.7,0.5-7.2s1-2.7,2-3.7s2.2-1.7,3.7-2.1
		s3.2-0.6,5.3-0.6s3.9,0.2,5.4,0.7c1.5,0.5,2.8,1.2,3.7,2.3c1,1.1,1.6,2.4,1.9,4.1c0.3,1.7,0.4,4.6,0.4,8.6v6.5c0,4.1-0.1,7-0.4,8.6
		c-0.3,1.7-0.9,3-1.9,4.1s-2.3,1.9-3.8,2.4s-3.3,0.7-5.4,0.7c-1.9,0-3.6-0.2-5.1-0.6s-2.7-1.1-3.7-2s-1.6-1.9-1.9-3
		c-0.3-1.1-0.5-2.4-0.6-4S633.4,33,633.4,30.4L633.4,30.4L633.4,30.4z M646.4,37V18.1c0-1.6-0.1-2.7-0.2-3.3
		c-0.2-0.6-0.6-0.9-1.3-0.9c-0.6,0-1,0.2-1.2,0.7s-0.4,1.6-0.4,3.5v19.5c0,1,0.1,1.7,0.3,2.3c0.2,0.5,0.6,0.8,1.2,0.8
		c0.5,0,1-0.2,1.2-0.6C646.2,39.6,646.4,38.6,646.4,37z"/>
</g>
</svg>
