<?xml version="1.0" encoding="utf-8"?>
<!-- Generator: Adobe Illustrator 25.2.3, SVG Export Plug-In . SVG Version: 6.00 Build 0)  -->
<svg version="1.1" id="Layer_1" xmlns="http://www.w3.org/2000/svg" xmlns:xlink="http://www.w3.org/1999/xlink" x="0px" y="0px"
	 viewBox="0 0 355.7 47.8" style="enable-background:new 0 0 355.7 47.8;" xml:space="preserve">
<style type="text/css">
	.st0{fill:#FCAF17;}
</style>
<g>
	<path class="st0" d="M31.2,47.8H24v-6.9H7.2v6.9H0V32.5h2.1c1.1-3.3,2-7.6,2.8-12.9C5.6,14.2,6,8.4,6,2V0.8H29v31.6h2.1V47.8z
		 M18.6,32.5V8.7h-3.1V9c0,7.7-0.8,15.5-2.5,23.4H18.6z"/>
	<path class="st0" d="M34.9,0.8h17.4v8h-6.9v7.6h6.5v7.6h-6.5v8.8H53v8h-18V0.8z"/>
	<path class="st0" d="M81.9,40.9H71.4v-32h-3v22.7c0,3-0.4,5.1-1.2,6.4c-0.8,1.3-1.9,2.1-3.5,2.4c-1.6,0.3-4.1,0.5-7.5,0.5h-1.6V34
		c1.3,0,2.1-0.2,2.6-0.5c0.5-0.3,0.7-1.4,0.7-3.2V0.8h23.9V40.9z"/>
	<path class="st0" d="M104.5,0.8l6,40H99.8l-0.6-7.2h-3.7l-0.6,7.2H84.2l5.3-40H104.5z M99,26.6C98.5,22,98,16.4,97.4,9.8
		c-1.1,7.7-1.7,13.3-2,16.8H99z"/>
	<path class="st0" d="M146.1,0.8v40h-10.4V24.1h-3.1v16.8h-10.4v-40h10.4v14.3h3.1V0.8H146.1z"/>
	<path class="st0" d="M174.6,24.3c0,4-0.1,6.9-0.3,8.5c-0.2,1.7-0.8,3.2-1.8,4.6c-1,1.4-2.3,2.4-4,3.2s-3.7,1.1-5.9,1.1
		c-2.1,0-4.1-0.4-5.8-1.1c-1.7-0.7-3.1-1.8-4.1-3.2c-1-1.4-1.7-2.9-1.9-4.6c-0.2-1.6-0.3-4.5-0.3-8.7v-6.8c0-4,0.1-6.9,0.3-8.5
		c0.2-1.7,0.8-3.2,1.8-4.6s2.3-2.4,4-3.2c1.7-0.7,3.7-1.1,5.9-1.1c2.1,0,4.1,0.4,5.8,1.1c1.7,0.7,3.1,1.8,4.1,3.2
		c1,1.4,1.7,2.9,1.9,4.6c0.2,1.6,0.3,4.5,0.3,8.7V24.3z M164.2,11.1c0-1.9-0.1-3.1-0.3-3.6c-0.2-0.5-0.6-0.8-1.3-0.8
		c-0.5,0-1,0.2-1.2,0.6c-0.3,0.4-0.4,1.7-0.4,3.7v18.7c0,2.3,0.1,3.8,0.3,4.3c0.2,0.5,0.6,0.8,1.3,0.8c0.7,0,1.2-0.3,1.4-0.9
		c0.2-0.6,0.3-2.1,0.3-4.5V11.1z"/>
	<path class="st0" d="M202.9,0.8v40h-10.4V24.1h-3.1v16.8H179v-40h10.4v14.3h3.1V0.8H202.9z"/>
	<path class="st0" d="M219.5,17.5v6.9h-13.1v-6.9H219.5z"/>
	<path class="st0" d="M247.3,18.3h-10.4v-7c0-2-0.1-3.3-0.3-3.8c-0.2-0.5-0.7-0.8-1.5-0.8c-0.9,0-1.4,0.3-1.6,0.9s-0.3,1.9-0.3,4
		v18.6c0,1.9,0.1,3.2,0.3,3.8s0.8,0.9,1.6,0.9c0.8,0,1.3-0.3,1.5-0.9c0.2-0.6,0.4-2,0.4-4.2v-5h10.4v1.6c0,4.1-0.3,7.1-0.9,8.8
		s-1.9,3.3-3.9,4.6c-2,1.3-4.5,2-7.4,2c-3,0-5.6-0.6-7.5-1.7c-2-1.1-3.3-2.6-3.9-4.6s-1-4.9-1-8.8V15c0-2.9,0.1-5,0.3-6.5
		c0.2-1.4,0.8-2.8,1.8-4.2c1-1.3,2.3-2.4,4.1-3.2c1.7-0.8,3.7-1.1,6-1.1c3.1,0,5.6,0.6,7.6,1.8c2,1.2,3.3,2.7,3.9,4.4
		c0.6,1.8,0.9,4.5,0.9,8.3V18.3z"/>
	<path class="st0" d="M272.5,0.8v8h-6.2v32h-10.4v-32h-6.2v-8H272.5z"/>
	<path class="st0" d="M299.1,24.3c0,4-0.1,6.9-0.3,8.5c-0.2,1.7-0.8,3.2-1.8,4.6c-1,1.4-2.3,2.4-4,3.2s-3.7,1.1-5.9,1.1
		c-2.1,0-4.1-0.4-5.8-1.1c-1.7-0.7-3.1-1.8-4.1-3.2c-1-1.4-1.7-2.9-1.9-4.6c-0.2-1.6-0.3-4.5-0.3-8.7v-6.8c0-4,0.1-6.9,0.3-8.5
		c0.2-1.7,0.8-3.2,1.8-4.6c1-1.4,2.3-2.4,4-3.2c1.7-0.7,3.7-1.1,5.9-1.1c2.1,0,4.1,0.4,5.8,1.1c1.7,0.7,3.1,1.8,4.1,3.2
		s1.7,2.9,1.9,4.6c0.2,1.6,0.3,4.5,0.3,8.7V24.3z M288.7,11.1c0-1.9-0.1-3.1-0.3-3.6s-0.6-0.8-1.3-0.8c-0.5,0-1,0.2-1.2,0.6
		c-0.3,0.4-0.4,1.7-0.4,3.7v18.7c0,2.3,0.1,3.8,0.3,4.3s0.6,0.8,1.3,0.8c0.7,0,1.2-0.3,1.4-0.9c0.2-0.6,0.3-2.1,0.3-4.5V11.1z"/>
	<path class="st0" d="M327.5,40.9h-10.4v-32H314v32h-10.4V0.8h24V40.9z"/>
	<path class="st0" d="M342.1,13.7h-10c0-3.5,0.3-6.1,0.9-7.7c0.6-1.6,1.8-3,3.6-4.2c1.9-1.2,4.3-1.8,7.2-1.8c2.1,0,3.9,0.3,5.5,1
		c1.6,0.7,2.8,1.6,3.7,2.8c0.9,1.2,1.6,2.5,2,3.8c0.4,1.4,0.6,3.5,0.6,6.4v4.9c0,2.2-0.2,4-0.6,5.4s-1.3,2.5-2.7,3.6
		c-1.4,1-3,1.5-4.9,1.5c-2.4,0-4.2-0.9-5.4-2.8v4.3h-9.3v-11h9.1c0,1.5,0.6,2.3,1.6,2.3c0.8,0,1.3-0.3,1.6-1
		c0.2-0.7,0.3-2.3,0.3-4.9V9.5c0-1.5-0.1-2.5-0.3-3c-0.2-0.5-0.6-0.8-1.2-0.8c-0.8,0-1.2,0.3-1.5,1s-0.3,2.2-0.3,4.5V13.7z
		 M342.1,32.9v8h-9.3v-8H342.1z"/>
</g>
</svg>
