<?xml version="1.0" encoding="utf-8"?>
<!-- Generator: Adobe Illustrator 25.2.3, SVG Export Plug-In . SVG Version: 6.00 Build 0)  -->
<svg version="1.1" id="Layer_1" xmlns="http://www.w3.org/2000/svg" xmlns:xlink="http://www.w3.org/1999/xlink" x="0px" y="0px"
	 viewBox="0 0 635 87.3" style="enable-background:new 0 0 635 87.3;" xml:space="preserve">
<style type="text/css">
	.st0{fill:#FFFFFF;}
</style>
<g>
	<path class="st0" d="M49.8,1.8v56c0,6.3-0.2,10.8-0.6,13.4c-0.4,2.6-1.6,5.2-3.7,7.9c-2,2.7-4.7,4.8-8,6.2
		c-3.3,1.4-7.3,2.1-11.8,2.1c-5,0-9.4-0.8-13.2-2.5c-3.8-1.7-6.7-3.8-8.6-6.5c-1.9-2.7-3-5.5-3.4-8.4C0.2,67,0,60.8,0,51.3V1.8h21.8
		v62.8c0,3.7,0.2,6,0.6,7c0.4,1,1.2,1.5,2.4,1.5c1.4,0,2.3-0.6,2.7-1.7c0.4-1.1,0.6-3.8,0.6-7.9V1.8H49.8z"/>
	<path class="st0" d="M106.9,1.8v83.8H87.8L76.5,47.4v38.1H58.3V1.8h18.2l12.2,37.7V1.8H106.9z"/>
	<path class="st0" d="M115.6,1.8h16.3c10.5,0,17.6,0.5,21.3,1.4c3.7,1,6.5,2.6,8.5,4.8c1.9,2.2,3.1,4.7,3.6,7.4
		c0.5,2.7,0.7,8,0.7,16v29.3c0,7.5-0.4,12.5-1.1,15.1c-0.7,2.5-1.9,4.5-3.7,6s-3.9,2.4-6.5,3c-2.6,0.6-6.5,0.9-11.7,0.9h-27.5V1.8z
		 M137.4,16.1v55.1c3.1,0,5.1-0.6,5.8-1.9c0.7-1.3,1.1-4.7,1.1-10.3V26.5c0-3.8-0.1-6.2-0.4-7.3c-0.2-1.1-0.8-1.9-1.7-2.4
		C141.4,16.3,139.8,16.1,137.4,16.1z"/>
	<path class="st0" d="M211.9,1.8l12.5,83.8h-22.3l-1.2-15.1h-7.8l-1.3,15.1h-22.5l11.1-83.8H211.9z M200.3,55.6
		c-1.1-9.5-2.2-21.2-3.3-35.2c-2.2,16-3.6,27.8-4.2,35.2H200.3z"/>
	<path class="st0" d="M246.7,1.8h21.9c5.9,0,10.5,0.5,13.7,1.4c3.2,0.9,5.6,2.3,7.2,4c1.6,1.8,2.7,3.9,3.3,6.4s0.9,6.4,0.9,11.6v7.3
		c0,5.3-0.6,9.2-1.7,11.7c-1.1,2.4-3.1,4.3-6.1,5.6c-2.9,1.3-6.8,2-11.6,2h-5.8v33.7h-21.8V1.8z M268.5,16.1v21.3
		c0.6,0,1.2,0.1,1.6,0.1c2,0,3.4-0.5,4.2-1.5c0.8-1,1.2-3,1.2-6.1V23c0-2.9-0.4-4.7-1.3-5.6C273.2,16.5,271.3,16.1,268.5,16.1z"/>
	<path class="st0" d="M321.7,1.8v83.8h-21.8V1.8H321.7z"/>
	<path class="st0" d="M374.3,1.8v16.8h-12.9v67h-21.8v-67h-12.9V1.8H374.3z"/>
	<path class="st0" d="M444.1,27.1h-20.2v-6.2c0-2.9-0.3-4.7-0.8-5.5c-0.5-0.8-1.4-1.2-2.6-1.2c-1.3,0-2.3,0.5-3,1.6
		c-0.7,1.1-1,2.7-1,4.9c0,2.8,0.4,4.9,1.1,6.3c0.7,1.4,2.8,3.1,6.2,5.1c9.7,5.8,15.8,10.5,18.3,14.2c2.5,3.7,3.8,9.6,3.8,17.9
		c0,6-0.7,10.4-2.1,13.2s-4.1,5.2-8.1,7.1c-4,1.9-8.7,2.9-14,2.9c-5.8,0-10.8-1.1-14.9-3.3c-4.1-2.2-6.8-5-8.1-8.4
		c-1.3-3.4-1.9-8.3-1.9-14.5v-5.5H417v10.2c0,3.1,0.3,5.2,0.9,6.1c0.6,0.9,1.6,1.3,3,1.3s2.5-0.6,3.2-1.7c0.7-1.1,1.1-2.8,1.1-5.1
		c0-4.9-0.7-8.2-2-9.7c-1.4-1.5-4.8-4.1-10.2-7.6c-5.4-3.6-9-6.2-10.8-7.8s-3.2-3.9-4.4-6.7c-1.2-2.9-1.7-6.5-1.7-11
		c0-6.4,0.8-11.1,2.5-14.1c1.6-3,4.3-5.3,7.9-7c3.7-1.7,8.1-2.5,13.2-2.5c5.7,0,10.5,0.9,14.5,2.7c4,1.8,6.6,4.1,7.9,6.9
		c1.3,2.8,1.9,7.5,1.9,14.2V27.1z"/>
	<path class="st0" d="M496.6,1.8v16.8h-12.9v67h-21.8v-67H449V1.8H496.6z"/>
	<path class="st0" d="M551.4,50.8c0,8.4-0.2,14.4-0.6,17.9c-0.4,3.5-1.6,6.7-3.7,9.6s-4.9,5.1-8.5,6.7c-3.6,1.6-7.7,2.3-12.4,2.3
		c-4.5,0-8.5-0.7-12.1-2.2s-6.4-3.7-8.6-6.6c-2.2-2.9-3.5-6.1-3.9-9.6c-0.4-3.4-0.6-9.5-0.6-18.1V36.5c0-8.4,0.2-14.4,0.6-17.9
		c0.4-3.5,1.6-6.7,3.7-9.6c2.1-2.9,4.9-5.1,8.5-6.7c3.6-1.6,7.7-2.3,12.4-2.3c4.5,0,8.5,0.7,12.1,2.2c3.6,1.5,6.4,3.7,8.6,6.6
		c2.2,2.9,3.5,6.1,3.9,9.6c0.4,3.4,0.6,9.5,0.6,18.1V50.8z M529.6,23.3c0-3.9-0.2-6.4-0.6-7.5c-0.4-1.1-1.3-1.6-2.7-1.6
		c-1.1,0-2,0.4-2.6,1.3c-0.6,0.9-0.9,3.5-0.9,7.8v39.1c0,4.9,0.2,7.9,0.6,9c0.4,1.1,1.3,1.7,2.8,1.7c1.5,0,2.4-0.7,2.8-2
		c0.4-1.3,0.6-4.4,0.6-9.4V23.3z"/>
	<path class="st0" d="M559.5,1.8h21.9c5.9,0,10.5,0.5,13.7,1.4s5.6,2.3,7.2,4c1.6,1.8,2.7,3.9,3.3,6.4s0.9,6.4,0.9,11.6v7.3
		c0,5.3-0.6,9.2-1.7,11.7c-1.1,2.4-3.1,4.3-6.1,5.6s-6.8,2-11.6,2h-5.8v33.7h-21.8V1.8z M581.3,16.1v21.3c0.6,0,1.2,0.1,1.6,0.1
		c2,0,3.4-0.5,4.2-1.5c0.8-1,1.2-3,1.2-6.1V23c0-2.9-0.4-4.7-1.3-5.6C586,16.5,584.1,16.1,581.3,16.1z"/>
	<path class="st0" d="M635,1.8l-3.4,63.1h-16.1L612,1.8H635z M633.3,68.8v16.8h-19.6V68.8H633.3z"/>
</g>
</svg>
