<?xml version="1.0" encoding="utf-8"?>
<!-- Generator: Adobe Illustrator 25.2.3, SVG Export Plug-In . SVG Version: 6.00 Build 0)  -->
<svg version="1.1" id="Layer_1" xmlns="http://www.w3.org/2000/svg" xmlns:xlink="http://www.w3.org/1999/xlink" x="0px" y="0px"
	 viewBox="0 0 339.6 134.9" style="enable-background:new 0 0 339.6 134.9;" xml:space="preserve">
<style type="text/css">
	.st0{fill:#FCAF17;}
</style>
<g>
	<path class="st0" d="M0,1.1h14.2c4.5,0,7.9,0.3,10.2,1c2.3,0.7,4.2,2.1,5.6,4.2C31.3,8.5,32,12,32,16.7c0,3.2-0.5,5.4-1.5,6.7
		c-1,1.3-3,2.2-5.9,2.9c3.3,0.7,5.5,2,6.7,3.7c1.2,1.7,1.8,4.4,1.8,7.9v5.1c0,3.7-0.4,6.4-1.3,8.2c-0.8,1.8-2.2,3-4,3.6
		c-1.8,0.7-5.6,1-11.3,1H0V1.1z M14.2,10.5v12.1c0.6,0,1.1,0,1.4,0c1.4,0,2.3-0.3,2.7-1s0.6-2.6,0.6-5.9c0-1.7-0.2-2.9-0.5-3.6
		c-0.3-0.7-0.7-1.1-1.2-1.3C16.6,10.6,15.7,10.5,14.2,10.5z M14.2,31.1v15.3c2-0.1,3.3-0.4,3.8-0.9c0.6-0.6,0.8-1.9,0.8-4.1v-5.1
		c0-2.3-0.2-3.8-0.7-4.2C17.6,31.5,16.3,31.2,14.2,31.1z"/>
	<path class="st0" d="M62.7,1.1l8.1,54.6H56.3l-0.8-9.8h-5.1l-0.9,9.8H34.9l7.2-54.6H62.7z M55.2,36.3c-0.7-6.2-1.4-13.8-2.2-22.9
		c-1.4,10.5-2.4,18.1-2.7,22.9H55.2z"/>
	<path class="st0" d="M98,1.1v10.9h-8.4v43.7H75.4V12.1H67V1.1H98z"/>
	<path class="st0" d="M133.7,33.1c0,5.5-0.1,9.4-0.4,11.7c-0.3,2.3-1.1,4.4-2.4,6.3c-1.4,1.9-3.2,3.3-5.5,4.4c-2.3,1-5,1.5-8.1,1.5
		c-2.9,0-5.5-0.5-7.9-1.4c-2.3-1-4.2-2.4-5.6-4.3c-1.4-1.9-2.3-4-2.5-6.2c-0.3-2.2-0.4-6.2-0.4-11.8v-9.3c0-5.5,0.1-9.4,0.4-11.7
		c0.3-2.3,1.1-4.4,2.4-6.3c1.4-1.9,3.2-3.3,5.5-4.3c2.3-1,5-1.5,8.1-1.5c2.9,0,5.5,0.5,7.9,1.4c2.3,1,4.2,2.4,5.6,4.3
		c1.4,1.9,2.3,4,2.5,6.2c0.3,2.2,0.4,6.2,0.4,11.8V33.1z M119.5,15.2c0-2.5-0.1-4.2-0.4-4.9c-0.3-0.7-0.9-1.1-1.7-1.1
		c-0.7,0-1.3,0.3-1.7,0.9c-0.4,0.6-0.6,2.3-0.6,5.1v25.5c0,3.2,0.1,5.1,0.4,5.9c0.3,0.7,0.9,1.1,1.8,1.1c1,0,1.6-0.4,1.9-1.3
		c0.3-0.9,0.4-2.9,0.4-6.1V15.2z"/>
	<path class="st0" d="M170.7,1.1v54.6h-12.4l-7.4-24.8v24.8H139V1.1h11.9l8,24.6V1.1H170.7z"/>
	<path class="st0" d="M209.5,24.9h-14.2v-9.5c0-2.8-0.2-4.5-0.5-5.2c-0.3-0.7-1-1-2-1c-1.2,0-1.9,0.4-2.2,1.2s-0.5,2.6-0.5,5.4v25.4
		c0,2.7,0.2,4.4,0.5,5.2c0.3,0.8,1,1.2,2.1,1.2c1.1,0,1.7-0.4,2.1-1.2c0.3-0.8,0.5-2.7,0.5-5.7v-6.9h14.2V36c0,5.7-0.4,9.7-1.2,12
		c-0.8,2.4-2.6,4.4-5.3,6.2c-2.7,1.8-6.1,2.7-10.1,2.7c-4.2,0-7.6-0.8-10.3-2.3c-2.7-1.5-4.5-3.6-5.4-6.3c-0.9-2.7-1.3-6.7-1.3-12
		v-16c0-3.9,0.1-6.9,0.4-8.9c0.3-2,1.1-3.9,2.4-5.7c1.3-1.8,3.2-3.3,5.6-4.3c2.4-1,5.1-1.6,8.2-1.6c4.2,0,7.6,0.8,10.4,2.4
		c2.7,1.6,4.5,3.6,5.4,6c0.9,2.4,1.3,6.2,1.3,11.3V24.9z"/>
	<path class="st0" d="M247.3,1.1v54.6h-14.2V32.8h-4.2v22.9h-14.2V1.1h14.2v19.5h4.2V1.1H247.3z"/>
	<path class="st0" d="M277.5,1.1l8.1,54.6h-14.5l-0.8-9.8h-5.1l-0.9,9.8h-14.7L257,1.1H277.5z M270,36.3c-0.7-6.2-1.4-13.8-2.2-22.9
		c-1.4,10.5-2.4,18.1-2.7,22.9H270z"/>
	<path class="st0" d="M319.7,1.1v54.6h-12.4l-7.4-24.8v24.8H288V1.1h11.9l8,24.6V1.1H319.7z"/>
	<path class="st0" d="M339.6,1.1v54.6h-14.2V1.1H339.6z"/>
	<path class="st0" d="M58.9,95.7H45.7v-4c0-1.9-0.2-3.1-0.5-3.6c-0.3-0.5-0.9-0.8-1.7-0.8c-0.9,0-1.5,0.3-1.9,1
		c-0.4,0.7-0.7,1.8-0.7,3.2c0,1.8,0.2,3.2,0.7,4.1c0.5,0.9,1.8,2,4,3.3c6.3,3.8,10.3,6.8,11.9,9.2c1.6,2.4,2.5,6.3,2.5,11.6
		c0,3.9-0.5,6.8-1.4,8.6c-0.9,1.8-2.7,3.4-5.3,4.6c-2.6,1.2-5.6,1.9-9.1,1.9c-3.8,0-7-0.7-9.7-2.2c-2.7-1.4-4.4-3.3-5.3-5.5
		c-0.8-2.2-1.2-5.4-1.2-9.5v-3.6h13.2v6.6c0,2,0.2,3.4,0.6,3.9c0.4,0.6,1,0.9,2,0.9s1.6-0.4,2.1-1.1c0.5-0.7,0.7-1.8,0.7-3.3
		c0-3.2-0.4-5.3-1.3-6.3c-0.9-1-3.1-2.6-6.6-5c-3.5-2.3-5.9-4-7-5.1c-1.1-1.1-2.1-2.5-2.8-4.4c-0.8-1.9-1.1-4.2-1.1-7.2
		c0-4.2,0.5-7.2,1.6-9.2c1.1-1.9,2.8-3.4,5.2-4.5c2.4-1.1,5.3-1.6,8.6-1.6c3.7,0,6.8,0.6,9.4,1.8c2.6,1.2,4.3,2.7,5.2,4.5
		c0.8,1.8,1.3,4.9,1.3,9.2V95.7z"/>
	<path class="st0" d="M98.3,79.1l-8.1,24.7l8.9,29.9H84.4l-5.8-23.4v23.4H64.5V79.1h14.2v21.2L85,79.1H98.3z"/>
	<path class="st0" d="M127.5,79.1l8.1,54.6h-14.5l-0.8-9.8h-5.1l-0.9,9.8H99.7l7.2-54.6H127.5z M120,114.3
		c-0.7-6.2-1.4-13.8-2.2-22.9c-1.4,10.5-2.4,18.1-2.7,22.9H120z"/>
	<path class="st0" d="M169.7,79.1v54.6h-12.4l-7.4-24.8v24.8H138V79.1h11.9l8,24.6V79.1H169.7z"/>
	<path class="st0" d="M175.4,79.1h23.7v10.9h-9.5v10.4h8.9v10.4h-8.9v12H200v10.9h-24.6V79.1z"/>
	<path class="st0" d="M204.1,79.1h10c6.7,0,11.2,0.3,13.6,0.8c2.4,0.5,4.3,1.8,5.8,4c1.5,2.1,2.2,5.5,2.2,10.2
		c0,4.2-0.5,7.1-1.6,8.6c-1.1,1.5-3.1,2.3-6.2,2.6c2.8,0.7,4.7,1.6,5.7,2.8c1,1.2,1.6,2.2,1.8,3.2c0.2,1,0.4,3.7,0.4,8.1v14.4h-13.2
		v-18.1c0-2.9-0.2-4.7-0.7-5.4c-0.5-0.7-1.7-1-3.6-1v24.6h-14.2V79.1z M218.3,88.5v12.1c1.6,0,2.7-0.2,3.4-0.7c0.6-0.4,1-1.9,1-4.3
		v-3c0-1.7-0.3-2.9-0.9-3.4C221.1,88.8,220,88.5,218.3,88.5z"/>
	<path class="st0" d="M255.5,79.1v43.7h8.6v10.9h-22.8V79.1H255.5z"/>
	<path class="st0" d="M293.8,79.1l8.1,54.6h-14.5l-0.8-9.8h-5.1l-0.9,9.8h-14.7l7.2-54.6H293.8z M286.3,114.3
		c-0.7-6.2-1.4-13.8-2.2-22.9c-1.4,10.5-2.4,18.1-2.7,22.9H286.3z"/>
</g>
</svg>
