<?xml version="1.0" encoding="utf-8"?>
<!-- Generator: Adobe Illustrator 25.2.3, SVG Export Plug-In . SVG Version: 6.00 Build 0)  -->
<svg version="1.1" id="Layer_1" xmlns="http://www.w3.org/2000/svg" xmlns:xlink="http://www.w3.org/1999/xlink" x="0px" y="0px"
	 viewBox="0 0 285.4 54.6" style="enable-background:new 0 0 285.4 54.6;" xml:space="preserve">
<style type="text/css">
	.st0{fill:#FCAF17;}
</style>
<g>
	<path class="st0" d="M32.6,0v54.6H18.4V31.7h-4.2v22.9H0V0h14.2v19.5h4.2V0H32.6z"/>
	<path class="st0" d="M62.9,0L71,54.6H56.5l-0.8-9.8h-5.1l-0.9,9.8H35.1L42.4,0H62.9z M55.4,35.1c-0.7-6.2-1.4-13.8-2.2-22.9
		c-1.4,10.5-2.4,18.1-2.7,22.9H55.4z"/>
	<path class="st0" d="M73.4,0h10c6.7,0,11.2,0.3,13.6,0.8c2.4,0.5,4.3,1.8,5.8,4s2.2,5.5,2.2,10.2c0,4.2-0.5,7.1-1.6,8.6
		c-1.1,1.5-3.1,2.3-6.2,2.6c2.8,0.7,4.7,1.6,5.7,2.8c1,1.2,1.6,2.2,1.8,3.2c0.2,1,0.4,3.7,0.4,8.1v14.4H91.9V36.5
		c0-2.9-0.2-4.7-0.7-5.4c-0.5-0.7-1.7-1-3.6-1v24.6H73.4V0z M87.6,9.3v12.1c1.6,0,2.7-0.2,3.4-0.7c0.6-0.4,1-1.9,1-4.3v-3
		c0-1.7-0.3-2.9-0.9-3.4C90.4,9.6,89.3,9.3,87.6,9.3z"/>
	<path class="st0" d="M155.4,0v54.6h-14.2V31.7H137v22.9h-14.2V0H137v19.5h4.2V0H155.4z"/>
	<path class="st0" d="M185.7,0l8.1,54.6h-14.5l-0.8-9.8h-5.1l-0.9,9.8h-14.7L165.2,0H185.7z M178.2,35.1c-0.7-6.2-1.4-13.8-2.2-22.9
		c-1.4,10.5-2.4,18.1-2.7,22.9H178.2z"/>
	<path class="st0" d="M196.2,0h24v10.9h-9.8v10.4h8.8v10.4h-8.8v22.9h-14.2V0z"/>
	<path class="st0" d="M252.3,0v10.9h-8.4v43.7h-14.2V10.9h-8.4V0H252.3z"/>
	<path class="st0" d="M277.3,0l8.1,54.6h-14.5l-0.8-9.8h-5.1l-0.9,9.8h-14.7L256.8,0H277.3z M269.8,35.1c-0.7-6.2-1.4-13.8-2.2-22.9
		c-1.4,10.5-2.4,18.1-2.7,22.9H269.8z"/>
</g>
</svg>
