<?xml version="1.0" encoding="utf-8"?>
<!-- Generator: Adobe Illustrator 25.2.3, SVG Export Plug-In . SVG Version: 6.00 Build 0)  -->
<svg version="1.1" id="Layer_1" xmlns="http://www.w3.org/2000/svg" xmlns:xlink="http://www.w3.org/1999/xlink" x="0px" y="0px"
	 viewBox="0 0 735.9 88.3" style="enable-background:new 0 0 735.9 88.3;" xml:space="preserve">
<style type="text/css">
	.st0{fill:#F9B000;}
</style>
<g>
	<path class="st0" d="M45.9,1.6v76.8H26V46.2h-6v32.3H0V1.6h20v27.5h6V1.6H45.9z"/>
	<path class="st0" d="M99.6,46.6c0,7.7-0.2,13.2-0.5,16.4c-0.4,3.2-1.5,6.1-3.4,8.8c-1.9,2.7-4.5,4.7-7.8,6.1
		c-3.3,1.4-7.1,2.1-11.4,2.1c-4.1,0-7.8-0.7-11.1-2s-5.9-3.4-7.9-6c-2-2.7-3.2-5.6-3.6-8.8c-0.4-3.2-0.6-8.7-0.6-16.6V33.5
		c0-7.7,0.2-13.2,0.5-16.4c0.4-3.2,1.5-6.1,3.4-8.8c1.9-2.7,4.5-4.7,7.8-6.1C68.4,0.7,72.2,0,76.5,0c4.1,0,7.8,0.7,11.1,2
		c3.3,1.3,5.9,3.4,7.9,6c2,2.7,3.2,5.6,3.6,8.8c0.4,3.2,0.6,8.7,0.6,16.6V46.6z M79.6,21.4c0-3.6-0.2-5.9-0.6-6.9
		c-0.4-1-1.2-1.5-2.4-1.5c-1,0-1.8,0.4-2.4,1.2c-0.6,0.8-0.8,3.2-0.8,7.1v35.9c0,4.5,0.2,7.2,0.5,8.3c0.4,1,1.2,1.6,2.5,1.6
		c1.4,0,2.2-0.6,2.6-1.8c0.4-1.2,0.6-4.1,0.6-8.6V21.4z"/>
	<path class="st0" d="M153,1.6v76.8h-20V46.2h-6v32.3h-20V1.6h20v27.5h6V1.6H153z"/>
	<path class="st0" d="M183.9,33.5v13.2h-25.1V33.5H183.9z"/>
	<path class="st0" d="M236.2,35.1h-20V21.7c0-3.9-0.2-6.3-0.6-7.3c-0.4-1-1.4-1.4-2.8-1.4c-1.6,0-2.7,0.6-3.1,1.8
		c-0.4,1.2-0.7,3.7-0.7,7.6V58c0,3.7,0.2,6.2,0.7,7.3c0.4,1.1,1.4,1.7,3,1.7c1.5,0,2.5-0.6,2.9-1.7c0.5-1.1,0.7-3.8,0.7-8v-9.7h20v3
		c0,8-0.6,13.6-1.7,16.9c-1.1,3.3-3.6,6.2-7.4,8.7c-3.8,2.5-8.6,3.8-14.2,3.8c-5.9,0-10.7-1.1-14.5-3.2c-3.8-2.1-6.3-5.1-7.5-8.8
		c-1.2-3.7-1.9-9.4-1.9-16.9V28.7c0-5.5,0.2-9.7,0.6-12.5c0.4-2.8,1.5-5.4,3.4-8c1.9-2.6,4.5-4.6,7.8-6c3.3-1.5,7.2-2.2,11.5-2.2
		c5.9,0,10.7,1.1,14.6,3.4c3.8,2.3,6.3,5.1,7.5,8.5c1.2,3.4,1.8,8.7,1.8,15.8V35.1z"/>
	<path class="st0" d="M283.6,1.6V17h-11.9v61.4h-20V17h-11.8V1.6H283.6z"/>
	<path class="st0" d="M333.8,46.6c0,7.7-0.2,13.2-0.5,16.4c-0.4,3.2-1.5,6.1-3.4,8.8c-1.9,2.7-4.5,4.7-7.8,6.1
		c-3.3,1.4-7.1,2.1-11.4,2.1c-4.1,0-7.8-0.7-11.1-2s-5.9-3.4-7.9-6c-2-2.7-3.2-5.6-3.6-8.8c-0.4-3.2-0.6-8.7-0.6-16.6V33.5
		c0-7.7,0.2-13.2,0.5-16.4c0.4-3.2,1.5-6.1,3.4-8.8c1.9-2.7,4.5-4.7,7.8-6.1c3.3-1.4,7.1-2.1,11.4-2.1c4.1,0,7.8,0.7,11.1,2
		c3.3,1.3,5.9,3.4,7.9,6c2,2.7,3.2,5.6,3.6,8.8c0.4,3.2,0.6,8.7,0.6,16.6V46.6z M313.8,21.4c0-3.6-0.2-5.9-0.6-6.9
		c-0.4-1-1.2-1.5-2.4-1.5c-1,0-1.8,0.4-2.4,1.2c-0.6,0.8-0.8,3.2-0.8,7.1v35.9c0,4.5,0.2,7.2,0.5,8.3c0.4,1,1.2,1.6,2.5,1.6
		c1.4,0,2.2-0.6,2.6-1.8c0.4-1.2,0.6-4.1,0.6-8.6V21.4z"/>
	<path class="st0" d="M387.2,78.4h-20V16.9h-5.9v61.5h-20V1.6h46V78.4z"/>
	<path class="st0" d="M434.4,45.4c-4.2,0.1-6.3,1.9-6.3,5.4V71c0,2.7-0.3,4.6-0.9,5.7c-0.6,1.1-1,1.7-1.3,1.7h-16.5
		c1.4-2.1,2.1-5.1,2.1-9.2V52c0-3.7,1-6.5,3.1-8.4c2-1.9,5.5-3.3,10.5-4.1v-0.1c-9-0.5-13.5-4.6-13.5-12.5V10.6c0-4-0.7-7-2.1-9H426
		c0.5,0.2,1,0.9,1.4,2.1c0.5,1.2,0.7,2.9,0.7,5.2V28c0,3.5,2.1,5.3,6.2,5.5V1.6h20v31.9c4.2-0.1,6.3-1.9,6.3-5.5V8.9
		c0-2.7,0.3-4.5,0.9-5.6c0.6-1.1,1-1.7,1.3-1.7h16.5c-1.4,2-2.1,5-2.1,9v16.3c0,7.9-4.5,12.1-13.5,12.5v0.1c5,0.8,8.5,2.2,10.5,4.1
		c2.1,1.9,3.1,4.7,3.1,8.4v17.3c0,4,0.7,7.1,2.1,9.2H463c-0.5-0.2-1-0.9-1.5-2.1c-0.5-1.2-0.7-3-0.7-5.3V50.8c0-3.5-2.1-5.3-6.4-5.4
		v33h-20V45.4z"/>
	<path class="st0" d="M526.8,1.6l-14.6,49v27.8h-18.5V50.6l-14-49H498c2.9,15,4.5,25.1,4.9,30.3c1.1-8.2,3-18.3,5.6-30.3H526.8z"/>
	<path class="st0" d="M530.2,1.6h20.1c5.4,0,9.6,0.4,12.5,1.3s5.1,2.1,6.6,3.7c1.5,1.6,2.5,3.6,3,5.9c0.5,2.3,0.8,5.8,0.8,10.7v6.7
		c0,4.9-0.5,8.5-1.5,10.7c-1,2.2-2.9,4-5.6,5.2c-2.7,1.2-6.2,1.8-10.6,1.8h-5.4v30.9h-20V1.6z M550.2,14.8v19.5c0.6,0,1.1,0,1.5,0
		c1.8,0,3.1-0.5,3.8-1.4c0.7-0.9,1.1-2.8,1.1-5.6v-6.3c0-2.6-0.4-4.3-1.2-5.1C554.5,15.2,552.8,14.8,550.2,14.8z"/>
	<path class="st0" d="M625.6,35.1h-20V21.7c0-3.9-0.2-6.3-0.6-7.3c-0.4-1-1.4-1.4-2.8-1.4c-1.6,0-2.7,0.6-3.1,1.8
		c-0.4,1.2-0.7,3.7-0.7,7.6V58c0,3.7,0.2,6.2,0.7,7.3s1.4,1.7,3,1.7c1.5,0,2.5-0.6,2.9-1.7c0.5-1.1,0.7-3.8,0.7-8v-9.7h20v3
		c0,8-0.6,13.6-1.7,16.9c-1.1,3.3-3.6,6.2-7.4,8.7c-3.8,2.5-8.6,3.8-14.2,3.8c-5.9,0-10.7-1.1-14.5-3.2c-3.8-2.1-6.3-5.1-7.5-8.8
		c-1.2-3.7-1.9-9.4-1.9-16.9V28.7c0-5.5,0.2-9.7,0.6-12.5c0.4-2.8,1.5-5.4,3.4-8c1.9-2.6,4.5-4.6,7.8-6c3.3-1.5,7.2-2.2,11.5-2.2
		c5.9,0,10.7,1.1,14.6,3.4s6.3,5.1,7.5,8.5c1.2,3.4,1.8,8.7,1.8,15.8V35.1z"/>
	<path class="st0" d="M632.8,1.6h33.3V17h-13.3v14.6h12.5v14.6h-12.5v16.9h14.7v15.4h-34.6V1.6z"/>
	<path class="st0" d="M673.2,1.6h20l0.1,32.5c3.8-0.1,5.7-2.2,5.8-6.3l0.4-15c0.1-5.5,1.2-9.3,3.2-11.2h18.5
		c-1.8,1.9-2.7,5.7-2.7,11.6l0.1,13.2c0.1,8-4.4,12.5-13.5,13.6c9,1.1,13.5,5.7,13.5,13.8L718.5,66c0,5.8,0.9,10,2.7,12.4h-18.5
		c-2.2-1.9-3.2-5.7-3.2-11.2v-15c0-1.9-0.6-3.4-1.7-4.6c-1.2-1.2-2.6-1.7-4.5-1.8l-0.1,32.5h-20V1.6z"/>
	<path class="st0" d="M735.9,63.4v6.9c0,3.6-0.4,6.6-1.3,8.9c-0.9,2.3-2.3,4.3-4.4,5.9s-4.5,2.7-7.1,3.2v-5.5c1.9-1.1,3-2.5,3.2-4.3
		H723v-15H735.9z"/>
</g>
</svg>
