<?xml version="1.0" encoding="utf-8"?>
<!-- Generator: Adobe Illustrator 25.2.3, SVG Export Plug-In . SVG Version: 6.00 Build 0)  -->
<svg version="1.1" id="Layer_1" xmlns="http://www.w3.org/2000/svg" xmlns:xlink="http://www.w3.org/1999/xlink" x="0px" y="0px"
	 viewBox="0 0 466 49.2" style="enable-background:new 0 0 466 49.2;" xml:space="preserve">
<style type="text/css">
	.st0{fill:#FFFFFF;}
</style>
<g>
	<path class="st0" d="M20.2,8.7l5.9,39.7H15.5L15,41.2h-3.7l-0.6,7.1H0L5.3,8.7H20.2z M14.7,34.2c-0.5-4.5-1-10.1-1.6-16.7
		c-1.1,7.6-1.7,13.2-2,16.7H14.7z"/>
	<path class="st0" d="M51.6,48.4H41.3V16.6h-3.1v31.8H27.8V8.6h23.8V48.4z"/>
	<path class="st0" d="M76.5,8.7v7.9h-6.1v31.8H60.1V16.6H54V8.7H76.5z"/>
	<path class="st0" d="M96.7,8.7l5.9,39.7H92.1l-0.6-7.1h-3.7l-0.6,7.1H76.5l5.3-39.7H96.7z M91.3,34.2c-0.5-4.5-1-10.1-1.6-16.7
		c-1.1,7.6-1.7,13.2-2,16.7H91.3z"/>
	<path class="st0" d="M137.4,25.9H127V19c0-2-0.1-3.3-0.3-3.8c-0.2-0.5-0.7-0.7-1.5-0.7c-0.9,0-1.4,0.3-1.6,0.9
		c-0.2,0.6-0.3,1.9-0.3,3.9v18.4c0,1.9,0.1,3.2,0.3,3.8c0.2,0.6,0.7,0.9,1.5,0.9c0.8,0,1.3-0.3,1.5-0.9c0.2-0.6,0.4-2,0.4-4.2v-5
		h10.3V34c0,4.1-0.3,7-0.9,8.7c-0.6,1.7-1.9,3.2-3.9,4.5c-2,1.3-4.4,1.9-7.3,1.9c-3,0-5.5-0.5-7.5-1.6c-2-1.1-3.3-2.6-3.9-4.5
		s-1-4.9-1-8.7V22.7c0-2.9,0.1-5,0.3-6.4s0.8-2.8,1.8-4.1c1-1.3,2.3-2.4,4-3.1c1.7-0.8,3.7-1.1,5.9-1.1c3,0,5.6,0.6,7.5,1.8
		c2,1.2,3.3,2.6,3.9,4.4c0.6,1.8,0.9,4.5,0.9,8.2V25.9z"/>
	<path class="st0" d="M158.9,8.7l5.9,39.7h-10.6l-0.6-7.1H150l-0.6,7.1h-10.7L144,8.7H158.9z M153.4,34.2c-0.5-4.5-1-10.1-1.6-16.7
		c-1.1,7.6-1.7,13.2-2,16.7H153.4z"/>
	<path class="st0" d="M189.6,48.4H181V30.3l-5.4,18.1h-9V8.6h8.6v17.9L181,8.6h8.6V48.4z M180.8,0h4.2c-0.1,2.2-0.7,4-1.9,5.4
		c-1.2,1.4-2.9,2-5,2c-2.2,0-3.8-0.7-5-2c-1.2-1.4-1.8-3.2-1.9-5.4h4.2c0.2,2.2,1.1,3.4,2.8,3.4C179.7,3.4,180.6,2.2,180.8,0z"/>
	<path class="st0" d="M217.8,39.1c0,3-0.4,5.1-1.2,6.4c-0.8,1.3-1.9,2.1-3.5,2.4c-1.6,0.3-4.1,0.5-7.5,0.5h-11.9V8.6h10.3v13.6h1.6
		c3.2,0,5.6,0.2,7.2,0.6c1.6,0.4,2.9,1.2,3.7,2.5c0.8,1.3,1.2,3.3,1.2,6V39.1z M207.4,37.9v-5.7c0-1.7-0.2-2.7-0.5-3
		c-0.3-0.4-1.3-0.6-2.9-0.6v13c1.3,0,2.2-0.2,2.7-0.5S207.4,39.6,207.4,37.9z M231.6,48.4h-10.3V8.6h10.3V48.4z"/>
	<path class="st0" d="M259.2,8.7v39.7h-10.3V31.7h-3.1v16.7h-10.3V8.7h10.3v14.2h3.1V8.7H259.2z"/>
	<path class="st0" d="M288.2,34.8h5.5v7.6h-5.5v5.9h-9.6v-5.9h-5.8v-7.6h5.8V34l-7.3-25.4h9.5c1.5,7.7,2.3,13,2.5,15.6
		c0.6-4.2,1.5-9.5,2.9-15.6h9.5L288.2,34V34.8z"/>
	<path class="st0" d="M319.8,8.7v7.9h-6.1v31.8h-10.3V16.6h-6.1V8.7H319.8z"/>
	<path class="st0" d="M346.2,39.1c0,3-0.4,5.1-1.2,6.4c-0.8,1.3-1.9,2.1-3.5,2.4c-1.6,0.3-4.1,0.5-7.5,0.5h-11.9V8.6h10.3v13.6h1.6
		c3.2,0,5.6,0.2,7.2,0.6s2.9,1.2,3.7,2.5c0.8,1.3,1.2,3.3,1.2,6V39.1z M335.9,37.9v-5.7c0-1.7-0.2-2.7-0.5-3s-1.3-0.6-2.9-0.6v13
		c1.3,0,2.2-0.2,2.7-0.5S335.9,39.6,335.9,37.9z M360.1,48.4h-10.3V8.6h10.3V48.4z"/>
	<path class="st0" d="M387.6,48.4h-10.3V16.6h-3.1v31.8h-10.3V8.6h23.8V48.4z"/>
	<path class="st0" d="M418.4,8.7l5.9,39.7h-10.6l-0.6-7.1h-3.7l-0.6,7.1h-10.7l5.3-39.7H418.4z M413,34.2c-0.5-4.5-1-10.1-1.6-16.7
		c-1.1,7.6-1.7,13.2-2,16.7H413z"/>
	<path class="st0" d="M451.3,48.4H441V16.6h-3v22.5c0,3-0.4,5.1-1.1,6.4c-0.8,1.3-1.9,2.1-3.5,2.4s-4,0.5-7.4,0.5h-1.6v-6.8
		c1.3,0,2.1-0.2,2.6-0.5s0.7-1.4,0.7-3.2V8.6h23.7V48.4z"/>
	<path class="st0" d="M466,8.7l-1.6,29.9h-7.7l-1.6-29.9H466z M465.2,40.4v7.9H456v-7.9H465.2z"/>
</g>
</svg>
