<?xml version="1.0" encoding="utf-8"?>
<!-- Generator: Adobe Illustrator 25.2.3, SVG Export Plug-In . SVG Version: 6.00 Build 0)  -->
<svg version="1.1" id="Layer_1" xmlns="http://www.w3.org/2000/svg" xmlns:xlink="http://www.w3.org/1999/xlink" x="0px" y="0px"
	 viewBox="0 0 524.8 47.4" style="enable-background:new 0 0 524.8 47.4;" xml:space="preserve">
<style type="text/css">
	.st0{fill:#FCAF17;}
</style>
<g>
	<path class="st0" d="M24.1,31.2c0,3-0.4,5.1-1.2,6.4c-0.8,1.3-1.9,2.1-3.5,2.4c-1.6,0.3-4.1,0.5-7.5,0.5H0V0.8h20.2v6.9h-9.9v6.7
		h1.6c3.2,0,5.6,0.2,7.2,0.6c1.6,0.4,2.9,1.2,3.7,2.5c0.8,1.3,1.2,3.3,1.2,6V31.2z M13.7,30v-5.7c0-1.7-0.2-2.7-0.5-3
		c-0.3-0.4-1.3-0.6-2.9-0.6v13c1.3,0,2.2-0.2,2.7-0.5S13.7,31.8,13.7,30z"/>
	<path class="st0" d="M45.6,0.8l5.9,39.7H40.9l-0.6-7.1h-3.7L36,40.5H25.4l5.3-39.7H45.6z M40.1,26.4c-0.5-4.5-1-10.1-1.6-16.7
		c-1.1,7.6-1.7,13.2-2,16.7H40.1z"/>
	<path class="st0" d="M74,0.8v7.9h-6.1v31.8H57.6V8.8h-6.1V0.8H74z"/>
	<path class="st0" d="M100,24.1c0,4-0.1,6.8-0.3,8.5s-0.8,3.2-1.8,4.5c-1,1.4-2.3,2.4-4,3.2c-1.7,0.7-3.6,1.1-5.9,1.1
		c-2.1,0-4-0.3-5.7-1c-1.7-0.7-3.1-1.7-4.1-3.1s-1.6-2.9-1.8-4.5s-0.3-4.5-0.3-8.6v-6.8c0-4,0.1-6.8,0.3-8.5
		c0.2-1.7,0.8-3.2,1.8-4.5c1-1.4,2.3-2.4,4-3.2S85.8,0,88,0c2.1,0,4,0.3,5.7,1c1.7,0.7,3.1,1.7,4.1,3.1c1,1.4,1.6,2.9,1.8,4.5
		s0.3,4.5,0.3,8.6V24.1z M89.6,11c0-1.8-0.1-3-0.3-3.5c-0.2-0.5-0.6-0.8-1.3-0.8c-0.5,0-1,0.2-1.2,0.6C86.5,7.8,86.4,9,86.4,11v18.5
		c0,2.3,0.1,3.7,0.3,4.3c0.2,0.5,0.6,0.8,1.3,0.8c0.7,0,1.2-0.3,1.3-0.9c0.2-0.6,0.3-2.1,0.3-4.4V11z"/>
	<path class="st0" d="M127.6,0.8v39.7h-10.3V23.9h-3.1v16.7h-10.3V0.8h10.3V15h3.1V0.8H127.6z"/>
	<path class="st0" d="M145.8,25.3c-0.8,0.9-1.9,1.6-3.3,2.1c-1.3,0.5-2.7,0.8-4.1,0.8c-2.5,0-4.3-0.7-5.4-2.1
		c-1.1-1.4-1.7-3.5-1.7-6.4v-19h10.3v17.9c0,1.6,0.1,2.6,0.4,3.2c0.3,0.6,0.7,0.9,1.3,0.9c1.5,0,2.3-1.3,2.3-4v-18h10.3v39.7h-10.3
		V25.3z"/>
	<path class="st0" d="M183.3,40.5h-8.6V22.5l-5.4,18.1h-9V0.8h8.6v17.9l5.8-17.9h8.6V40.5z"/>
	<path class="st0" d="M187.4,0.8h10.3l0,16.8c1.9,0,3-1.1,3-3.2l0.2-7.8c0.1-2.9,0.6-4.8,1.7-5.8h9.5c-0.9,1-1.4,3-1.4,6l0,6.8
		c0,4.1-2.3,6.5-7,7c4.7,0.6,7,3,7,7.1l0,6.3c0,3,0.4,5.2,1.4,6.4h-9.5c-1.1-1-1.7-2.9-1.7-5.8V27c0-1-0.3-1.8-0.9-2.4
		s-1.4-0.9-2.3-0.9l0,16.8h-10.3V0.8z"/>
	<path class="st0" d="M235.2,0.8v7.9H229v31.8h-10.3V8.8h-6.1V0.8H235.2z"/>
	<path class="st0" d="M247.8,0.8v39.7h-10.3V0.8H247.8z"/>
	<path class="st0" d="M285,18.1h-10.3v-6.9c0-2-0.1-3.3-0.3-3.8c-0.2-0.5-0.7-0.7-1.5-0.7c-0.9,0-1.4,0.3-1.6,0.9
		c-0.2,0.6-0.3,1.9-0.3,3.9V30c0,1.9,0.1,3.2,0.3,3.8c0.2,0.6,0.7,0.9,1.5,0.9c0.8,0,1.3-0.3,1.5-0.9c0.2-0.6,0.4-2,0.4-4.2v-5H285
		v1.5c0,4.1-0.3,7-0.9,8.7c-0.6,1.7-1.9,3.2-3.9,4.5c-2,1.3-4.4,1.9-7.3,1.9c-3,0-5.5-0.5-7.5-1.6c-2-1.1-3.3-2.6-3.9-4.5
		s-1-4.9-1-8.7V14.8c0-2.9,0.1-5,0.3-6.4s0.8-2.8,1.8-4.1c1-1.3,2.3-2.4,4-3.1c1.7-0.8,3.7-1.1,5.9-1.1c3,0,5.6,0.6,7.5,1.8
		c2,1.2,3.3,2.6,3.9,4.4c0.6,1.8,0.9,4.5,0.9,8.2V18.1z"/>
	<path class="st0" d="M288.7,0.8H299l0,16.8c1.9,0,3-1.1,3-3.2l0.2-7.8c0.1-2.9,0.6-4.8,1.7-5.8h9.5c-0.9,1-1.4,3-1.4,6l0,6.8
		c0,4.1-2.3,6.5-7,7c4.7,0.6,7,3,7,7.1l0,6.3c0,3,0.4,5.2,1.4,6.4h-9.5c-1.1-1-1.7-2.9-1.7-5.8V27c0-1-0.3-1.8-0.9-2.4
		s-1.4-0.9-2.3-0.9l0,16.8h-10.3V0.8z"/>
	<path class="st0" d="M333.4,0.8l5.9,39.7h-10.6l-0.6-7.1h-3.7l-0.6,7.1h-10.7l5.3-39.7H333.4z M328,26.4c-0.5-4.5-1-10.1-1.6-16.7
		c-1.1,7.6-1.7,13.2-2,16.7H328z"/>
	<path class="st0" d="M364.8,0.8v39.7h-10.3V23.9h-3.1v16.7h-10.3V0.8h10.3V15h3.1V0.8H364.8z"/>
	<path class="st0" d="M369,0.8h17.2v7.9h-6.9v7.5h6.5v7.6h-6.5v8.7h7.6v7.9H369V0.8z"/>
	<path class="st0" d="M389.8,0.8h10.4c2.8,0,5,0.2,6.5,0.7c1.5,0.4,2.6,1.1,3.4,1.9c0.8,0.8,1.3,1.8,1.5,3s0.4,3,0.4,5.5v3.5
		c0,2.5-0.3,4.4-0.8,5.5c-0.5,1.2-1.5,2.1-2.9,2.7c-1.4,0.6-3.2,0.9-5.5,0.9h-2.8v16h-10.3V0.8z M400.2,7.6v10.1c0.3,0,0.5,0,0.8,0
		c0.9,0,1.6-0.2,2-0.7c0.4-0.5,0.6-1.4,0.6-2.9v-3.3c0-1.4-0.2-2.2-0.6-2.6C402.4,7.8,401.5,7.6,400.2,7.6z"/>
	<path class="st0" d="M440.3,40.5h-10.3V8.8h-3v22.5c0,3-0.4,5.1-1.1,6.4c-0.8,1.3-1.9,2.1-3.5,2.4s-4,0.5-7.4,0.5h-1.6v-6.8
		c1.3,0,2.1-0.2,2.6-0.5s0.7-1.4,0.7-3.2V0.8h23.7V40.5z"/>
	<path class="st0" d="M444.4,0.8h17.2v7.9h-6.9v7.5h6.5v7.6h-6.5v8.7h7.6v7.9h-17.9V0.8z"/>
	<path class="st0" d="M503.6,47.4h-7.1v-6.8h-16.7v6.8h-7.1V32.2h2.1c1.1-3.3,2-7.5,2.7-12.8s1.1-11.1,1.1-17.4V0.8h22.9v31.4h2.1
		V47.4z M491.2,32.2V8.7h-3.1V9c0,7.6-0.8,15.4-2.5,23.2H491.2z"/>
	<path class="st0" d="M506.9,0.8h17.2v7.9h-6.9v7.5h6.5v7.6h-6.5v8.7h7.6v7.9h-17.9V0.8z"/>
</g>
</svg>
