<?xml version="1.0" encoding="utf-8"?>
<!-- Generator: Adobe Illustrator 25.2.3, SVG Export Plug-In . SVG Version: 6.00 Build 0)  -->
<svg version="1.1" id="Layer_1" xmlns="http://www.w3.org/2000/svg" xmlns:xlink="http://www.w3.org/1999/xlink" x="0px" y="0px"
	 viewBox="0 0 293.2 64.4" style="enable-background:new 0 0 293.2 64.4;" xml:space="preserve">
<style type="text/css">
	.st0{fill:#E51B24;}
	.st1{fill:#FFFFFF;}
</style>
<g>
	<path class="st0" d="M261,64.4H32.2C14.4,64.4,0,50,0,32.2v0C0,14.4,14.4,0,32.2,0L261,0c17.8,0,32.2,14.4,32.2,32.2v0
		C293.2,50,278.8,64.4,261,64.4z"/>
	<g>
		<path class="st1" d="M56.4,26.6h-6.8v-2.1c0-1-0.1-1.6-0.3-1.9c-0.2-0.3-0.5-0.4-0.9-0.4c-0.4,0-0.8,0.2-1,0.5
			c-0.2,0.4-0.3,0.9-0.3,1.6c0,0.9,0.1,1.7,0.4,2.1c0.2,0.5,0.9,1.1,2.1,1.7c3.3,1.9,5.3,3.5,6.2,4.8c0.8,1.2,1.3,3.2,1.3,6
			c0,2-0.2,3.5-0.7,4.4s-1.4,1.8-2.7,2.4c-1.3,0.6-2.9,1-4.7,1c-2,0-3.6-0.4-5-1.1c-1.4-0.7-2.3-1.7-2.7-2.8
			c-0.4-1.2-0.6-2.8-0.6-4.9v-1.8h6.8v3.4c0,1.1,0.1,1.7,0.3,2c0.2,0.3,0.5,0.5,1,0.5c0.5,0,0.9-0.2,1.1-0.6s0.4-1,0.4-1.7
			c0-1.7-0.2-2.7-0.7-3.3c-0.5-0.5-1.6-1.4-3.4-2.6c-1.8-1.2-3-2.1-3.6-2.6c-0.6-0.5-1.1-1.3-1.5-2.3c-0.4-1-0.6-2.2-0.6-3.7
			c0-2.2,0.3-3.7,0.8-4.7c0.6-1,1.4-1.8,2.7-2.3c1.2-0.6,2.7-0.8,4.5-0.8c1.9,0,3.5,0.3,4.9,0.9c1.3,0.6,2.2,1.4,2.7,2.3
			c0.4,0.9,0.7,2.5,0.7,4.8V26.6z"/>
		<path class="st1" d="M76.1,18.1v28.2h-6.4l-3.8-12.8v12.8h-6.1V18.1h6.1l4.1,12.7V18.1H76.1z"/>
		<path class="st1" d="M86.7,18.1v28.2h-7.3V18.1H86.7z"/>
		<path class="st1" d="M107.1,30.4h-7.3v-4.9c0-1.4-0.1-2.3-0.2-2.7c-0.2-0.4-0.5-0.5-1-0.5c-0.6,0-1,0.2-1.1,0.6
			c-0.2,0.4-0.2,1.4-0.2,2.8v13.1c0,1.4,0.1,2.3,0.2,2.7c0.2,0.4,0.5,0.6,1.1,0.6c0.5,0,0.9-0.2,1.1-0.6c0.2-0.4,0.3-1.4,0.3-3V35
			h7.3v1.1c0,2.9-0.2,5-0.6,6.2c-0.4,1.2-1.3,2.3-2.7,3.2s-3.2,1.4-5.2,1.4c-2.1,0-3.9-0.4-5.3-1.2c-1.4-0.8-2.3-1.9-2.8-3.2
			c-0.5-1.4-0.7-3.4-0.7-6.2V28c0-2,0.1-3.6,0.2-4.6c0.1-1,0.6-2,1.2-2.9c0.7-0.9,1.6-1.7,2.9-2.2c1.2-0.5,2.6-0.8,4.2-0.8
			c2.2,0,3.9,0.4,5.3,1.3c1.4,0.8,2.3,1.9,2.8,3.1c0.4,1.2,0.7,3.2,0.7,5.8V30.4z"/>
		<path class="st1" d="M127.6,18.1l-4.2,12.7l4.6,15.5h-7.6l-3-12.1v12.1h-7.3V18.1h7.3v11l3.3-11H127.6z"/>
		<path class="st1" d="M129.6,18.1h12.2v5.6H137v5.4h4.6v5.4H137v6.2h5.4v5.6h-12.7V18.1z"/>
		<path class="st1" d="M144.8,18.1h5.2c3.5,0,5.8,0.1,7,0.4c1.2,0.3,2.2,0.9,3,2c0.8,1.1,1.2,2.8,1.2,5.3c0,2.2-0.3,3.7-0.8,4.4
			c-0.5,0.8-1.6,1.2-3.2,1.4c1.5,0.4,2.4,0.8,2.9,1.4c0.5,0.6,0.8,1.2,0.9,1.7c0.1,0.5,0.2,1.9,0.2,4.2v7.4h-6.8v-9.4
			c0-1.5-0.1-2.4-0.4-2.8c-0.2-0.4-0.9-0.5-1.9-0.5v12.7h-7.3V18.1z M152.2,22.9v6.3c0.8,0,1.4-0.1,1.7-0.3c0.3-0.2,0.5-1,0.5-2.2
			v-1.6c0-0.9-0.2-1.5-0.5-1.8C153.6,23.1,153,22.9,152.2,22.9z"/>
		<path class="st1" d="M180,26.6h-6.8v-2.1c0-1-0.1-1.6-0.3-1.9c-0.2-0.3-0.5-0.4-0.9-0.4c-0.4,0-0.8,0.2-1,0.5
			c-0.2,0.4-0.3,0.9-0.3,1.6c0,0.9,0.1,1.7,0.4,2.1c0.2,0.5,0.9,1.1,2.1,1.7c3.3,1.9,5.3,3.5,6.2,4.8c0.8,1.2,1.3,3.2,1.3,6
			c0,2-0.2,3.5-0.7,4.4s-1.4,1.8-2.7,2.4c-1.3,0.6-2.9,1-4.7,1c-2,0-3.6-0.4-5-1.1c-1.4-0.7-2.3-1.7-2.7-2.8
			c-0.4-1.2-0.6-2.8-0.6-4.9v-1.8h6.8v3.4c0,1.1,0.1,1.7,0.3,2c0.2,0.3,0.5,0.5,1,0.5c0.5,0,0.9-0.2,1.1-0.6c0.2-0.4,0.4-1,0.4-1.7
			c0-1.7-0.2-2.7-0.7-3.3c-0.5-0.5-1.6-1.4-3.4-2.6c-1.8-1.2-3-2.1-3.6-2.6c-0.6-0.5-1.1-1.3-1.5-2.3c-0.4-1-0.6-2.2-0.6-3.7
			c0-2.2,0.3-3.7,0.8-4.7c0.6-1,1.4-1.8,2.7-2.3c1.2-0.6,2.7-0.8,4.5-0.8c1.9,0,3.5,0.3,4.9,0.9s2.2,1.4,2.7,2.3
			c0.4,0.9,0.7,2.5,0.7,4.8V26.6z"/>
		<path class="st1" d="M199.6,18.1v28.2h-6.4l-3.8-12.8v12.8h-6.1V18.1h6.1l4.1,12.7V18.1H199.6z"/>
		<path class="st1" d="M210.2,18.1v28.2h-7.3V18.1H210.2z"/>
		<path class="st1" d="M218,40.6v5.8h-5.3v-5.8H218z"/>
		<path class="st1" d="M238,18.1l-4.2,12.7l4.6,15.5h-7.6l-3-12.1v12.1h-7.3V18.1h7.3v11l3.3-11H238z"/>
		<path class="st1" d="M252.9,18.1v5.6l-5.5,16.9h5.5v5.6h-13.5v-4.1l5.6-18.5h-5v-5.6H252.9z"/>
	</g>
</g>
</svg>
