<?xml version="1.0" encoding="utf-8"?>
<!-- Generator: Adobe Illustrator 25.2.3, SVG Export Plug-In . SVG Version: 6.00 Build 0)  -->
<svg version="1.1" id="Layer_1" xmlns="http://www.w3.org/2000/svg" xmlns:xlink="http://www.w3.org/1999/xlink" x="0px" y="0px"
	 viewBox="0 0 778.1 94.8" style="enable-background:new 0 0 778.1 94.8;" xml:space="preserve">
<style type="text/css">
	.st0{fill:#FFFFFF;}
</style>
<g>
	<path class="st0" d="M54.5,92.9H30.7V20.1h-7v72.8H0v-91h54.5V92.9z"/>
	<path class="st0" d="M116.7,92.9H96.9V51.5L84.6,92.9H63.9v-91h19.8v41.1L96.9,1.9h19.8V92.9z"/>
	<path class="st0" d="M173.8,1.9v18.2h-14.1v72.8h-23.7V20.1h-14V1.9H173.8z"/>
	<path class="st0" d="M206.4,39.7v15.6h-29.8V39.7H206.4z"/>
	<path class="st0" d="M268.3,41.5h-23.7V25.7c0-4.6-0.3-7.5-0.8-8.6s-1.6-1.7-3.3-1.7c-1.9,0-3.2,0.7-3.7,2.1
		c-0.5,1.4-0.8,4.4-0.8,9v42.3c0,4.4,0.3,7.3,0.8,8.7c0.5,1.3,1.7,2,3.5,2c1.8,0,2.9-0.7,3.5-2c0.5-1.4,0.8-4.5,0.8-9.5V56.4h23.7
		V60c0,9.4-0.7,16.1-2,20c-1.3,3.9-4.3,7.4-8.8,10.4c-4.6,3-10.2,4.4-16.8,4.4c-6.9,0-12.6-1.3-17.1-3.8s-7.5-6-8.9-10.4
		c-1.5-4.4-2.2-11.1-2.2-20V34c0-6.6,0.2-11.5,0.7-14.8c0.4-3.3,1.8-6.4,4-9.5c2.2-3,5.3-5.4,9.3-7.2c4-1.7,8.5-2.6,13.6-2.6
		c7,0,12.7,1.3,17.3,4c4.5,2.7,7.5,6.1,8.9,10.1c1.4,4,2.1,10.3,2.1,18.8V41.5z"/>
	<path class="st0" d="M324.5,1.9v18.2h-14.1v72.8h-23.7V20.1h-14V1.9H324.5z"/>
	<path class="st0" d="M383.9,55.2c0,9.1-0.2,15.6-0.6,19.4c-0.4,3.8-1.8,7.3-4,10.4c-2.3,3.1-5.3,5.6-9.2,7.2
		c-3.9,1.7-8.4,2.5-13.5,2.5c-4.9,0-9.2-0.8-13.1-2.4s-7-4-9.4-7.2c-2.4-3.2-3.8-6.7-4.2-10.4c-0.4-3.7-0.7-10.3-0.7-19.7V39.6
		c0-9.1,0.2-15.6,0.6-19.4c0.4-3.8,1.8-7.3,4-10.4c2.3-3.1,5.3-5.6,9.2-7.2c3.9-1.7,8.4-2.5,13.5-2.5c4.9,0,9.2,0.8,13.1,2.4
		c3.9,1.6,7,4,9.4,7.2c2.4,3.2,3.8,6.7,4.2,10.4s0.7,10.3,0.7,19.7V55.2z M360.3,25.3c0-4.2-0.2-6.9-0.7-8.1
		c-0.5-1.2-1.4-1.8-2.9-1.8c-1.2,0-2.2,0.5-2.8,1.4c-0.7,1-1,3.8-1,8.5v42.5c0,5.3,0.2,8.5,0.6,9.8c0.4,1.2,1.4,1.9,3,1.9
		c1.6,0,2.6-0.7,3.1-2.1c0.4-1.4,0.7-4.8,0.7-10.2V25.3z"/>
	<path class="st0" d="M447.2,92.9h-23.7V20.1h-7v72.8h-23.7v-91h54.5V92.9z"/>
	<path class="st0" d="M476.9,1.9h23.7l0.1,38.4c4.5-0.1,6.8-2.6,6.9-7.4l0.5-17.8c0.1-6.6,1.4-11,3.8-13.3h21.9
		c-2.1,2.2-3.2,6.8-3.1,13.7l0.1,15.6c0.1,9.4-5.2,14.8-16,16.1c10.7,1.3,16,6.8,16,16.4l-0.1,14.5c0,6.9,1,11.8,3.1,14.7h-21.9
		c-2.5-2.3-3.8-6.7-3.8-13.3V61.9c0-2.2-0.7-4.1-2.1-5.4c-1.4-1.4-3.1-2.1-5.3-2.1l-0.1,38.6h-23.7V1.9z"/>
	<path class="st0" d="M538.6,1.9h39.5v18.2h-15.8v17.3h14.8v17.3h-14.8v20h17.4v18.2h-41V1.9z"/>
	<path class="st0" d="M586.5,1.9h23.8c6.4,0,11.4,0.5,14.9,1.5c3.5,1,6.1,2.5,7.8,4.4c1.7,1.9,2.9,4.2,3.5,6.9
		c0.6,2.7,0.9,6.9,0.9,12.6v7.9c0,5.8-0.6,10-1.8,12.7c-1.2,2.7-3.4,4.7-6.6,6.1c-3.2,1.4-7.4,2.1-12.6,2.1h-6.4v36.6h-23.7V1.9z
		 M610.1,17.5v23.2c0.7,0,1.3,0.1,1.7,0.1c2.2,0,3.7-0.5,4.5-1.6c0.8-1.1,1.3-3.3,1.3-6.7V25c0-3.1-0.5-5.1-1.5-6.1
		C615.2,17.9,613.2,17.5,610.1,17.5z"/>
	<path class="st0" d="M644.2,1.9h39.5v18.2h-15.8v17.3h14.8v17.3h-14.8v20h17.4v18.2h-41V1.9z"/>
	<path class="st0" d="M692.1,1.9h23.7l0.1,38.4c4.5-0.1,6.8-2.6,6.9-7.4l0.5-17.8c0.1-6.6,1.4-11,3.8-13.3h21.9
		c-2.1,2.2-3.2,6.8-3.1,13.7l0.1,15.6c0.1,9.4-5.2,14.8-16,16.1c10.7,1.3,16,6.8,16,16.4l-0.1,14.5c0,6.9,1,11.8,3.1,14.7h-21.9
		c-2.5-2.3-3.8-6.7-3.8-13.3V61.9c0-2.2-0.7-4.1-2.1-5.4c-1.4-1.4-3.1-2.1-5.3-2.1l-0.1,38.6h-23.7V1.9z"/>
	<path class="st0" d="M778.1,1.9l-3.7,68.5h-17.5l-3.7-68.5H778.1z M776.2,74.7v18.2H755V74.7H776.2z"/>
</g>
</svg>
