<?xml version="1.0" encoding="utf-8"?>
<!-- Generator: Adobe Illustrator 25.2.3, SVG Export Plug-In . SVG Version: 6.00 Build 0)  -->
<svg version="1.1" id="Layer_1" xmlns="http://www.w3.org/2000/svg" xmlns:xlink="http://www.w3.org/1999/xlink" x="0px" y="0px"
	 viewBox="0 0 320.1 60.5" style="enable-background:new 0 0 320.1 60.5;" xml:space="preserve">
<style type="text/css">
	.st0{fill:#FCAF17;}
</style>
<g>
	<path class="st0" d="M25,10.6l7.3,49H19.2l-0.6-8.8h-4.5l-0.8,8.8H0l6.4-49C6.4,10.6,25,10.6,25,10.6z M18.2,42.2
		c-0.6-5.6-1.3-12.4-1.9-20.6c-1.3,9.3-2.1,16.3-2.4,20.6H18.2z"/>
	<path class="st0" d="M63.8,59.6H51.1V20.5h-3.8v39.3H34.5V10.6h29.3V59.6z"/>
	<path class="st0" d="M94.5,10.6v9.9h-7.6v39.2H74.2V20.5h-7.6v-9.9C66.6,10.6,94.5,10.6,94.5,10.6z"/>
	<path class="st0" d="M119.5,10.6l7.3,49h-13l-0.6-8.8h-4.5l-0.8,8.8H94.8l6.4-49C101.2,10.6,119.5,10.6,119.5,10.6z M112.7,42.2
		c-0.6-5.6-1.3-12.4-1.9-20.6c-1.3,9.4-2.1,16.3-2.4,20.6H112.7z"/>
	<path class="st0" d="M169.6,32h-12.8v-8.5c0-2.5-0.1-4-0.4-4.7c-0.3-0.6-0.9-0.9-1.8-0.9c-1,0-1.8,0.4-2,1.1
		c-0.3,0.8-0.4,2.4-0.4,4.8v22.7c0,2.4,0.1,3.9,0.4,4.7c0.3,0.8,0.9,1.1,1.9,1.1s1.5-0.4,1.9-1.1c0.3-0.8,0.4-2.4,0.4-5.2v-6.1h12.8
		v1.9c0,5.1-0.4,8.7-1.1,10.7c-0.8,2.1-2.3,4-4.8,5.6c-2.4,1.6-5.4,2.4-9.1,2.4c-3.8,0-6.8-0.6-9.2-2s-4-3.3-4.8-5.6
		c-0.8-2.4-1.1-5.9-1.1-10.7V27.9c0-3.5,0.1-6.2,0.4-8c0.3-1.8,1-3.4,2.1-5.1c1.3-1.6,2.9-2.9,5.1-3.9c2.1-0.9,4.5-1.4,7.3-1.4
		c3.8,0,6.8,0.8,9.4,2.1c2.4,1.4,4,3.3,4.8,5.4c0.8,2.1,1.1,5.6,1.1,10.1L169.6,32L169.6,32z"/>
	<path class="st0" d="M196.3,10.6l7.3,49h-13l-0.6-8.8h-4.5l-0.8,8.8h-13.1l6.4-49C178,10.6,196.3,10.6,196.3,10.6z M189.4,42.2
		c-0.6-5.6-1.3-12.4-1.9-20.6c-1.3,9.4-2.1,16.3-2.4,20.6H189.4z"/>
	<path class="st0" d="M234.2,59.6h-10.6V37.4L217,59.8h-11.1V10.6h10.6v22.1l7.2-22.1h10.6L234.2,59.6
		C234.3,59.6,234.2,59.6,234.2,59.6z M223.3,0h5.2c-0.1,2.8-0.9,4.9-2.4,6.6c-1.5,1.6-3.5,2.5-6.2,2.5s-4.7-0.9-6.2-2.5
		s-2.3-3.9-2.4-6.6h5.2c0.3,2.8,1.4,4.2,3.4,4.2S223,2.8,223.3,0z"/>
	<path class="st0" d="M268.9,48.1c0,3.7-0.5,6.3-1.4,7.8c-1,1.6-2.4,2.7-4.3,3c-1.9,0.4-5.1,0.6-9.2,0.6h-14.8v-49H252v16.8h2
		c3.9,0,7,0.3,9,0.8s3.5,1.5,4.5,3c1,1.6,1.5,4,1.5,7.5v9.5H268.9z M256.2,46.7v-7.1c0-2-0.3-3.3-0.6-3.8c-0.4-0.5-1.6-0.8-3.5-0.8
		v16c1.6,0,2.7-0.3,3.3-0.6C255.9,50.2,256.2,48.9,256.2,46.7z M286.1,59.6h-12.8v-49h12.8V59.6z"/>
	<path class="st0" d="M320.1,10.6v49h-12.8V39h-3.8v20.6h-12.8v-49h12.8v17.6h3.8V10.6H320.1z"/>
</g>
</svg>
