<?xml version="1.0" encoding="utf-8"?>
<!-- Generator: Adobe Illustrator 25.2.3, SVG Export Plug-In . SVG Version: 6.00 Build 0)  -->
<svg version="1.1" id="Layer_1" xmlns="http://www.w3.org/2000/svg" xmlns:xlink="http://www.w3.org/1999/xlink" x="0px" y="0px"
	 viewBox="0 0 233.8 23.8" style="enable-background:new 0 0 233.8 23.8;" xml:space="preserve">
<style type="text/css">
	.st0{fill:#FFFFFF;}
</style>
<g>
	<path class="st0" d="M13,7.5H7.5V5.8c0-0.8-0.1-1.3-0.2-1.5C7.2,4.1,6.9,4,6.6,4C6.2,4,6,4.1,5.8,4.4S5.5,5.1,5.5,5.7
		c0,0.8,0.1,1.3,0.3,1.7C6,7.8,6.6,8.2,7.5,8.8c2.6,1.6,4.3,2.8,5,3.8s1,2.6,1,4.8c0,1.6-0.2,2.8-0.6,3.6c-0.4,0.8-1.1,1.4-2.2,1.9
		c-1.1,0.5-2.3,0.8-3.8,0.8c-1.6,0-2.9-0.3-4-0.9c-1.1-0.6-1.8-1.4-2.2-2.3c-0.3-0.9-0.5-2.2-0.5-3.9v-1.5h5.5v2.8
		c0,0.9,0.1,1.4,0.2,1.6c0.2,0.2,0.4,0.4,0.8,0.4s0.7-0.2,0.9-0.5s0.3-0.8,0.3-1.4c0-1.3-0.2-2.2-0.5-2.6C7,15,6.1,14.3,4.6,13.3
		s-2.4-1.7-2.9-2.1s-0.9-1-1.2-1.8C0.2,8.6,0,7.6,0,6.4c0-1.7,0.2-3,0.7-3.8c0.4-0.8,1.2-1.4,2.2-1.9C3.9,0.2,5.1,0,6.5,0
		C8,0,9.3,0.2,10.4,0.7c1.1,0.5,1.8,1.1,2.1,1.9c0.4,0.8,0.5,2,0.5,3.8V7.5z"/>
	<path class="st0" d="M28.5,0.6v22.7h-5.2l-3-10.3v10.3h-5V0.6h5l3.3,10.2V0.6H28.5z"/>
	<path class="st0" d="M36.8,0.6v22.7h-5.9V0.6H36.8z"/>
	<path class="st0" d="M52.9,10.5H47V6.6c0-1.1-0.1-1.9-0.2-2.1c-0.1-0.3-0.4-0.4-0.8-0.4c-0.5,0-0.8,0.2-0.9,0.5s-0.2,1.1-0.2,2.2
		v10.5c0,1.1,0.1,1.8,0.2,2.2c0.1,0.3,0.4,0.5,0.9,0.5c0.4,0,0.7-0.2,0.9-0.5c0.1-0.3,0.2-1.1,0.2-2.4v-2.9H53v0.9
		c0,2.3-0.2,4-0.5,5s-1.1,1.8-2.2,2.6c-1.1,0.7-2.5,1.1-4.2,1.1s-3.2-0.3-4.3-0.9c-1.1-0.6-1.9-1.5-2.2-2.6c-0.4-1.1-0.5-2.8-0.5-5
		V8.7c0-1.6,0.1-2.9,0.2-3.7c0.1-0.8,0.4-1.6,1-2.4s1.3-1.4,2.3-1.8s2.1-0.7,3.4-0.7c1.7,0,3.2,0.3,4.3,1c1.1,0.7,1.9,1.5,2.2,2.5
		c0.4,1,0.5,2.6,0.5,4.7v2.2H52.9z"/>
	<path class="st0" d="M69.1,0.6l-3.4,10.2l3.7,12.5h-6.1l-2.4-9.7v9.7H55V0.6h5.9v8.8l2.6-8.8H69.1z"/>
	<path class="st0" d="M70.5,0.6h9.8v4.5h-3.9v4.3h3.7v4.3h-3.7v5h4.3v4.6H70.5C70.5,23.3,70.5,0.6,70.5,0.6z"/>
	<path class="st0" d="M82.4,0.6h4.2c2.8,0,4.7,0.1,5.7,0.3c1,0.2,1.8,0.8,2.4,1.6c0.6,0.9,0.9,2.3,0.9,4.2c0,1.8-0.2,3-0.7,3.6
		c-0.4,0.6-1.3,1-2.6,1.1c1.2,0.3,2,0.7,2.4,1.2s0.7,0.9,0.7,1.3c0.1,0.4,0.1,1.5,0.1,3.4v6H90v-7.5c0-1.2-0.1-2-0.3-2.3
		c-0.2-0.3-0.7-0.4-1.5-0.4v10.2h-5.9V0.6H82.4z M88.3,4.5v5c0.7,0,1.1-0.1,1.4-0.3C90,9,90.1,8.4,90.1,7.4V6.2
		c0-0.7-0.1-1.2-0.4-1.4C89.4,4.6,89,4.5,88.3,4.5z"/>
	<path class="st0" d="M110.3,7.5h-5.5V5.8c0-0.8-0.1-1.3-0.2-1.5c-0.1-0.2-0.4-0.3-0.7-0.3c-0.4,0-0.6,0.1-0.8,0.4s-0.3,0.7-0.3,1.3
		c0,0.8,0.1,1.3,0.3,1.7c0.2,0.4,0.8,0.8,1.7,1.4c2.6,1.6,4.3,2.8,5,3.8s1,2.6,1,4.8c0,1.6-0.2,2.8-0.6,3.6
		c-0.4,0.8-1.1,1.4-2.2,1.9c-1.1,0.5-2.3,0.8-3.8,0.8c-1.6,0-2.9-0.3-4-0.9c-1.1-0.6-1.8-1.4-2.2-2.3c-0.3-0.9-0.5-2.2-0.5-3.9v-1.5
		h5.5v2.8c0,0.9,0.1,1.4,0.2,1.6s0.4,0.4,0.8,0.4s0.7-0.2,0.9-0.5s0.3-0.8,0.3-1.4c0-1.3-0.2-2.2-0.5-2.6c-0.4-0.4-1.3-1.1-2.8-2.1
		s-2.4-1.7-2.9-2.1s-0.9-1-1.2-1.8c-0.3-0.8-0.5-1.8-0.5-3c0-1.7,0.2-3,0.7-3.8c0.4-0.8,1.2-1.4,2.2-1.9s2.2-0.7,3.6-0.7
		c1.5,0,2.8,0.2,3.9,0.7c1.1,0.5,1.8,1.1,2.1,1.9c0.4,0.8,0.5,2,0.5,3.8V7.5z"/>
	<path class="st0" d="M119.5,10v3.9h-7.4V10H119.5z"/>
	<path class="st0" d="M121.1,0.6h5.9c1.6,0,2.8,0.1,3.7,0.4s1.5,0.6,1.9,1.1s0.7,1.1,0.9,1.7c0.2,0.7,0.2,1.7,0.2,3.1v2
		c0,1.4-0.1,2.5-0.4,3.2c-0.3,0.7-0.8,1.2-1.6,1.5c-0.8,0.4-1.8,0.5-3.1,0.5H127v9.2h-5.9L121.1,0.6L121.1,0.6z M127,4.5v5.8
		c0.2,0,0.3,0,0.4,0c0.5,0,0.9-0.1,1.1-0.4c0.2-0.3,0.3-0.8,0.3-1.7V6.3c0-0.8-0.1-1.3-0.4-1.5C128.3,4.6,127.8,4.5,127,4.5z"/>
	<path class="st0" d="M135.5,0.6h4.2c2.8,0,4.7,0.1,5.7,0.3c1,0.2,1.8,0.8,2.4,1.6c0.6,0.9,0.9,2.3,0.9,4.2c0,1.8-0.2,3-0.7,3.6
		c-0.4,0.6-1.3,1-2.6,1.1c1.2,0.3,2,0.7,2.4,1.2s0.7,0.9,0.7,1.3c0.1,0.4,0.1,1.5,0.1,3.4v6h-5.5v-7.5c0-1.2-0.1-2-0.3-2.3
		s-0.7-0.4-1.5-0.4v10.2h-5.9V0.6H135.5z M141.4,4.5v5c0.7,0,1.1-0.1,1.4-0.3c0.3-0.2,0.4-0.8,0.4-1.8V6.2c0-0.7-0.1-1.2-0.4-1.4
		C142.6,4.6,142.1,4.5,141.4,4.5z"/>
	<path class="st0" d="M164.5,13.9c0,2.3-0.1,3.9-0.2,4.8c-0.1,0.9-0.4,1.8-1,2.6s-1.3,1.4-2.3,1.8c-1,0.4-2.1,0.6-3.4,0.6
		c-1.2,0-2.3-0.2-3.3-0.6c-1-0.4-1.7-1-2.3-1.8s-0.9-1.7-1.1-2.6c-0.1-0.9-0.2-2.6-0.2-4.9V9.9c0-2.3,0.1-3.9,0.2-4.8s0.4-1.8,1-2.6
		c0.6-0.8,1.3-1.4,2.3-1.8s2.1-0.6,3.4-0.6c1.2,0,2.3,0.2,3.3,0.6s1.7,1,2.3,1.8s0.9,1.7,1.1,2.6c0.1,0.9,0.2,2.6,0.2,4.9V13.9z
		 M158.6,6.4c0-1.1-0.1-1.7-0.2-2C158.3,4.1,158,4,157.7,4s-0.5,0.1-0.7,0.4c-0.2,0.2-0.2,0.9-0.2,2.1v10.6c0,1.3,0.1,2.1,0.2,2.4
		c0.1,0.3,0.4,0.5,0.7,0.5c0.4,0,0.7-0.2,0.8-0.5c0.1-0.4,0.2-1.2,0.2-2.5V6.4H158.6z"/>
	<path class="st0" d="M184.9,0.6v22.7h-5.2V8l-2,15.3H174l-2.2-15v15h-5.2V0.6h7.6c0.2,1.4,0.5,3,0.7,4.8l0.8,5.8l1.4-10.6
		C177.1,0.6,184.9,0.6,184.9,0.6z"/>
	<path class="st0" d="M200.7,13.9c0,2.3-0.1,3.9-0.2,4.8c-0.1,0.9-0.4,1.8-1,2.6s-1.3,1.4-2.3,1.8c-1,0.4-2.1,0.6-3.4,0.6
		c-1.2,0-2.3-0.2-3.3-0.6c-1-0.4-1.7-1-2.3-1.8s-0.9-1.7-1.1-2.6c-0.1-0.9-0.2-2.6-0.2-4.9V9.9c0-2.3,0.1-3.9,0.2-4.8
		c0.1-0.9,0.4-1.8,1-2.6c0.6-0.8,1.3-1.4,2.3-1.8s2.1-0.6,3.4-0.6c1.2,0,2.3,0.2,3.3,0.6s1.7,1,2.3,1.8s0.9,1.7,1.1,2.6
		c0.1,0.9,0.2,2.6,0.2,4.9V13.9z M194.8,6.4c0-1.1-0.1-1.7-0.2-2c-0.1-0.3-0.4-0.4-0.7-0.4s-0.5,0.1-0.7,0.4
		C193,4.6,193,5.3,193,6.5v10.6c0,1.3,0.1,2.1,0.2,2.4c0.1,0.3,0.4,0.5,0.7,0.5c0.4,0,0.7-0.2,0.8-0.5c0.1-0.4,0.2-1.2,0.2-2.5V6.4
		H194.8z"/>
	<path class="st0" d="M206.5,18.7v4.6h-4.2v-4.6H206.5z"/>
	<path class="st0" d="M221.6,0.6v15.2c0,1.7-0.1,2.9-0.2,3.6c-0.1,0.7-0.4,1.4-1,2.1c-0.6,0.7-1.3,1.3-2.2,1.7s-2,0.6-3.2,0.6
		c-1.4,0-2.6-0.2-3.6-0.7c-1-0.4-1.8-1-2.3-1.8c-0.5-0.7-0.8-1.5-0.9-2.3c-0.1-0.8-0.1-2.5-0.1-5V0.6h5.9v17c0,1,0.1,1.6,0.2,1.9
		c0.1,0.3,0.3,0.4,0.7,0.4s0.6-0.2,0.7-0.5c0.1-0.3,0.2-1,0.2-2.2V0.6H221.6z"/>
	<path class="st0" d="M233.8,0.6v4.5l-4.4,13.6h4.4v4.6h-10.9V20l4.5-14.9h-4V0.6C223.4,0.6,233.8,0.6,233.8,0.6z"/>
</g>
</svg>
