<?xml version="1.0" encoding="utf-8"?>
<!-- Generator: Adobe Illustrator 25.2.3, SVG Export Plug-In . SVG Version: 6.00 Build 0)  -->
<svg version="1.1" id="Layer_1" xmlns="http://www.w3.org/2000/svg" xmlns:xlink="http://www.w3.org/1999/xlink" x="0px" y="0px"
	 viewBox="0 0 381.1 43.4" style="enable-background:new 0 0 381.1 43.4;" xml:space="preserve">
<style type="text/css">
	.st0{fill:#FCAF17;}
</style>
<g>
	<path class="st0" d="M21.5,22.9h-9.1v-6.1c0-1.8-0.1-2.9-0.3-3.3c-0.2-0.4-0.6-0.7-1.3-0.7c-0.8,0-1.2,0.3-1.4,0.8
		c-0.2,0.5-0.3,1.7-0.3,3.5v16.3c0,1.7,0.1,2.8,0.3,3.3c0.2,0.5,0.7,0.8,1.4,0.8c0.7,0,1.1-0.3,1.3-0.8c0.2-0.5,0.3-1.7,0.3-3.7
		v-4.4h9.1V30c0,3.6-0.3,6.2-0.8,7.7c-0.5,1.5-1.6,2.8-3.4,4c-1.8,1.1-3.9,1.7-6.5,1.7C8.2,43.4,6,43,4.3,42s-2.9-2.3-3.4-4
		S0,33.7,0,30.3V20c0-2.5,0.1-4.4,0.3-5.7c0.2-1.3,0.7-2.5,1.5-3.6s2-2.1,3.6-2.8c1.5-0.7,3.3-1,5.3-1c2.7,0,4.9,0.5,6.6,1.6
		s2.9,2.3,3.4,3.9c0.5,1.5,0.8,4,0.8,7.2V22.9z"/>
	<path class="st0" d="M24.8,7.6H34l0,14.8c1.7,0,2.6-1,2.7-2.9l0.2-6.8c0.1-2.5,0.5-4.2,1.5-5.1h8.4c-0.8,0.9-1.2,2.6-1.2,5.3l0,6
		c0,3.6-2,5.7-6.1,6.2c4.1,0.5,6.2,2.6,6.1,6.3l0,5.6c0,2.7,0.4,4.5,1.2,5.7h-8.4c-1-0.9-1.5-2.6-1.5-5.1v-6.8
		c0-0.9-0.3-1.6-0.8-2.1s-1.2-0.8-2-0.8l0,14.9h-9.1V7.6z"/>
	<path class="st0" d="M64.4,7.6l5.2,35.1h-9.3l-0.5-6.3h-3.3L56,42.7h-9.4l4.7-35.1H64.4z M59.5,30.2c-0.5-4-0.9-8.9-1.4-14.7
		c-0.9,6.7-1.5,11.6-1.7,14.7H59.5z"/>
	<path class="st0" d="M92.1,7.6v35.1H83V28h-2.7v14.7h-9.1V7.6h9.1v12.5H83V7.6H92.1z"/>
	<path class="st0" d="M116.1,42.7h-7.6v-16l-4.7,16h-8V7.6h7.6v15.8l5.1-15.8h7.6V42.7z"/>
	<path class="st0" d="M119.7,7.6h9.2c2.5,0,4.4,0.2,5.7,0.6s2.3,1,3,1.7s1.1,1.6,1.4,2.7c0.2,1,0.4,2.7,0.4,4.9v3.1
		c0,2.2-0.2,3.9-0.7,4.9c-0.5,1-1.3,1.8-2.5,2.4c-1.2,0.5-2.8,0.8-4.8,0.8h-2.4v14.1h-9.1V7.6z M128.8,13.6v8.9c0.3,0,0.5,0,0.7,0
		c0.8,0,1.4-0.2,1.7-0.6s0.5-1.3,0.5-2.6v-2.9c0-1.2-0.2-2-0.6-2.3C130.8,13.8,130,13.6,128.8,13.6z"/>
	<path class="st0" d="M160,7.6l-2.5,23.2c-0.4,3.7-0.8,6.2-1.3,7.7s-1.3,2.5-2.6,3.2c-1.3,0.6-3.4,1-6.3,1H142v-4.5h0.5
		c1.2,0,1.9-0.1,2.2-0.3c0.3-0.2,0.4-0.5,0.4-0.9c0,0-0.2-1-0.5-3l-4.8-26.4h7.9l2.9,21.8l1.4-21.8H160z"/>
	<path class="st0" d="M182.2,42.7h-7.6v-16l-4.7,16h-8V7.6h7.6v15.8l5.1-15.8h7.6V42.7z M174.5,0h3.7c-0.1,2-0.7,3.5-1.7,4.7
		s-2.5,1.8-4.4,1.8c-1.9,0-3.4-0.6-4.4-1.8c-1-1.2-1.6-2.8-1.7-4.7h3.7c0.2,2,1,3,2.4,3C173.5,3,174.3,2,174.5,0z"/>
	<path class="st0" d="M214.9,34.5c0,2.6-0.3,4.5-1,5.6c-0.7,1.1-1.7,1.9-3.1,2.1c-1.4,0.3-3.6,0.4-6.6,0.4h-10.5V7.6h17.9v6.1h-8.7
		v5.9h1.4c2.8,0,4.9,0.2,6.4,0.5c1.4,0.3,2.5,1.1,3.2,2.2c0.7,1.1,1.1,2.9,1.1,5.3V34.5z M205.8,33.4v-5.1c0-1.5-0.1-2.4-0.4-2.7
		s-1.1-0.5-2.5-0.5v11.5c1.2,0,1.9-0.1,2.3-0.4C205.6,35.9,205.8,35,205.8,33.4z"/>
	<path class="st0" d="M233.9,7.6l5.2,35.1h-9.3l-0.5-6.3h-3.3l-0.5,6.3h-9.4l4.7-35.1H233.9z M229.1,30.2c-0.5-4-0.9-8.9-1.4-14.7
		c-0.9,6.7-1.5,11.6-1.7,14.7H229.1z"/>
	<path class="st0" d="M259,7.6v7h-5.4v28h-9.1v-28h-5.4v-7H259z"/>
	<path class="st0" d="M281.9,28.2c0,3.5-0.1,6-0.2,7.5c-0.2,1.5-0.7,2.8-1.6,4c-0.9,1.2-2.1,2.1-3.5,2.8c-1.5,0.6-3.2,1-5.2,1
		c-1.9,0-3.6-0.3-5.1-0.9c-1.5-0.6-2.7-1.5-3.6-2.8c-0.9-1.2-1.5-2.6-1.6-4c-0.2-1.4-0.3-4-0.3-7.6v-6c0-3.5,0.1-6,0.2-7.5
		c0.2-1.5,0.7-2.8,1.6-4s2.1-2.1,3.5-2.8c1.5-0.7,3.2-1,5.2-1c1.9,0,3.6,0.3,5.1,0.9c1.5,0.6,2.7,1.5,3.6,2.8c0.9,1.2,1.5,2.6,1.6,4
		c0.2,1.4,0.3,4,0.3,7.6V28.2z M272.8,16.7c0-1.6-0.1-2.7-0.3-3.1c-0.2-0.5-0.6-0.7-1.1-0.7c-0.5,0-0.8,0.2-1.1,0.6
		s-0.4,1.5-0.4,3.3V33c0,2,0.1,3.3,0.2,3.8c0.2,0.5,0.6,0.7,1.2,0.7c0.6,0,1-0.3,1.2-0.8c0.2-0.5,0.3-1.9,0.3-3.9V16.7z"/>
	<path class="st0" d="M306.3,7.6v35.1h-9.1V28h-2.7v14.7h-9.1V7.6h9.1v12.5h2.7V7.6H306.3z"/>
	<path class="st0" d="M322.4,29.3c-0.7,0.8-1.7,1.4-2.9,1.9c-1.2,0.5-2.4,0.7-3.6,0.7c-2.2,0-3.8-0.6-4.8-1.8
		c-1-1.2-1.5-3.1-1.5-5.6V7.6h9.1v15.8c0,1.4,0.1,2.3,0.4,2.8c0.2,0.5,0.6,0.8,1.2,0.8c1.4,0,2-1.2,2-3.5V7.6h9.1v35.1h-9.1V29.3z"
		/>
	<path class="st0" d="M355.5,42.7h-7.6v-16l-4.7,16h-8V7.6h7.6v15.8l5.1-15.8h7.6V42.7z"/>
	<path class="st0" d="M359.2,7.6h9.1l0,14.8c1.7,0,2.6-1,2.7-2.9l0.2-6.8c0.1-2.5,0.5-4.2,1.5-5.1h8.4c-0.8,0.9-1.2,2.6-1.2,5.3l0,6
		c0,3.6-2,5.7-6.2,6.2c4.1,0.5,6.2,2.6,6.2,6.3l0,5.6c0,2.7,0.4,4.5,1.2,5.7h-8.4c-1-0.9-1.5-2.6-1.5-5.1v-6.8
		c0-0.9-0.3-1.6-0.8-2.1s-1.2-0.8-2-0.8l0,14.9h-9.1V7.6z"/>
</g>
</svg>
