<?xml version="1.0" encoding="utf-8"?>
<!-- Generator: Adobe Illustrator 25.2.3, SVG Export Plug-In . SVG Version: 6.00 Build 0)  -->
<svg version="1.1" id="Layer_1" xmlns="http://www.w3.org/2000/svg" xmlns:xlink="http://www.w3.org/1999/xlink" x="0px" y="0px"
	 viewBox="0 0 724.5 81.9" style="enable-background:new 0 0 724.5 81.9;" xml:space="preserve">
<style type="text/css">
	.st0{fill:#FCAF17;}
</style>
<g>
	<path class="st0" d="M20.4,1.7v78.6H0V1.7H20.4z"/>
	<path class="st0" d="M72,25.4H53v-5.8c0-2.7-0.2-4.5-0.7-5.2c-0.5-0.7-1.3-1.1-2.4-1.1c-1.2,0-2.2,0.5-2.8,1.5
		c-0.6,1-0.9,2.5-0.9,4.6c0,2.6,0.4,4.6,1.1,5.9c0.7,1.3,2.6,2.9,5.8,4.8c9.1,5.4,14.8,9.8,17.2,13.3c2.4,3.5,3.5,9,3.5,16.8
		c0,5.6-0.7,9.7-2,12.4s-3.8,4.9-7.6,6.7C60.3,81,56,81.9,51,81.9c-5.5,0-10.1-1-14-3.1c-3.9-2.1-6.4-4.7-7.6-7.9
		c-1.2-3.2-1.8-7.8-1.8-13.6v-5.1h19v9.6c0,2.9,0.3,4.8,0.8,5.7c0.5,0.8,1.5,1.3,2.8,1.3c1.4,0,2.4-0.5,3-1.6c0.7-1.1,1-2.7,1-4.8
		c0-4.6-0.6-7.7-1.9-9.1c-1.3-1.4-4.5-3.8-9.6-7.1c-5.1-3.4-8.4-5.8-10.1-7.3c-1.7-1.5-3-3.6-4.1-6.3c-1.1-2.7-1.6-6.1-1.6-10.3
		c0-6,0.8-10.4,2.3-13.2c1.5-2.8,4-5,7.5-6.5C40.1,0.8,44.3,0,49.1,0c5.3,0,9.8,0.9,13.6,2.6c3.7,1.7,6.2,3.9,7.4,6.5
		s1.8,7,1.8,13.3V25.4z"/>
	<path class="st0" d="M127.1,1.7v78.6h-20.4v-33h-6.1v33H80.1V1.7h20.4v28.1h6.1V1.7H127.1z"/>
	<path class="st0" d="M155.7,1.7v62.9h12.4v15.7h-32.9V1.7H155.7z"/>
	<path class="st0" d="M210.9,1.7l11.7,78.6h-20.9l-1.1-14.1h-7.3l-1.2,14.1h-21.1l10.4-78.6H210.9z M200.1,52.2
		c-1-8.9-2.1-19.9-3.1-33c-2.1,15.1-3.4,26.1-3.9,33H200.1z"/>
	<path class="st0" d="M226.1,1.7h14.5c9.6,0,16.2,0.4,19.6,1.1c3.4,0.7,6.2,2.6,8.4,5.7c2.2,3.1,3.2,7.9,3.2,14.6
		c0,6.1-0.8,10.2-2.3,12.3c-1.5,2.1-4.5,3.4-9,3.8c4,1,6.8,2.3,8.2,4c1.4,1.7,2.3,3.2,2.6,4.6s0.5,5.3,0.5,11.6v20.7h-19V54.1
		c0-4.2-0.3-6.8-1-7.8c-0.7-1-2.4-1.5-5.2-1.5v35.4h-20.4V1.7z M246.5,15.1v17.5c2.3,0,3.9-0.3,4.8-0.9c0.9-0.6,1.4-2.7,1.4-6.1
		v-4.3c0-2.5-0.4-4.1-1.3-4.9C250.5,15.5,248.9,15.1,246.5,15.1z"/>
	<path class="st0" d="M342.8,1.7v78.6h-17.9l-10.6-35.7v35.7h-17.1V1.7h17.1L325.7,37V1.7H342.8z"/>
	<path class="st0" d="M397.7,47.7c0,7.9-0.2,13.5-0.6,16.8c-0.4,3.3-1.5,6.3-3.5,9c-2,2.7-4.6,4.8-7.9,6.3
		c-3.3,1.5-7.2,2.2-11.7,2.2c-4.2,0-8-0.7-11.3-2.1c-3.4-1.4-6-3.4-8.1-6.2c-2-2.8-3.3-5.7-3.6-9c-0.4-3.2-0.6-8.9-0.6-17V34.2
		c0-7.9,0.2-13.5,0.6-16.8c0.4-3.3,1.5-6.3,3.5-9c2-2.7,4.6-4.8,7.9-6.3c3.3-1.5,7.2-2.2,11.7-2.2c4.2,0,8,0.7,11.3,2.1
		c3.4,1.4,6,3.4,8.1,6.2c2,2.8,3.3,5.7,3.6,9c0.4,3.2,0.6,8.9,0.6,17V47.7z M377.3,21.8c0-3.7-0.2-6-0.6-7c-0.4-1-1.2-1.5-2.5-1.5
		c-1.1,0-1.9,0.4-2.5,1.2c-0.6,0.8-0.8,3.3-0.8,7.3v36.7c0,4.6,0.2,7.4,0.6,8.4c0.4,1.1,1.2,1.6,2.6,1.6c1.4,0,2.3-0.6,2.7-1.8
		c0.4-1.2,0.6-4.2,0.6-8.8V21.8z"/>
	<path class="st0" d="M451,1.7v78.6h-17.9l-10.6-35.7v35.7h-17.1V1.7h17.1L433.9,37V1.7H451z"/>
	<path class="st0" d="M520,25.4h-19v-5.8c0-2.7-0.2-4.5-0.7-5.2c-0.5-0.7-1.3-1.1-2.4-1.1c-1.2,0-2.2,0.5-2.8,1.5s-0.9,2.5-0.9,4.6
		c0,2.6,0.4,4.6,1.1,5.9c0.7,1.3,2.6,2.9,5.8,4.8c9.1,5.4,14.8,9.8,17.2,13.3c2.4,3.5,3.5,9,3.5,16.8c0,5.6-0.7,9.7-2,12.4
		c-1.3,2.7-3.8,4.9-7.6,6.7s-8.1,2.7-13.1,2.7c-5.5,0-10.1-1-14-3.1c-3.9-2.1-6.4-4.7-7.6-7.9c-1.2-3.2-1.8-7.8-1.8-13.6v-5.1h19
		v9.6c0,2.9,0.3,4.8,0.8,5.7s1.5,1.3,2.8,1.3s2.4-0.5,3-1.6c0.7-1.1,1-2.7,1-4.8c0-4.6-0.6-7.7-1.9-9.1c-1.3-1.4-4.5-3.8-9.6-7.1
		c-5.1-3.4-8.4-5.8-10.1-7.3c-1.7-1.5-3-3.6-4.1-6.3c-1.1-2.7-1.6-6.1-1.6-10.3c0-6,0.8-10.4,2.3-13.2c1.5-2.8,4-5,7.5-6.5
		c3.4-1.6,7.6-2.4,12.4-2.4c5.3,0,9.8,0.9,13.6,2.6c3.7,1.7,6.2,3.9,7.4,6.5c1.2,2.6,1.8,7,1.8,13.3V25.4z"/>
	<path class="st0" d="M569.3,1.7v15.7h-12.1v62.9h-20.4V17.4h-12.1V1.7H569.3z"/>
	<path class="st0" d="M620.7,47.7c0,7.9-0.2,13.5-0.6,16.8c-0.4,3.3-1.5,6.3-3.5,9c-2,2.7-4.6,4.8-7.9,6.3
		c-3.3,1.5-7.2,2.2-11.7,2.2c-4.2,0-8-0.7-11.3-2.1c-3.4-1.4-6-3.4-8.1-6.2c-2-2.8-3.3-5.7-3.6-9c-0.4-3.2-0.6-8.9-0.6-17V34.2
		c0-7.9,0.2-13.5,0.6-16.8c0.4-3.3,1.5-6.3,3.5-9c2-2.7,4.6-4.8,7.9-6.3C588.7,0.7,592.6,0,597,0c4.2,0,8,0.7,11.3,2.1
		c3.4,1.4,6,3.4,8.1,6.2c2,2.8,3.3,5.7,3.6,9c0.4,3.2,0.6,8.9,0.6,17V47.7z M600.2,21.8c0-3.7-0.2-6-0.6-7c-0.4-1-1.2-1.5-2.5-1.5
		c-1.1,0-1.9,0.4-2.5,1.2c-0.6,0.8-0.8,3.3-0.8,7.3v36.7c0,4.6,0.2,7.4,0.6,8.4c0.4,1.1,1.2,1.6,2.6,1.6c1.4,0,2.3-0.6,2.7-1.8
		c0.4-1.2,0.6-4.2,0.6-8.8V21.8z"/>
	<path class="st0" d="M628.3,1.7h20.6c5.6,0,9.8,0.4,12.8,1.3s5.2,2.1,6.7,3.8c1.5,1.7,2.5,3.7,3.1,6c0.5,2.3,0.8,6,0.8,10.9v6.8
		c0,5-0.5,8.7-1.6,11c-1,2.3-2.9,4.1-5.7,5.3s-6.4,1.8-10.9,1.8h-5.5v31.7h-20.4V1.7z M648.7,15.1v20c0.6,0,1.1,0,1.5,0
		c1.9,0,3.2-0.5,3.9-1.4s1.1-2.8,1.1-5.8v-6.5c0-2.7-0.4-4.4-1.3-5.2C653.1,15.5,651.4,15.1,648.7,15.1z"/>
	<path class="st0" d="M697.8,27h-19.6c0.1-6.9,0.6-11.9,1.7-15.1c1.1-3.2,3.5-5.9,7.2-8.3c3.7-2.4,8.4-3.6,14.1-3.6
		c4.1,0,7.7,0.6,10.8,1.9c3.1,1.3,5.5,3.1,7.3,5.4c1.8,2.3,3.1,4.8,4,7.5c0.8,2.7,1.3,6.9,1.3,12.6v9.6c0,4.4-0.4,7.9-1.2,10.5
		c-0.8,2.7-2.6,5-5.3,7c-2.7,2-5.9,3-9.6,3c-4.8,0-8.3-1.9-10.6-5.6v8.4h-18.3V38.9h17.9c0.1,3,1.1,4.5,3.2,4.5c1.6,0,2.6-0.7,3.1-2
		c0.4-1.3,0.7-4.5,0.7-9.6V18.7c0-2.9-0.2-4.8-0.6-5.8c-0.4-1-1.2-1.5-2.4-1.5c-1.5,0-2.4,0.7-2.9,2c-0.4,1.3-0.6,4.3-0.6,8.9V27z
		 M697.8,64.5v15.7h-18.3V64.5H697.8z"/>
</g>
</svg>
