<?xml version="1.0" encoding="utf-8"?>
<!-- Generator: Adobe Illustrator 25.2.3, SVG Export Plug-In . SVG Version: 6.00 Build 0)  -->
<svg version="1.1" id="Layer_1" xmlns="http://www.w3.org/2000/svg" xmlns:xlink="http://www.w3.org/1999/xlink" x="0px" y="0px"
	 viewBox="0 0 336.8 56.9" style="enable-background:new 0 0 336.8 56.9;" xml:space="preserve">
<style type="text/css">
	.st0{fill:#FFFFFF;}
</style>
<g>
	<path class="st0" d="M37,1.1l-7.2,54.6H8.2L0,1.1h15c1.7,15,3,27.8,3.7,38.2c0.7-10.5,1.5-19.9,2.3-28l1-10.2H37z"/>
	<path class="st0" d="M63,1.1l8.1,54.6H56.6l-0.8-9.8h-5.1l-0.9,9.8H35.3l7.2-54.6H63z M55.5,36.3c-0.7-6.2-1.4-13.8-2.2-22.9
		c-1.4,10.5-2.4,18.1-2.7,22.9H55.5z"/>
	<path class="st0" d="M116,1.1L105.6,36v19.8H92.5V36l-10-34.8h13c2,10.7,3.2,17.8,3.4,21.5c0.8-5.8,2.1-13,4-21.5H116z"/>
	<path class="st0" d="M150.7,1.1v36.5c0,4.1-0.1,7-0.4,8.7c-0.3,1.7-1.1,3.4-2.4,5.2c-1.3,1.8-3.1,3.1-5.2,4
		c-2.2,0.9-4.7,1.4-7.7,1.4c-3.3,0-6.1-0.5-8.6-1.6c-2.5-1.1-4.4-2.5-5.6-4.2s-2-3.6-2.2-5.5c-0.2-1.9-0.3-6-0.3-12.1V1.1h14.2v40.9
		c0,2.4,0.1,3.9,0.4,4.6c0.3,0.7,0.8,1,1.6,1c0.9,0,1.5-0.4,1.7-1.1c0.3-0.7,0.4-2.5,0.4-5.2V1.1H150.7z"/>
	<path class="st0" d="M184.8,1.1v10.9h-8.4v43.7h-14.2V12.1h-8.4V1.1H184.8z"/>
	<path class="st0" d="M202.2,1.1v54.6H188V1.1H202.2z"/>
	<path class="st0" d="M207.9,1.1h14.2c4.5,0,7.9,0.3,10.2,1c2.3,0.7,4.2,2.1,5.6,4.2c1.4,2.1,2.1,5.5,2.1,10.3
		c0,3.2-0.5,5.4-1.5,6.7c-1,1.3-3,2.2-5.9,2.9c3.3,0.7,5.5,2,6.7,3.7c1.2,1.7,1.8,4.4,1.8,7.9v5.1c0,3.7-0.4,6.4-1.3,8.2
		c-0.8,1.8-2.2,3-4,3.6c-1.8,0.7-5.6,1-11.3,1h-16.4V1.1z M222.1,10.5v12.1c0.6,0,1.1,0,1.4,0c1.4,0,2.3-0.3,2.7-1s0.6-2.6,0.6-5.9
		c0-1.7-0.2-2.9-0.5-3.6c-0.3-0.7-0.7-1.1-1.2-1.3C224.6,10.6,223.6,10.5,222.1,10.5z M222.1,31.1v15.3c2-0.1,3.3-0.4,3.8-0.9
		c0.6-0.6,0.8-1.9,0.8-4.1v-5.1c0-2.3-0.2-3.8-0.7-4.2S224.2,31.2,222.1,31.1z"/>
	<path class="st0" d="M290.7,33.1c0,5.5-0.1,9.4-0.4,11.7c-0.3,2.3-1.1,4.4-2.4,6.3s-3.2,3.3-5.5,4.4c-2.3,1-5,1.5-8.1,1.5
		c-2.9,0-5.5-0.5-7.9-1.4c-2.3-1-4.2-2.4-5.6-4.3c-1.4-1.9-2.3-4-2.5-6.2s-0.4-6.2-0.4-11.8v-9.3c0-5.5,0.1-9.4,0.4-11.7
		c0.3-2.3,1.1-4.4,2.4-6.3c1.4-1.9,3.2-3.3,5.5-4.3c2.3-1,5-1.5,8.1-1.5c2.9,0,5.5,0.5,7.9,1.4c2.3,1,4.2,2.4,5.6,4.3
		c1.4,1.9,2.3,4,2.5,6.2c0.3,2.2,0.4,6.2,0.4,11.8V33.1z M276.5,15.2c0-2.5-0.1-4.2-0.4-4.9c-0.3-0.7-0.9-1.1-1.7-1.1
		c-0.7,0-1.3,0.3-1.7,0.9c-0.4,0.6-0.6,2.3-0.6,5.1v25.5c0,3.2,0.1,5.1,0.4,5.9c0.3,0.7,0.9,1.1,1.8,1.1c1,0,1.6-0.4,1.9-1.3
		c0.3-0.9,0.4-2.9,0.4-6.1V15.2z"/>
	<path class="st0" d="M310.2,1.1v43.7h8.6v10.9H296V1.1H310.2z"/>
	<path class="st0" d="M336.8,1.1l-2.2,41.1h-10.5l-2.2-41.1H336.8z M335.7,44.8v10.9h-12.7V44.8H335.7z"/>
</g>
</svg>
