<?xml version="1.0" encoding="utf-8"?>
<!-- Generator: Adobe Illustrator 25.2.3, SVG Export Plug-In . SVG Version: 6.00 Build 0)  -->
<svg version="1.1" id="Layer_1" xmlns="http://www.w3.org/2000/svg" xmlns:xlink="http://www.w3.org/1999/xlink" x="0px" y="0px"
	 viewBox="0 0 644.6 57.3" style="enable-background:new 0 0 644.6 57.3;" xml:space="preserve">
<style type="text/css">
	.st0{fill:#FCAF17;}
</style>
<g>
	<path class="st0" d="M0,1.4h14.2c4.5,0,7.9,0.3,10.2,1s4.2,2.1,5.6,4.2c1.3,2.2,2,5.7,2,10.4c0,3.2-0.5,5.4-1.5,6.7
		c-1,1.3-3,2.2-5.9,2.9c3.3,0.7,5.5,2,6.7,3.7c1.2,1.7,1.8,4.4,1.8,7.9v5.1c0,3.7-0.4,6.4-1.3,8.2c-0.8,1.8-2.2,3-4,3.6
		c-1.8,0.7-5.6,1-11.3,1H0V1.4z M14.2,10.8v12.1c0.6,0,1.1,0,1.4,0c1.4,0,2.3-0.3,2.7-1s0.6-2.6,0.6-5.9c0-1.7-0.2-2.9-0.5-3.6
		c-0.3-0.7-0.7-1.1-1.2-1.3C16.6,10.9,15.7,10.8,14.2,10.8z M14.2,31.4v15.3c2-0.1,3.3-0.4,3.8-0.9c0.6-0.6,0.8-1.9,0.8-4.1v-5.1
		c0-2.3-0.2-3.8-0.7-4.2C17.6,31.8,16.3,31.5,14.2,31.4z"/>
	<path class="st0" d="M62.7,1.4L70.8,56H56.3l-0.8-9.8h-5.1L49.5,56H34.9l7.2-54.6C42.1,1.4,62.7,1.4,62.7,1.4z M55.2,36.6
		c-0.7-6.2-1.4-13.8-2.2-22.9c-1.4,10.5-2.4,18.1-2.7,22.9H55.2z"/>
	<path class="st0" d="M98,1.4v10.9h-8.4V56H75.4V12.4H67v-11H98z"/>
	<path class="st0" d="M133.7,33.4c0,5.5-0.1,9.4-0.4,11.7c-0.3,2.3-1.1,4.4-2.4,6.3c-1.4,1.9-3.2,3.3-5.5,4.4c-2.3,1-5,1.5-8.1,1.5
		c-2.9,0-5.5-0.5-7.9-1.4c-2.3-1-4.2-2.4-5.6-4.3c-1.4-1.9-2.3-4-2.5-6.2c-0.3-2.2-0.4-6.2-0.4-11.8v-9.3c0-5.5,0.1-9.4,0.4-11.7
		s1.1-4.4,2.4-6.3c1.4-1.9,3.2-3.3,5.5-4.3s5-1.5,8.1-1.5c2.9,0,5.5,0.5,7.9,1.4c2.3,1,4.2,2.4,5.6,4.3c1.4,1.9,2.3,4,2.5,6.2
		c0.3,2.2,0.4,6.2,0.4,11.8L133.7,33.4L133.7,33.4z M119.5,15.5c0-2.5-0.1-4.2-0.4-4.9c-0.3-0.7-0.9-1.1-1.7-1.1
		c-0.7,0-1.3,0.3-1.7,0.9c-0.4,0.6-0.6,2.3-0.6,5.1V41c0,3.2,0.1,5.1,0.4,5.9c0.3,0.7,0.9,1.1,1.8,1.1c1,0,1.6-0.4,1.9-1.3
		c0.3-0.9,0.4-2.9,0.4-6.1V15.5H119.5z"/>
	<path class="st0" d="M170.7,1.4V56h-12.4l-7.4-24.8V56H139V1.4h11.9l8,24.6V1.4H170.7z"/>
	<path class="st0" d="M209.5,25.2h-14.2v-9.5c0-2.8-0.2-4.5-0.5-5.2s-1-1-2-1c-1.2,0-1.9,0.4-2.2,1.2s-0.5,2.6-0.5,5.4v25.4
		c0,2.7,0.2,4.4,0.5,5.2s1,1.2,2.1,1.2s1.7-0.4,2.1-1.2c0.3-0.8,0.5-2.7,0.5-5.7v-6.9h14.2v2.2c0,5.7-0.4,9.7-1.2,12
		c-0.8,2.4-2.6,4.4-5.3,6.2s-6.1,2.7-10.1,2.7c-4.2,0-7.6-0.8-10.3-2.3s-4.5-3.6-5.4-6.3s-1.3-6.7-1.3-12v-16c0-3.9,0.1-6.9,0.4-8.9
		c0.3-2,1.1-3.9,2.4-5.7c1.3-1.8,3.2-3.3,5.6-4.3c2.4-1,5.1-1.6,8.2-1.6c4.2,0,7.6,0.8,10.4,2.4c2.7,1.6,4.5,3.6,5.4,6
		s1.3,6.2,1.3,11.3L209.5,25.2L209.5,25.2z"/>
	<path class="st0" d="M247.3,1.4V56h-14.2V33.1h-4.2V56h-14.2V1.4h14.2v19.5h4.2V1.4H247.3z"/>
	<path class="st0" d="M277.5,1.4l8.1,54.6h-14.5l-0.8-9.8h-5.1l-0.9,9.8h-14.7L257,1.4H277.5z M270,36.6c-0.7-6.2-1.4-13.8-2.2-22.9
		c-1.4,10.5-2.4,18.1-2.7,22.9H270z"/>
	<path class="st0" d="M319.7,1.4V56h-12.4l-7.4-24.8V56H288V1.4h11.9l8,24.6V1.4H319.7z"/>
	<path class="st0" d="M339.6,1.4V56h-14.2V1.4H339.6z"/>
	<g>
		<path class="st0" d="M401.6,18h-13.2v-4c0-1.9-0.2-3.1-0.5-3.6c-0.3-0.5-0.9-0.8-1.7-0.8c-0.9,0-1.5,0.3-1.9,1s-0.7,1.8-0.7,3.2
			c0,1.8,0.2,3.2,0.7,4.1s1.8,2,4,3.3c6.3,3.8,10.3,6.8,11.9,9.2c1.6,2.4,2.5,6.3,2.5,11.6c0,3.9-0.5,6.8-1.4,8.6
			c-0.9,1.8-2.7,3.4-5.3,4.6c-2.6,1.2-5.6,1.9-9.1,1.9c-3.8,0-7-0.7-9.7-2.2c-2.7-1.4-4.4-3.3-5.3-5.5c-0.8-2.2-1.2-5.4-1.2-9.5
			v-3.6h13.2v6.6c0,2,0.2,3.4,0.6,3.9c0.4,0.6,1,0.9,2,0.9s1.6-0.4,2.1-1.1s0.7-1.8,0.7-3.3c0-3.2-0.4-5.3-1.3-6.3s-3.1-2.6-6.6-5
			c-3.5-2.3-5.9-4-7-5.1c-1.1-1.1-2.1-2.5-2.8-4.4c-0.8-1.9-1.1-4.2-1.1-7.2c0-4.2,0.5-7.2,1.6-9.2c1.1-1.9,2.8-3.4,5.2-4.5
			s5.3-1.6,8.6-1.6c3.7,0,6.8,0.6,9.4,1.8c2.6,1.2,4.3,2.7,5.2,4.5c0.8,1.8,1.3,4.9,1.3,9.2V18H401.6z"/>
		<path class="st0" d="M441,1.4l-8.1,24.7l8.9,29.9h-14.7l-5.8-23.4V56h-14.1V1.4h14.2v21.2l6.3-21.2H441z"/>
		<path class="st0" d="M470.2,1.4l8.1,54.6h-14.5l-0.8-9.8h-5.1L457,56h-14.6l7.2-54.6H470.2z M462.7,36.6
			c-0.7-6.2-1.4-13.8-2.2-22.9c-1.4,10.5-2.4,18.1-2.7,22.9H462.7z"/>
		<path class="st0" d="M512.4,1.4V56H500l-7.4-24.8V56h-11.9V1.4h11.9l8,24.6V1.4H512.4z"/>
		<path class="st0" d="M518.1,1.4h23.7v10.9h-9.5v10.4h8.9v10.4h-8.9v12h10.4V56h-24.6V1.4z"/>
		<path class="st0" d="M546.8,1.4h10c6.7,0,11.2,0.3,13.6,0.8s4.3,1.8,5.8,4c1.5,2.1,2.2,5.5,2.2,10.2c0,4.2-0.5,7.1-1.6,8.6
			c-1.1,1.5-3.1,2.3-6.2,2.6c2.8,0.7,4.7,1.6,5.7,2.8c1,1.2,1.6,2.2,1.8,3.2s0.4,3.7,0.4,8.1v14.4h-13.2V38c0-2.9-0.2-4.7-0.7-5.4
			c-0.5-0.7-1.7-1-3.6-1v24.6h-14.2V1.4z M561,10.8v12.1c1.6,0,2.7-0.2,3.4-0.7c0.6-0.4,1-1.9,1-4.3v-3c0-1.7-0.3-2.9-0.9-3.4
			C563.8,11.1,562.7,10.8,561,10.8z"/>
		<path class="st0" d="M598.2,1.4v43.7h8.6V56H584V1.4H598.2z"/>
		<path class="st0" d="M636.5,1.4l8.1,54.6h-14.5l-0.8-9.8h-5.1l-0.9,9.8h-14.7l7.2-54.6H636.5z M629,36.6
			c-0.7-6.2-1.4-13.8-2.2-22.9c-1.4,10.5-2.4,18.1-2.7,22.9H629z"/>
	</g>
</g>
</svg>
