<?xml version="1.0" encoding="utf-8"?>
<!-- Generator: Adobe Illustrator 25.2.3, SVG Export Plug-In . SVG Version: 6.00 Build 0)  -->
<svg version="1.1" id="Layer_1" xmlns="http://www.w3.org/2000/svg" xmlns:xlink="http://www.w3.org/1999/xlink" x="0px" y="0px"
	 viewBox="0 0 255.6 100.3" style="enable-background:new 0 0 255.6 100.3;" xml:space="preserve">
<style type="text/css">
	.st0{fill:#FCAF17;}
</style>
<g>
	<path class="st0" d="M30.6,30.2c0,2.9-0.4,4.9-1.1,6.2c-0.7,1.3-1.9,2-3.4,2.4c-1.5,0.3-3.9,0.5-7.2,0.5H7.3V0.8h19.6v6.7h-9.6V14
		h1.5c3.1,0,5.4,0.2,7,0.5c1.6,0.4,2.8,1.2,3.5,2.4c0.8,1.2,1.2,3.2,1.2,5.9L30.6,30.2L30.6,30.2z M20.6,29.1v-5.6
		c0-1.6-0.2-2.6-0.5-2.9s-1.2-0.5-2.8-0.6v12.6c1.3,0,2.1-0.2,2.6-0.5S20.6,30.8,20.6,29.1z"/>
	<path class="st0" d="M51.4,0.8l5.7,38.4H46.9l-0.5-6.9h-3.6l-0.6,6.9H31.9L37,0.8H51.4z M46.1,25.5c-0.5-4.4-1-9.7-1.5-16.1
		c-1,7.4-1.7,12.7-1.9,16.1H46.1z"/>
	<path class="st0" d="M79,0.8v7.7h-5.9v30.7h-10V8.5h-5.9V0.8H79z"/>
	<path class="st0" d="M104.1,23.3c0,3.9-0.1,6.6-0.3,8.2s-0.8,3.1-1.7,4.4c-1,1.3-2.3,2.3-3.9,3.1c-1.6,0.7-3.5,1.1-5.7,1.1
		c-2.1,0-3.9-0.3-5.5-1s-3-1.7-4-3s-1.6-2.8-1.8-4.4c-0.2-1.6-0.3-4.4-0.3-8.3v-6.6c0-3.9,0.1-6.6,0.3-8.2C81.4,7,82,5.5,82.9,4.2
		c1-1.3,2.3-2.4,3.9-3.1C88.4,0.4,90.3,0,92.5,0c2.1,0,3.9,0.3,5.5,1s3,1.7,4,3s1.6,2.8,1.8,4.4c0.2,1.6,0.3,4.4,0.3,8.3V23.3z
		 M94.1,10.7c0-1.8-0.1-2.9-0.3-3.4c-0.2-0.5-0.6-0.7-1.2-0.7c-0.5,0-0.9,0.2-1.2,0.6C91.1,7.6,91,8.8,91,10.8v17.9
		c0,2.2,0.1,3.6,0.3,4.1c0.2,0.5,0.6,0.8,1.3,0.8c0.7,0,1.1-0.3,1.3-0.9c0.2-0.6,0.3-2,0.3-4.3V10.7H94.1z"/>
	<path class="st0" d="M130.8,0.8v38.4h-10V23.1h-3v16.1h-10V0.8h10v13.7h3V0.8H130.8z"/>
	<path class="st0" d="M148.4,24.5c-0.8,0.9-1.9,1.5-3.2,2.1c-1.3,0.5-2.6,0.8-3.9,0.8c-2.4,0-4.1-0.7-5.2-2
		c-1.1-1.3-1.6-3.4-1.6-6.2V0.8h10v17.3c0,1.5,0.1,2.5,0.4,3.1c0.3,0.6,0.7,0.8,1.3,0.8c1.5,0,2.2-1.3,2.2-3.8V0.8h10v38.5h-10V24.5
		z"/>
	<path class="st0" d="M184.8,39.2h-8.4V21.7l-5.2,17.5h-8.8V0.8h8.4v17.4l5.6-17.4h8.4V39.2z"/>
	<path class="st0" d="M188.8,0.8h10V17c1.9,0,2.9-1.1,2.9-3.1l0.2-7.5c0.1-2.8,0.6-4.6,1.6-5.6h9.2c-0.9,0.9-1.3,2.9-1.3,5.8v6.6
		c0,4-2.2,6.3-6.7,6.8c4.5,0.6,6.8,2.9,6.7,6.9V33c0,2.9,0.4,5,1.3,6.2h-9.2c-1.1-1-1.6-2.8-1.6-5.6v-7.5c0-0.9-0.3-1.7-0.9-2.3
		s-1.3-0.9-2.2-0.9v16.3h-10V0.8z"/>
	<path class="st0" d="M235,0.8v7.7h-5.9v30.7h-10V8.5h-5.9V0.8H235z"/>
	<path class="st0" d="M247.1,0.8v38.4h-10V0.8H247.1z"/>
	<path class="st0" d="M23.5,71.9h-10v-6.7c0-1.9-0.1-3.2-0.3-3.6c-0.2-0.5-0.7-0.7-1.4-0.7c-0.8,0-1.3,0.3-1.6,0.9
		c-0.2,0.6-0.3,1.9-0.3,3.8v17.9c0,1.9,0.1,3.1,0.3,3.7s0.7,0.9,1.5,0.9c0.7,0,1.2-0.3,1.5-0.9c0.2-0.6,0.3-1.9,0.3-4v-4.8h10v1.5
		c0,4-0.3,6.8-0.8,8.5c-0.6,1.7-1.8,3.1-3.7,4.4s-4.3,1.9-7.1,1.9c-2.9,0-5.3-0.5-7.2-1.6s-3.2-2.5-3.8-4.4S0,84,0,80.2V68.8
		C0,66,0.1,64,0.3,62.6c0.2-1.4,0.8-2.7,1.7-4c0.9-1.3,2.2-2.3,3.9-3c1.7-0.7,3.6-1.1,5.8-1.1c2.9,0,5.4,0.6,7.3,1.7
		c1.9,1.1,3.2,2.6,3.8,4.3s0.9,4.3,0.9,7.9v3.5H23.5z"/>
	<path class="st0" d="M27,55.2h10v16.2c1.9,0,2.9-1.1,2.9-3.1l0.2-7.5c0.1-2.8,0.6-4.6,1.6-5.6h9.2c-0.9,0.9-1.3,2.9-1.3,5.8v6.6
		c0,4-2.2,6.3-6.7,6.8c4.5,0.6,6.8,2.9,6.7,6.9v6.1c0,2.9,0.4,5,1.3,6.2h-9.2c-1.1-1-1.6-2.8-1.6-5.6v-7.5c0-1-0.3-1.7-0.9-2.3
		c-0.6-0.6-1.3-0.9-2.2-0.9v16.3H27V55.2z"/>
	<path class="st0" d="M70.4,55.2l5.7,38.4H65.9l-0.5-6.9h-3.6l-0.6,6.9H50.8l5.1-38.4C55.9,55.2,70.4,55.2,70.4,55.2z M65.1,79.9
		c-0.5-4.4-1-9.7-1.5-16.1c-1,7.4-1.7,12.7-1.9,16.1H65.1z"/>
	<path class="st0" d="M100.8,55.2v38.4h-10V77.5h-3v16.1h-10V55.2h10v13.7h3V55.2H100.8z"/>
	<path class="st0" d="M104.8,55.2h16.7v7.7h-6.7v7.3h6.2v7.3h-6.2v8.4h7.3v7.7h-17.3V55.2z"/>
	<path class="st0" d="M124.9,55.2H135c2.7,0,4.8,0.2,6.3,0.6c1.5,0.4,2.6,1,3.3,1.9c0.7,0.8,1.2,1.8,1.5,2.9s0.4,2.9,0.4,5.3v3.3
		c0,2.5-0.3,4.2-0.8,5.4c-0.5,1.1-1.4,2-2.8,2.6c-1.4,0.6-3.1,0.9-5.3,0.9h-2.7v15.5h-10V55.2z M134.9,61.8v9.8c0.3,0,0.5,0,0.7,0
		c0.9,0,1.6-0.2,1.9-0.7c0.4-0.5,0.5-1.4,0.5-2.8v-3.2c0-1.3-0.2-2.2-0.6-2.6C137.1,62,136.2,61.8,134.9,61.8z"/>
	<path class="st0" d="M173.8,93.6h-10V62.9h-2.9v21.8c0,2.9-0.4,4.9-1.1,6.2c-0.7,1.3-1.9,2-3.4,2.4c-1.5,0.3-3.9,0.5-7.2,0.5h-1.6
		v-6.6c1.2,0,2.1-0.2,2.5-0.5c0.5-0.3,0.7-1.3,0.7-3.1V55.2h23V93.6z"/>
	<path class="st0" d="M177.8,55.2h16.7v7.7h-6.7v7.3h6.2v7.3h-6.2v8.4h7.3v7.7h-17.3V55.2z"/>
	<path class="st0" d="M235.1,100.3h-6.9v-6.6h-16.1v6.6h-6.9V85.6h2c1.1-3.1,2-7.3,2.6-12.4c0.7-5.1,1-10.7,1-16.8v-1.2H233v30.4h2
		v14.7C235,100.3,235.1,100.3,235.1,100.3z M223.1,85.6V62.8h-3v0.3c0,7.4-0.8,14.9-2.4,22.5C217.7,85.6,223.1,85.6,223.1,85.6z"/>
	<path class="st0" d="M238.2,55.2H255v7.7h-6.7v7.3h6.2v7.3h-6.2v8.4h7.3v7.7h-17.3L238.2,55.2L238.2,55.2z"/>
</g>
</svg>
