<?xml version="1.0" encoding="utf-8"?>
<!-- Generator: Adobe Illustrator 25.2.3, SVG Export Plug-In . SVG Version: 6.00 Build 0)  -->
<svg version="1.1" id="Layer_1" xmlns="http://www.w3.org/2000/svg" xmlns:xlink="http://www.w3.org/1999/xlink" x="0px" y="0px"
	 viewBox="0 0 160 47" style="enable-background:new 0 0 160 47;" xml:space="preserve">
<style type="text/css">
	.st0{fill:#FF000A;}
	.st1{fill:#FFFFFF;}
	.st2{fill:#20008C;}
	.st3{fill-rule:evenodd;clip-rule:evenodd;fill:#FFFFFF;}
	.st4{fill-rule:evenodd;clip-rule:evenodd;fill:#FF000A;}
</style>
<g>
	<g>
		<path class="st0" d="M27.55,0c-9.67,0-13.58,6.58-15.03,10.59L0,45.52h132.45c9.69,0,13.65-6.62,15.03-10.59L160,0H27.55z"/>
		<g>
			<path class="st1" d="M27.55,4.15c-4.55,0-9.01,1.96-11.12,7.84L5.9,41.37h126.56c4.55,0,9.01-1.96,11.12-7.84L154.1,4.15H27.55z"
				/>
		</g>
		<g>
			<path class="st2" d="M138.77,17.75h6.89l3.48-9.65c0,0-0.66-0.28-1.86-0.53c-1.2-0.25-2.97-0.51-5.29-0.51
				c-7.04,0-8.73,1.89-10.92,8.13c-1.76,5-0.67,6.79,1.62,9.07c1.58,1.59,2.85,2.52,1.86,5.08l-1.26,3.23
				c-0.29,0.76-0.57,1.12-1.06,1.12c-0.75,0-0.8-0.46-0.46-1.31l1.94-5.1l-6.83,0l-3.75,10.24c0,0,0.96,0.25,2.34,0.48
				c1.37,0.24,3.22,0.48,5.12,0.47c7.08,0.01,8.51-1.99,10.54-7.77c1.86-5.26,1.22-7.37-1.59-10.16c-1.92-1.91-2.41-2.71-1.65-4.78
				l0.8-2.17c0.31-0.85,0.56-1.11,1.16-1.11c0.48,0,0.72,0.29,0.41,1.17L138.77,17.75z M124.63,24.83c-0.18-0.43-0.45-0.89-0.8-1.25
				c0.09-0.02,0.24-0.08,0.42-0.15c1.81-0.74,3.21-2.2,3.89-4.05l1.66-4.54c1.64-4.47-0.08-7.35-4.34-7.35h-8.17l-11.13,30.54h6.82
				l4.59-12.69l0.07-0.01c0.8,0,1.04,0.84,0.49,2.5l-3.47,10.2h6.69l3.22-9.27C125.18,27.02,124.98,25.71,124.63,24.83z
				 M123.19,14.49l-1.58,4.43c-0.41,1.11-0.95,1.67-1.86,1.67l-0.48,0l2.88-7.84l0.24,0C123.26,12.75,123.68,13.15,123.19,14.49z
				 M102.39,7.49h-7.32l-6.56,9.29l3.6-9.29H84.9L73.77,38.03h7.28l3.61-10.78l-0.2,10.78h7.09l-0.36-15.35L102.39,7.49z
				 M69.95,24.36l-2.93,8c-0.32,0.84-0.52,1.31-1.28,1.32c-0.69,0-0.59-0.54-0.35-1.2l6.85-18.84c0.32-0.88,0.54-1.19,1.27-1.19
				c0.56,0,0.62,0.4,0.3,1.26l-2.52,6.89l6.83,0.01l4.54-12.46c0,0-0.59-0.26-1.75-0.5C79.75,7.39,78,7.15,75.58,7.15
				c-6.99,0-8.46,1.51-10.44,6.98l-6.4,17.62c-1.42,3.92-0.3,6.74,5.63,6.74c6.36,0,7.99-2.03,9.4-5.91l2.99-8.22L69.95,24.36z
				 M58.01,7.49L46.89,38.03h7.56L65.56,7.49H58.01z M50.3,7.49l-4.98,14.38l1.36-14.38h-7.75L27.77,38.03h5.47l5.11-14.31
				l-1.33,14.31h7.69L55.73,7.49H50.3z M27.18,20.54c-1.91-1.91-2.41-2.72-1.65-4.78l0.79-2.16c0.32-0.85,0.57-1.11,1.17-1.11
				c0.49,0.01,0.73,0.29,0.41,1.17l-1.49,4.1l6.89,0l3.47-9.65c0,0-0.66-0.28-1.85-0.53c-1.19-0.26-2.96-0.51-5.29-0.51
				c-7.04,0-8.72,1.89-10.91,8.12c-1.77,5-0.67,6.79,1.62,9.07c1.58,1.59,2.85,2.53,1.85,5.08l-1.26,3.24
				c-0.3,0.76-0.57,1.11-1.07,1.11c-0.75,0-0.78-0.45-0.46-1.3l1.94-5.11l-6.83-0.01l-3.75,10.24c0,0,0.97,0.25,2.34,0.49
				c1.38,0.24,3.23,0.47,5.13,0.47c7.09,0,8.51-1.99,10.55-7.78C30.62,25.44,29.99,23.33,27.18,20.54z M104.09,25.19l4.14,0
				l1.91-5.2l-4.16,0l2.63-7.35l5.32,0l1.95-5.15h-12.6L92.13,38.03h12.59l1.82-5.05h-5.29L104.09,25.19z"/>
			<path class="st3" d="M127.24,27.8l-3.42,9.34l0.44,0.1l3.46-9.43H127.24z M140.37,11.96c-0.09,0-0.17,0.01-0.26,0.01
				c0.88,0.11,1.04,0.9,0.72,1.72l-1.32,3.54H140l1.31-3.53C141.66,12.8,141.45,11.96,140.37,11.96z M134.72,25.04
				c-3.26-3.35-4.53-4.36-2.67-9.68c2.1-5.99,3.6-7.72,10.14-7.77L142,7.59c-6.78,0-8.3,1.7-10.42,7.78
				c-1.87,5.31-0.6,6.32,2.67,9.67c1.32,1.36,1.54,2.55,0.8,4.5l-1.11,2.95c-0.38,0.97-0.72,1.61-1.49,1.71
				c0.09,0.01,0.16,0.01,0.26,0.01c0.92,0,1.3-0.66,1.7-1.73l1.12-2.95C136.26,27.58,136.04,26.4,134.72,25.04z M117.66,8.02
				L106.92,37.5h0.47l10.74-29.48H117.66z M118.04,24.81l-0.35,0c1.55,0.07,1.53,1.56,0.93,3.33l-3.2,9.36h0.48l3.2-9.36
				C119.71,26.32,119.7,24.8,118.04,24.81z M122.86,12.23l-0.48,0c1.21,0,1.92,0.73,1.3,2.44l-1.59,4.43
				c-0.46,1.27-1.16,2.02-2.35,2.02h0.48c1.19,0,1.89-0.76,2.35-2.02l1.59-4.43C124.78,12.96,124.06,12.23,122.86,12.23z
				 M85.15,25.76L85,37.5h0.48l0.16-13.19L85.15,25.76z M95.35,8.02l-7.59,10.6l-0.55,1.44l8.61-12.03H95.35z M74.52,37.5h0.48
				L85.74,8.02h-0.48L74.52,37.5z M73.98,11.92c-0.09,0-0.18,0.01-0.27,0.02c0.84,0.11,0.96,0.87,0.66,1.72l-2.33,6.41l0.49-0.01
				l2.33-6.41C75.18,12.75,75.01,11.92,73.98,11.92z M67.51,32.54c-0.31,0.84-0.63,1.54-1.53,1.64c0.07,0.01,0.14,0.01,0.23,0.01
				c1.1,0.01,1.44-0.74,1.78-1.65l2.81-7.67l-0.48,0L67.51,32.54z M65.63,14.32l-6.39,17.61c-1.3,3.57-0.43,6.04,5.13,6.04h0.26
				c-5.37-0.06-6.19-2.5-4.91-6.04l6.4-17.6c1.89-5.2,3.15-6.61,9.69-6.64l-0.23,0C68.82,7.67,67.55,9.05,65.63,14.32z M47.65,37.5
				h0.48L58.86,8.02h-0.47L47.65,37.5z M37.61,37.5h0.48l1.5-17.24l-0.63,1.73L37.61,37.5z M28.52,37.5l0.47,0L39.78,8.02h-0.48
				L28.52,37.5z M50.67,8.02L45.09,23.8l-0.17,1.83l6.23-17.61H50.67z M14.87,27.8l-3.42,9.34l0.46,0.11l3.44-9.44L14.87,27.8z
				 M28,11.96c-0.09,0-0.17,0.01-0.25,0.02c0.88,0.11,1.03,0.89,0.72,1.71l-1.32,3.54l0.48,0l1.31-3.54
				C29.28,12.81,29.08,11.96,28,11.96z M19.2,15.36c-1.86,5.31-0.59,6.33,2.67,9.67c1.32,1.36,1.54,2.56,0.81,4.51l-1.11,2.95
				c-0.38,0.99-0.72,1.62-1.49,1.72c0.08,0.01,0.17,0.01,0.26,0.01c0.92,0,1.31-0.65,1.71-1.73l1.11-2.95
				c0.74-1.95,0.52-3.14-0.8-4.5c-3.27-3.34-4.54-4.37-2.67-9.67c2.1-5.98,3.59-7.72,10.14-7.77l-0.2,0
				C22.85,7.59,21.33,9.3,19.2,15.36z M92.88,37.5h0.48l10.76-29.48h-0.48L92.88,37.5z"/>
		</g>
		<g>
			<path class="st4" d="M145.54,41.31c-1.2,0-2.14,0.94-2.14,2.13c0,1.22,0.92,2.14,2.14,2.14c1.19,0,2.13-0.94,2.13-2.14
				C147.67,42.24,146.73,41.31,145.54,41.31z M145.54,45.15c-0.96,0-1.71-0.73-1.71-1.71c0-0.97,0.75-1.7,1.71-1.7
				c0.95,0,1.7,0.73,1.7,1.7C147.24,44.42,146.49,45.15,145.54,45.15z"/>
			<path class="st0" d="M144.65,42.34h0.94c0.26,0,0.47,0.08,0.61,0.22c0.11,0.12,0.18,0.29,0.18,0.48v0.01
				c0,0.36-0.21,0.58-0.5,0.67l0.57,0.84H146l-0.52-0.77h-0.01h-0.46v0.77h-0.37V42.34z M145.56,43.44c0.26,0,0.43-0.15,0.43-0.37
				v-0.01c0-0.24-0.16-0.37-0.44-0.37h-0.54v0.74H145.56z"/>
		</g>
	</g>
</g>
</svg>
