<?xml version="1.0" encoding="utf-8"?>
<!-- Generator: Adobe Illustrator 25.2.3, SVG Export Plug-In . SVG Version: 6.00 Build 0)  -->
<svg version="1.1" id="Layer_1" xmlns="http://www.w3.org/2000/svg" xmlns:xlink="http://www.w3.org/1999/xlink" x="0px" y="0px"
	 viewBox="0 0 174.1 38.6" style="enable-background:new 0 0 174.1 38.6;" xml:space="preserve">
<style type="text/css">
	.st0{fill:#FFFFFF;}
</style>
<g>
	<path class="st0" d="M16.3,25.4h5.4v7.4h-5.4v5.7H7v-5.7H1.4v-7.4H7v-0.8L0,0.1h9.2c1.4,7.5,2.2,12.5,2.4,15.1
		c0.6-4.1,1.5-9.1,2.8-15.1h9.2l-7.3,24.5V25.4z"/>
	<path class="st0" d="M46.8,0.1v7.7h-5.9v30.7h-10V7.8H25V0.1H46.8z"/>
	<path class="st0" d="M72.4,29.5c0,2.9-0.4,4.9-1.1,6.2c-0.7,1.3-1.9,2-3.4,2.4c-1.5,0.3-3.9,0.5-7.2,0.5H49.1V0.1h10v13.2h1.5
		c3.1,0,5.4,0.2,7,0.5c1.6,0.4,2.8,1.2,3.5,2.4c0.8,1.2,1.2,3.2,1.2,5.9L72.4,29.5L72.4,29.5z M62.4,28.4v-5.6
		c0-1.6-0.2-2.6-0.5-2.9c-0.3-0.3-1.2-0.5-2.8-0.6v12.6c1.3,0,2.1-0.2,2.6-0.5C62.2,31.1,62.4,30.1,62.4,28.4z M85.8,38.5h-10V0h10
		V38.5z"/>
	<path class="st0" d="M112.5,38.5h-10V7.7h-3v30.8h-10V0h23V38.5z"/>
	<path class="st0" d="M142.3,0.1l5.7,38.4h-10.2l-0.5-6.9h-3.6l-0.6,6.9h-10.3l5.1-38.4C127.9,0.1,142.3,0.1,142.3,0.1z M137,24.8
		c-0.5-4.4-1-9.7-1.5-16.1c-1,7.4-1.7,12.7-1.9,16.1H137z"/>
	<path class="st0" d="M174.1,38.5h-10V7.7h-2.9v21.8c0,2.9-0.4,4.9-1.1,6.2c-0.7,1.3-1.9,2-3.4,2.4c-1.5,0.3-3.9,0.5-7.2,0.5h-1.6
		V32c1.2,0,2.1-0.2,2.5-0.5c0.5-0.3,0.7-1.3,0.7-3.1V0.1h23V38.5z"/>
</g>
</svg>
